<?xml version="1.0" standalone="no"?>
<!DOCTYPE svg PUBLIC "-//W3C//DTD SVG 1.1//EN" "http://www.w3.org/Graphics/SVG/1.1/DTD/svg11.dtd" >
<svg>
<metadata>
Created by FontForge 20120731 at Tue Aug 16 12:30:11 2016
 By www
Copyright (c) 2013 by Jonathan Hill . All rights reserved.
</metadata>
<defs>
<font id="NuberW00-Regular" horiz-adv-x="594" >
  <font-face 
    font-family="NuberW00-Regular"
    font-weight="400"
    font-stretch="normal"
    units-per-em="1000"
    panose-1="1 0 0 0 0 0 0 0 0 0"
    ascent="800"
    descent="-200"
    x-height="500"
    cap-height="700"
    bbox="-61 -253 1179 1042"
    underline-thickness="50"
    underline-position="-125"
    unicode-range="U+0020-FB02"
  />
<missing-glyph horiz-adv-x="500" 
d="M0 700h500v-700h-500v700zM420 650h-340l170 -255zM450 95v510l-170 -255zM420 50l-170 255l-170 -255h340zM50 95l170 255l-170 255v-510z" />
    <glyph glyph-name="uniFB01" unicode="fi" horiz-adv-x="604" 
d="M123 583q0 45 14.5 75t40.5 48.5t61 26t76 7.5q11 0 21 -0.5t20 -1.5v-41q-9 1 -17 1.5t-16 0.5q-68 0 -105 -26t-37 -91v-82h339v-500h-57v456h-282v-456h-57v456h-83v44h83z" />
    <glyph glyph-name="uniFB02" unicode="fl" horiz-adv-x="596" 
d="M125 583q0 36 10 62.5t27 45t41 29t52 15.5q19 3 39 4t41 0h184v-739h-57v698h-127q-43 2 -69 -4q-43 -9 -64 -36t-21 -76v-82h152v-44h-152v-456h-57v456h-83v44h83z" />
    <glyph glyph-name="f_f.liga" unicode="ff" horiz-adv-x="747" 
d="M122 584q0 45 14.5 75t40.5 48.5t61 26t76 7.5q11 0 21 -0.5t20 -1.5v-41q-9 1 -17 1.5t-16 0.5q-68 0 -105 -26t-37 -91v-82h317v82q0 45 14.5 75t40.5 48.5t61 26t76 7.5q11 0 21 -0.5t20 -1.5v-41q-9 1 -17 1.5t-16 0.5q-68 0 -105 -26t-37 -91v-82h152v-44h-152v-456
h-57v456h-317v-456h-57v456h-83v44h83z" />
    <glyph glyph-name="f_f_i.liga" unicode="ffi" horiz-adv-x="978" 
d="M122 584q0 45 14.5 75t40.5 48.5t61 26t76 7.5q11 0 21 -0.5t20 -1.5v-41q-9 1 -17 1.5t-16 0.5q-68 0 -105 -26t-37 -91v-82h317v82q0 45 14.5 75t40.5 48.5t61 26t76 7.5q11 0 21 -0.5t20 -1.5v-41q-9 1 -17 1.5t-16 0.5q-68 0 -105 -26t-37 -91v-82h339v-500h-57v456
h-282v-456h-57v456h-317v-456h-57v456h-83v44h83z" />
    <glyph glyph-name="f_f_l.liga" unicode="ffl" horiz-adv-x="970" 
d="M124 584q0 45 14.5 75t40.5 48.5t61 26t76 7.5q11 0 21 -0.5t20 -1.5v-41q-9 1 -17 1.5t-16 0.5q-68 0 -105 -26t-37 -91v-82h317v82q0 67 32.5 101.5t82.5 46.5q22 5 46 7t50 1h184v-739h-57v698h-127q-50 1 -84 -9q-71 -22 -71 -107v-82h152v-44h-152v-456h-57v456
h-317v-456h-57v456h-83v44h83v84z" />
    <glyph glyph-name=".notdef" horiz-adv-x="500" 
d="M0 700h500v-700h-500v700zM420 650h-340l170 -255zM450 95v510l-170 -255zM420 50l-170 255l-170 -255h340zM50 95l170 255l-170 255v-510z" />
    <glyph glyph-name=".null" horiz-adv-x="0" 
 />
    <glyph glyph-name="nonmarkingreturn" horiz-adv-x="333" 
 />
    <glyph glyph-name="space" unicode=" " horiz-adv-x="300" 
 />
    <glyph glyph-name="exclam" unicode="!" horiz-adv-x="154" 
d="M51 213l-5 487h62l-5 -487h-52zM45 0v108h64v-108h-64z" />
    <glyph glyph-name="quotedbl" unicode="&#x22;" horiz-adv-x="307" 
d="M45 483v242h48v-242h-48zM213 483v242h48v-242h-48z" />
    <glyph glyph-name="numbersign" unicode="#" horiz-adv-x="646" 
d="M601 467l-9 -41h-133l-33 -154h125l-9 -41h-125l-49 -230h-44l49 230h-153l-49 -230h-44l49 230h-132l9 41h132l33 154h-124l9 41h124l45 213h44l-45 -213h153l45 213h44l-45 -213h133zM229 272h153l33 154h-153z" />
    <glyph glyph-name="dollar" unicode="$" horiz-adv-x="593" 
d="M322 706q48 -2 87.5 -14t67.5 -35.5t44 -60.5t16 -89h-57q0 43 -13 72.5t-37 47.5t-58 26t-76 8q-40 0 -72.5 -7.5t-55.5 -25.5t-35.5 -47.5t-12.5 -72.5q0 -33 10 -54.5t28.5 -35t44.5 -20t59 -9.5l101 -10q39 -4 72.5 -13.5t58.5 -29.5t39 -52t14 -80q0 -55 -16.5 -94
t-46.5 -64.5t-71.5 -38.5t-90.5 -15v-95h-53v95q-49 3 -90.5 16t-71.5 38t-47 63.5t-17 91.5h59q0 -45 14.5 -76t40.5 -50.5t62 -28t80 -8.5q42 0 77 8.5t60 28t39 50.5t14 76q0 35 -10 58.5t-28.5 38t-44 21.5t-56.5 10l-99 10q-42 4 -76.5 13.5t-59.5 28t-38.5 49
t-13.5 77.5q0 53 15 90t42 60.5t65 35.5t85 14v96h53z" />
    <glyph glyph-name="percent" unicode="%" horiz-adv-x="867" 
d="M222 -17l367 734h50l-367 -734h-50zM192 706q41 0 69.5 -11t46 -36t25.5 -65.5t8 -100.5t-8 -100.5t-25.5 -65.5t-45.5 -36t-69 -11t-69.5 11t-46 36t-25.5 65.5t-8 100.5t8 100.5t25.5 65.5t46 36t69.5 11h-1zM192 668q-29 0 -48.5 -7.5t-31.5 -27t-17.5 -53.5t-5.5 -87
t5.5 -87t17.5 -53.5t31.5 -27t48.5 -7.5t48.5 7.5t31.5 27t17.5 53.5t5.5 87t-5.5 87t-17.5 53.5t-31.5 27t-48.5 7.5zM671 421q41 0 69 -11t45.5 -36t25.5 -65.5t8 -100.5t-8 -100.5t-25.5 -65.5t-45.5 -36t-69 -11t-69 11t-45.5 36t-25.5 65.5t-8 100.5t8 100.5t25.5 65.5
t45.5 36t69 11zM671 383q-29 0 -48.5 -7.5t-31.5 -27t-17.5 -53.5t-5.5 -87t5.5 -87t17.5 -53.5t31.5 -27t48.5 -7.5t48.5 7.5t31.5 27t17.5 53.5t5.5 87t-5.5 87t-17.5 53.5t-31.5 27t-48.5 7.5z" />
    <glyph glyph-name="ampersand" unicode="&#x26;" horiz-adv-x="689" 
d="M122 580q0 66 42 97.5t114 31.5q75 0 119.5 -30t44.5 -99v-36q0 -32 -14 -58t-44 -44l-86 -52l222 -234q23 32 40 70t33 84l51 -14q-18 -52 -38.5 -99.5t-49.5 -86.5l82 -87l-41 -36l-79 84q-38 -38 -91.5 -60t-131.5 -22q-57 0 -103 13t-78.5 36t-50.5 55.5t-18 70.5v43
q0 47 20 83t62 59l86 51l-59 62q-17 18 -24.5 38.5t-7.5 43.5v36zM389 575q0 47 -27.5 66.5t-81.5 19.5q-51 0 -77 -20.5t-26 -65.5v-33q0 -33 19 -52l65 -68l93 57q34 21 34 66zM159 306q-56 -32 -56 -103v-38q0 -57 50.5 -92t141.5 -35q67 0 111.5 19t76.5 53l-234 249z
" />
    <glyph glyph-name="quotesingle" unicode="'" horiz-adv-x="138" 
d="M45 483v242h48v-242h-48z" />
    <glyph glyph-name="parenleft" unicode="(" horiz-adv-x="360" 
d="M317 -148q-39 -1 -70.5 4.5t-57.5 19.5q-39 15 -66.5 45.5t-44 80.5t-24 121t-7.5 166q0 96 7.5 167t24.5 121t44 80.5t67 45.5q25 13 56.5 18t69.5 4v-49q-39 1 -69.5 -4.5t-53.5 -19.5q-25 -15 -42 -43t-27.5 -71.5t-15.5 -104.5t-5 -144t4.5 -144t15 -104.5t27.5 -71
t41 -43.5q23 -14 54 -19.5t70 -5.5z" />
    <glyph glyph-name="parenright" unicode=")" horiz-adv-x="360" 
d="M47 725q38 1 69.5 -4t56.5 -18q40 -15 67 -45.5t44 -80.5t24.5 -121t7.5 -167q0 -95 -7.5 -166t-24 -121t-44 -80.5t-66.5 -45.5q-26 -14 -57.5 -19.5t-70.5 -4.5v49q39 0 70 5.5t54 19.5q24 16 41 43.5t27.5 71t15 104.5t4.5 144t-5 144t-15.5 104.5t-27.5 71.5t-42 43
q-23 14 -53.5 19.5t-69.5 4.5z" />
    <glyph glyph-name="asterisk" unicode="*" horiz-adv-x="475" 
d="M417 598l12 -35l-162 -53l100 -138l-30 -22l-100 138l-100 -138l-30 22l100 138l-162 53l12 36l162 -53v171h37v-171z" />
    <glyph glyph-name="plus" unicode="+" horiz-adv-x="588" 
d="M542 277v-48h-218v-218h-61v218h-218v48h218v218h61v-218h218z" />
    <glyph glyph-name="comma" unicode="," horiz-adv-x="212" 
d="M168 -11q0 -25 -8 -44t-28 -39l-70 -70l-39 37l56 57q14 14 19 26.5t5 32.5v119h64z" />
    <glyph glyph-name="hyphen" unicode="-" horiz-adv-x="455" 
d="M45 270v48h365v-48h-365z" />
    <glyph glyph-name="period" unicode="." horiz-adv-x="154" 
d="M45 0v108h64v-108h-64z" />
    <glyph glyph-name="slash" unicode="/" horiz-adv-x="378" 
d="M23 -17l282 734h49l-282 -734h-49z" />
    <glyph glyph-name="zero" unicode="0" horiz-adv-x="610" 
d="M305 685q66 0 112 -17.5t74 -58t40.5 -107t12.5 -164.5t-12.5 -164.5t-40.5 -107t-74 -58t-112 -17.5t-112 17.5t-74 58t-40.5 107t-12.5 164.5t12.5 164.5t40.5 107t74 58t112 17.5zM305 632q-49 0 -82.5 -13t-54.5 -46.5t-30 -91t-9 -146.5t9 -146.5t30 -91t54.5 -46.5
t82.5 -13t82.5 13t54.5 46.5t30 91.5t9 147t-9 147t-30 91.5t-54.5 46.5t-82.5 13v-2z" />
    <glyph glyph-name="one" unicode="1" horiz-adv-x="391" 
d="M244 0v616l-172 -141l-35 40l201 165h68v-680h-62z" />
    <glyph glyph-name="two" unicode="2" horiz-adv-x="573" 
d="M63 488q0 55 17 92.5t48 60.5t73.5 33t94.5 10q50 0 91 -10t70.5 -33.5t45.5 -61t16 -92.5q0 -48 -13.5 -77.5t-37.5 -47.5t-57 -28.5t-71 -20.5l-97 -26q-29 -9 -53.5 -18t-41.5 -24t-26.5 -38t-9.5 -60v-98h410v-49h-472v150q0 50 13.5 82t37 52t55 32t68.5 21l99 26
q30 9 55 17t43 21t27.5 33.5t9.5 54.5q0 42 -11.5 70t-33 45.5t-51.5 25t-67 7.5q-39 0 -70 -7.5t-53 -25t-34 -45.5t-12 -70z" />
    <glyph glyph-name="three" unicode="3" horiz-adv-x="583" 
d="M60 521q1 39 11.5 69.5t36 51.5t68.5 31.5t108 10.5q62 0 105 -9.5t69.5 -30t38 -53t11.5 -78.5q0 -66 -23.5 -103t-83.5 -52q65 -16 91 -57.5t26 -117.5q0 -52 -12 -88.5t-39.5 -60t-72.5 -34t-110 -10.5q-66 0 -110 11.5t-70.5 33.5t-38 54t-14.5 74h58q2 -35 12 -58.5
t30 -38t52.5 -21t79.5 -6.5q51 0 84.5 7.5t54 25.5t28.5 46.5t8 70.5t-8 70t-28.5 45t-54 24.5t-84.5 7.5h-77v48h77q48 0 79 6.5t50 21.5t26.5 39t7.5 60t-7.5 60t-26.5 39t-50 21.5t-79 6.5q-46 0 -76.5 -6t-49.5 -19.5t-27.5 -36t-9.5 -54.5z" />
    <glyph glyph-name="four" unicode="4" horiz-adv-x="569" 
d="M528 249v-49h-99v-200h-60v200h-326v55l311 425h74v-432zM370 249v368l-267 -368h267z" />
    <glyph glyph-name="five" unicode="5" horiz-adv-x="556" 
d="M478 631h-354v-257q20 35 61.5 50t104.5 15q61 0 102 -12.5t66.5 -39.5t36.5 -69t11 -102t-11.5 -103t-38.5 -70.5t-70.5 -40.5t-107.5 -13q-115 0 -171.5 40t-56.5 131h57q0 -67 41.5 -94.5t129.5 -27.5q50 0 83.5 9t53.5 30t28 55t8 84t-8 84t-28 55t-53.5 30t-83.5 9
q-76 0 -114 -24.5t-42 -84.5h-57v395h413v-49z" />
    <glyph glyph-name="six" unicode="6" horiz-adv-x="583" 
d="M128 364q21 42 65 59t120 17q62 0 104 -12t68 -39t37 -69t11 -102q0 -64 -15.5 -107.5t-45 -70.5t-71.5 -38.5t-96 -11.5q-66 0 -112 17.5t-74 58t-40.5 107t-12.5 164.5t12 165t39.5 107.5t71.5 58t108 17.5q42 0 81 -8t68 -27t46.5 -49t17.5 -74h-58q0 31 -11.5 53
t-32.5 35t-49.5 19t-61.5 6q-47 0 -79.5 -12.5t-52.5 -44t-28.5 -84t-8.5 -133.5v-2zM304 393q-44 0 -75.5 -6t-53 -19.5t-33.5 -35t-17 -53.5q2 -70 13 -116.5t32.5 -74t54.5 -38.5t80 -11q42 0 74 8.5t53.5 29.5t32.5 55.5t11 85.5q0 50 -8 84t-28 54.5t-53 29.5t-82 9z
" />
    <glyph glyph-name="seven" unicode="7" horiz-adv-x="513" 
d="M155 1h-66l319 630h-367v49h439v-35z" />
    <glyph glyph-name="eight" unicode="8" horiz-adv-x="601" 
d="M298 685q62 0 105 -9.5t69.5 -30t38 -53t11.5 -78.5q0 -66 -23.5 -103t-83.5 -52q65 -16 91.5 -57.5t26.5 -117.5q0 -52 -12 -88.5t-39.5 -60t-72.5 -34t-110 -10.5t-110 10.5t-72.5 34t-39.5 60t-12 88.5q0 76 26.5 117.5t91.5 57.5q-60 15 -83.5 52t-23.5 103
q0 46 11.5 78.5t38 53t69.5 30t105 9.5h-2zM298 638q-48 0 -79 -6.5t-50 -21.5t-26.5 -39t-7.5 -60t7.5 -60t26.5 -39t50 -21.5t79 -6.5t79 6.5t50 21.5t26.5 39t7.5 60t-7.5 60t-26.5 39t-50 21.5t-79 6.5zM298 336q-51 0 -84.5 -7.5t-54 -24.5t-28.5 -45t-8 -70t8 -70.5
t28.5 -46.5t54 -25.5t84.5 -7.5t84.5 7.5t54 25.5t28.5 46.5t8 70.5t-8 70t-28.5 45t-54 24.5t-84.5 7.5z" />
    <glyph glyph-name="nine" unicode="9" horiz-adv-x="583" 
d="M455 311q-21 -42 -65 -59t-120 -17q-62 0 -104 12t-68 39t-37 69t-11 102q0 64 15.5 107.5t45 70.5t71.5 38.5t96 11.5q66 0 112 -17.5t74 -58t40.5 -107t12.5 -164.5t-12 -164.5t-39.5 -107t-71.5 -58t-108 -17.5q-42 0 -81 8t-68 27t-46.5 49t-17.5 74h58
q0 -32 11.5 -53.5t32.5 -34.5t49.5 -19t61.5 -6q47 0 79.5 12.5t52.5 43.5t28.5 84t8.5 133v2zM278 637q-42 0 -74 -8.5t-53.5 -29.5t-32.5 -55.5t-11 -85.5q0 -50 8 -84t28 -54.5t52.5 -29.5t82.5 -9q44 0 76 6t53.5 19.5t33.5 35t17 53.5q-2 70 -13 116.5t-32.5 74
t-54.5 38.5t-80 11v2z" />
    <glyph glyph-name="colon" unicode=":" horiz-adv-x="154" 
d="M45 402v108h64v-108h-64zM45 0v108h64v-108h-64z" />
    <glyph glyph-name="semicolon" unicode=";" horiz-adv-x="212" 
d="M103 402v108h64v-108h-64zM168 -10q0 -25 -8 -44t-28 -39l-70 -70l-39 37l56 57q14 14 19 26.5t5 32.5v119h64z" />
    <glyph glyph-name="less" unicode="&#x3c;" horiz-adv-x="577" 
d="M106 283l426 -188l-4 -51l-482 215v49l482 215l4 -51z" />
    <glyph glyph-name="equal" unicode="=" horiz-adv-x="588" 
d="M45 357v48h497v-48h-497zM45 154v48h497v-48h-497z" />
    <glyph glyph-name="greater" unicode="&#x3e;" horiz-adv-x="577" 
d="M532 260l-482 -215l-4 51l426 188l-426 188l4 51l482 -215v-48z" />
    <glyph glyph-name="question" unicode="?" horiz-adv-x="548" 
d="M46 521q0 52 19 87.5t50.5 58t73.5 32.5t88 10q48 0 89.5 -11.5t72 -36t48 -64.5t17.5 -97q0 -47 -13 -75.5t-34 -46t-49 -28t-58 -20.5l-46 -14q-26 -9 -38.5 -19.5t-12.5 -40.5v-43h-61v56q0 21 6 35t16.5 23t24 14.5t28.5 10.5l42 13q28 10 52 18.5t41.5 22t27.5 36
t10 59.5q0 44 -12 74.5t-34 49t-52 26.5t-67 8q-36 0 -67 -7t-54 -23t-36.5 -42.5t-13.5 -64.5zM192 0v108h64v-108h-64z" />
    <glyph glyph-name="at" unicode="@" horiz-adv-x="762" 
d="M539 -67q-33 -11 -71.5 -15.5t-83.5 -4.5q-92 0 -156 20t-104 67t-58 124t-18 191q0 112 19.5 188t60 122.5t104 66.5t152.5 20q88 0 151.5 -20t104.5 -66.5t60 -122.5t19 -188q0 -48 -11 -81.5t-33 -56t-53.5 -36t-73.5 -19.5h-45v48q-20 -30 -55.5 -43.5t-87.5 -13.5
q-48 0 -81 11t-54 35.5t-30.5 64t-9.5 96.5t9.5 96.5t30.5 64t54 35.5t81 11q52 0 87.5 -13.5t55.5 -43.5v49h45v-355q68 12 96 46.5t28 102.5q0 103 -15.5 171t-50 108.5t-89.5 57.5t-134 17t-134 -17t-89.5 -57.5t-50 -108.5t-15.5 -171q0 -106 15 -175t48.5 -110
t88.5 -57.5t136 -16.5q89 0 145 20zM505 426q-15 38 -46 53t-84 15q-40 0 -67.5 -8.5t-44.5 -29t-24.5 -54t-7.5 -83.5t7.5 -84t24.5 -54t44.5 -28.5t67.5 -8.5q53 0 84 15t46 53v214z" />
    <glyph glyph-name="A" unicode="A" horiz-adv-x="699" 
d="M596 0l-78 198h-335l-78 -198h-65l277 700h66l277 -700h-64zM501 245l-151 383l-151 -383h302z" />
    <glyph glyph-name="B" unicode="B" horiz-adv-x="667" 
d="M359 699q64 0 108 -10t71 -31t39 -54.5t12 -80.5q0 -69 -25.5 -107.5t-88.5 -54.5q73 -15 102.5 -56.5t29.5 -117.5q0 -50 -12.5 -85.5t-41.5 -58t-76 -33t-115 -10.5h-263v700zM162 383h189q51 0 85 7t54.5 22.5t28.5 41t8 62.5t-8 62.5t-28.5 41t-54.5 22.5t-85 7h-189
v-266zM162 50h193q55 0 92 7.5t59 24.5t31 44.5t9 67.5t-9 67.5t-31 44.5t-59 24.5t-92 7.5h-193v-288z" />
    <glyph glyph-name="C" unicode="C" horiz-adv-x="681" 
d="M629 201q0 -57 -19.5 -97t-55 -65t-85.5 -36.5t-111 -11.5q-77 0 -131 18.5t-87.5 61t-48.5 111t-15 169.5q0 100 15 169t48.5 111t87.5 60.5t131 18.5q61 0 111 -11.5t85.5 -36.5t55 -65t19.5 -97h-61q0 44 -15 74t-42.5 48t-66.5 26t-86 8q-62 0 -104 -14t-68 -48.5
t-37.5 -94t-11.5 -149.5t11.5 -149.5t37.5 -94t68 -48.5t104 -14q47 0 86 8t66.5 26t42.5 48t15 74z" />
    <glyph glyph-name="D" unicode="D" horiz-adv-x="704" 
d="M339 700q78 0 133 -17t89 -57.5t49.5 -107.5t15.5 -168t-15.5 -168t-49.5 -107.5t-89 -57.5t-133 -17h-240v700h240zM161 52h178q64 0 107 12.5t69.5 46t38 91.5t11.5 149t-11.5 149t-38 91.5t-69.5 46t-107 12.5h-178v-598z" />
    <glyph glyph-name="E" unicode="E" horiz-adv-x="601" 
d="M161 651v-266h375v-49h-375v-287h387v-49h-449v700h446v-49h-384z" />
    <glyph glyph-name="F" unicode="F" horiz-adv-x="586" 
d="M161 650v-277h364v-49h-364v-324h-62v700h435v-49z" />
    <glyph glyph-name="G" unicode="G" horiz-adv-x="726" 
d="M588 79q-34 -49 -90.5 -70t-141.5 -21q-77 0 -130.5 18.5t-87 61t-48.5 111t-15 169.5q0 100 15 169t48.5 111t87 60.5t130.5 18.5q60 0 109 -11t84 -36t55 -64.5t22 -96.5h-61q-1 45 -16 75.5t-42 48.5t-65 26t-85 8q-62 0 -104 -14t-67.5 -49.5t-37 -95t-11.5 -150.5
t11.5 -150.5t37 -94.5t67.5 -49t104 -14q86 0 138.5 23t78.5 83v166h-209v46h270v-366h-43z" />
    <glyph glyph-name="H" unicode="H" horiz-adv-x="715" 
d="M554 0v325h-392v-325h-62v700h62v-325h392v325h62v-700h-62z" />
    <glyph glyph-name="I" unicode="I" horiz-adv-x="260" 
d="M99 0v700h62v-700h-62z" />
    <glyph glyph-name="J" unicode="J" horiz-adv-x="589" 
d="M489 264q0 -84 -13.5 -137.5t-41 -84t-70.5 -41.5t-102 -11q-52 0 -93.5 8.5t-70 31t-44 60.5t-15.5 98h62q0 -46 10.5 -74.5t31 -44.5t51 -22t69.5 -6q46 0 77.5 8.5t51 32.5t28 68t8.5 115v435h62z" />
    <glyph glyph-name="K" unicode="K" horiz-adv-x="653" 
d="M614 0h-71l-264 383l-118 -112v-269h-62v698h62v-344l360 344h81l-283 -271z" />
    <glyph glyph-name="L" unicode="L" horiz-adv-x="566" 
d="M527 49v-49h-428v700h62v-651h366z" />
    <glyph glyph-name="M" unicode="M" horiz-adv-x="877" 
d="M718 0v627l-252 -627h-64l-252 627v-627h-60v700h93l251 -619l251 619h93v-700h-60z" />
    <glyph glyph-name="N" unicode="N" horiz-adv-x="695" 
d="M543 700h61v-700h-69l-384 603v-603h-61v700h70l384 -602z" />
    <glyph glyph-name="O" unicode="O" horiz-adv-x="729" 
d="M364 709q79 0 133.5 -18.5t89 -60.5t50 -111t15.5 -169q0 -101 -15.5 -169.5t-50 -111t-89 -61t-133.5 -18.5t-133.5 18.5t-89 61t-50 111t-15.5 169.5q0 100 15.5 169t50 111t89 60.5t133.5 18.5zM364 659q-63 0 -106 -14t-69.5 -49.5t-38 -95t-11.5 -150.5t11.5 -150.5
t38 -95t69.5 -49.5t106 -14t106 14t69.5 49.5t38 95t11.5 150.5t-11.5 150.5t-38 95t-69.5 49.5t-106 14z" />
    <glyph glyph-name="P" unicode="P" horiz-adv-x="657" 
d="M355 699q65 0 110 -11t72.5 -35t39.5 -61.5t12 -90.5t-12 -90.5t-39.5 -61.5t-72.5 -35t-110 -11h-194v-303h-62v700zM161 350h193q52 0 86 7.5t54.5 25.5t29 46.5t8.5 70.5t-8.5 70.5t-29 46.5t-54.5 25.5t-86 7.5h-193v-300z" />
    <glyph glyph-name="Q" unicode="Q" horiz-adv-x="729" 
d="M447 -3q-38 -6 -82 -6q-79 0 -133.5 18.5t-89 61t-50 111t-15.5 169.5q0 100 15.5 169t50 111t89 60.5t133.5 18.5t133.5 -18.5t89 -60.5t50 -111t15.5 -169q0 -77 -9 -135t-28 -100t-49.5 -68.5t-73.5 -40.5l46 -108l-43 -17zM471 55q33 11 55.5 33t36.5 57.5t20.5 86
t6.5 118.5q0 91 -11.5 150.5t-38 95t-69.5 49.5t-106 14t-106 -14t-69.5 -49.5t-38 -95t-11.5 -150.5t11.5 -150.5t38 -95t69.5 -49.5t106 -14q17 0 32 1t29 3l-63 146l43 17z" />
    <glyph glyph-name="R" unicode="R" horiz-adv-x="674" 
d="M351 701q66 0 111.5 -10.5t73 -33.5t40 -59t12.5 -87q0 -64 -19 -104t-66 -60q49 -21 67 -61.5t18 -105.5v-181h-62v181q0 63 -18.5 98t-67.5 50q-34 -7 -88 -7h-191v-321h-62v700zM160 369h192q52 0 86 7.5t54.5 24t29 43.5t8.5 67t-8.5 67t-29 43.5t-54.5 24t-86 7.5
h-192v-284z" />
    <glyph glyph-name="S" unicode="S" horiz-adv-x="646" 
d="M271 339q-46 4 -84 13.5t-65.5 28t-42.5 49t-15 77.5q0 57 18.5 95.5t52 62t80.5 34t104 10.5q59 0 108 -10.5t84 -34t54.5 -61.5t19.5 -94h-61q0 43 -14.5 72.5t-41 47.5t-64.5 26t-84 8q-44 0 -80 -8t-61.5 -26t-39.5 -47.5t-14 -72.5q0 -33 11 -54.5t31.5 -35
t49.5 -20.5t65 -10l112 -10q43 -4 79.5 -13.5t63.5 -29.5t42.5 -52t15.5 -80q0 -59 -20.5 -99.5t-56.5 -66t-86 -37t-108 -11.5q-60 0 -111.5 11.5t-89 36.5t-59 65t-21.5 98h64q0 -45 16 -76t44.5 -50.5t68.5 -28t88 -8.5q46 0 84.5 8.5t66 28t42.5 50.5t15 76
q0 35 -11 58.5t-31.5 38t-48.5 21.5t-62 10z" />
    <glyph glyph-name="T" unicode="T" horiz-adv-x="607" 
d="M335 651v-651h-62v651h-234v49h529v-49h-233z" />
    <glyph glyph-name="U" unicode="U" horiz-adv-x="720" 
d="M629 316q0 -100 -14.5 -163.5t-46.5 -99.5t-82 -49.5t-122 -13.5t-122 13.5t-82 49.5t-46.5 99.5t-14.5 163.5v384h62v-378q0 -90 10 -145.5t33.5 -85.5t62.5 -40t97 -10t97 10t62.5 40t33.5 85.5t10 145.5v378h62v-384z" />
    <glyph glyph-name="V" unicode="V" horiz-adv-x="674" 
d="M302 0l-262 700h65l233 -623l233 623h65l-262 -700h-72z" />
    <glyph glyph-name="W" unicode="W" horiz-adv-x="936" 
d="M629 0l-162 607l-162 -607h-67l-196 700h62l167 -621l165 621h63l165 -621l167 621h62l-196 -700h-68z" />
    <glyph glyph-name="X" unicode="X" horiz-adv-x="646" 
d="M608 0h-70l-217 310l-211 -310h-70l248 360l-237 340h70l205 -293l200 293h70l-237 -343z" />
    <glyph glyph-name="Y" unicode="Y" horiz-adv-x="654" 
d="M358 1h-62v300l-257 400h70l218 -345l218 345h70l-257 -401v-299z" />
    <glyph glyph-name="Z" unicode="Z" horiz-adv-x="607" 
d="M112 49h444v-49h-513v49l436 602h-415v49h484v-49z" />
    <glyph glyph-name="bracketleft" unicode="[" horiz-adv-x="325" 
d="M103 680v-781h177v-48h-234v876h6h225v-48z" />
    <glyph glyph-name="backslash" unicode="\" horiz-adv-x="378" 
d="M305 -17l-282 734h49l282 -734h-49z" />
    <glyph glyph-name="bracketright" unicode="]" horiz-adv-x="325" 
d="M279 726v-876h-234v48h177v781h-174v48h225z" />
    <glyph glyph-name="asciicircum" unicode="^" horiz-adv-x="597" 
d="M488 216l-191 429l-191 -429l-62 4l219 480h70l219 -480z" />
    <glyph glyph-name="underscore" unicode="_" horiz-adv-x="588" 
d="M45 -167v41h497v-41h-497z" />
    <glyph glyph-name="grave" unicode="`" horiz-adv-x="276" 
d="M181 566l-138 138h60l129 -138h-51z" />
    <glyph glyph-name="a" unicode="a" horiz-adv-x="582" 
d="M77 357q0 42 15 71.5t43 47.5t66 26.5t85 8.5q49 0 89 -8.5t68.5 -27.5t44 -48.5t15.5 -72.5v-353h-53l-2 67q-26 -42 -73.5 -60.5t-121.5 -18.5q-46 0 -83.5 8t-63.5 27t-40.5 48.5t-14.5 73.5q0 43 14.5 73.5t40.5 50t62 28t79 8.5h200v50q0 64 -43.5 90t-117.5 26
q-71 0 -112.5 -26t-41.5 -90zM268 274q-73 0 -115.5 -27.5t-42.5 -94.5q0 -68 42.5 -94.5t121.5 -26.5q72 0 113 18.5t59 66.5v158h-178z" />
    <glyph glyph-name="b" unicode="b" 
d="M140 436q26 40 70.5 57.5t110.5 17.5q59 0 100.5 -14t67.5 -44.5t38 -80t12 -121.5t-12 -121.5t-38 -80t-67.5 -44.5t-100.5 -14q-66 0 -110.5 17.5t-70.5 57.5v-66h-57v738h57v-302zM140 120q18 -48 56.5 -66.5t104.5 -18.5q49 0 83.5 10.5t56 35.5t31 67t9.5 104
t-9.5 104t-31 67.5t-56 36t-83.5 10.5q-66 0 -104.5 -18.5t-56.5 -66.5v-265z" />
    <glyph glyph-name="c" unicode="c" horiz-adv-x="553" 
d="M503 156q0 -45 -15.5 -76.5t-44 -51.5t-69.5 -29t-91 -9q-62 0 -105 14t-70 44.5t-39.5 80t-12.5 121.5t12.5 121.5t39.5 80t70 44.5t105 14q50 0 91 -9t69.5 -29t44 -51t15.5 -76h-56q0 35 -11.5 58.5t-32.5 38t-51.5 21t-68.5 6.5q-48 0 -80.5 -10t-52.5 -35t-29 -67.5
t-9 -106.5t9 -106.5t29 -67.5t52.5 -35t80.5 -10q38 0 68.5 6.5t51.5 21t32.5 38t11.5 58.5z" />
    <glyph glyph-name="d" unicode="d" 
d="M454 -1v66q-26 -40 -70.5 -57.5t-110.5 -17.5q-59 0 -100.5 14t-67.5 44.5t-38 80t-12 121.5t12 121.5t38 80t67.5 44.5t100.5 14q66 0 110.5 -17.5t70.5 -57.5v303h57v-738zM454 381q-18 48 -56.5 66.5t-104.5 18.5q-50 0 -84 -10.5t-55.5 -36t-31 -67.5t-9.5 -104
t9.5 -104t31 -67t55.5 -35.5t84 -10.5q66 0 104.5 18.5t56.5 66.5v265z" />
    <glyph glyph-name="e" unicode="e" horiz-adv-x="561" 
d="M501 144q-5 -84 -63.5 -119.5t-155.5 -35.5q-62 0 -105.5 14t-70.5 44.5t-39.5 80t-12.5 121.5t12.5 121.5t39.5 80t70.5 44.5t105.5 14t105.5 -14t70.5 -44.5t39.5 -80t12.5 -121.5l-1 -24h-398q1 -57 11 -94.5t30.5 -60t52.5 -31.5t77 -9q73 0 117 25.5t46 89.5z
M452 265q-1 58 -10 97.5t-29.5 62.5t-52.5 33t-78 10t-78 -9.5t-52.5 -33t-29.5 -62t-10 -96.5v-6h341z" />
    <glyph glyph-name="f" unicode="f" horiz-adv-x="374" 
d="M123 583q0 45 14.5 75t40.5 48.5t61 26t76 7.5q11 0 21 -0.5t20 -1.5v-41q-9 1 -17 1.5t-16 0.5q-68 0 -105 -26t-37 -91v-82h152v-44h-152v-456h-57v456h-83v44h83z" />
    <glyph glyph-name="g" unicode="g" 
d="M454 74q-26 -40 -70.5 -57.5t-110.5 -17.5q-59 0 -100.5 13.5t-67.5 43.5t-38 77.5t-12 115.5q0 72 12 121.5t38 80t67.5 44.5t100.5 14q66 0 110.5 -17.5t70.5 -57.5v67h57v-547q0 -43 -16.5 -73t-46.5 -48.5t-71 -27t-89 -8.5q-45 0 -83 8t-66.5 25.5t-45 45.5
t-19.5 68h56q4 -60 46.5 -83.5t111.5 -23.5q76 0 121 26.5t45 90.5v120zM454 383q-18 47 -56.5 65.5t-103.5 18.5q-50 0 -84 -10.5t-55.5 -36t-31 -67.5t-9.5 -105q0 -59 9.5 -99.5t31 -65t55.5 -35t84 -10.5q65 0 103.5 18.5t56.5 65.5v261z" />
    <glyph glyph-name="h" unicode="h" horiz-adv-x="602" 
d="M145 431q16 25 34.5 40.5t40 24.5t47.5 12t58 3q59 0 98 -11.5t61.5 -37t31.5 -66t9 -98.5v-297h-57v295q0 48 -7 80.5t-25 52t-49.5 28t-80.5 8.5q-31 0 -54.5 -3t-42 -13t-34 -27.5t-30.5 -47.5v-374h-57v737h57v-306z" />
    <glyph glyph-name="i" unicode="i" horiz-adv-x="230" 
d="M88 608v92h60v-92h-60zM89 0v500h57v-500h-57z" />
    <glyph glyph-name="j" unicode="j" horiz-adv-x="229" 
d="M86 608v92h60v-92h-60zM144 -33q0 -42 -12 -71t-34 -49q-24 -23 -59 -33.5t-78 -10.5v46q32 2 57.5 10t42.5 26q26 28 26 82v533h57v-533z" />
    <glyph glyph-name="k" unicode="k" horiz-adv-x="532" 
d="M412 500h73l-218 -186l240 -314h-67l-210 278l-85 -71v-207h-57v737h57v-464z" />
    <glyph glyph-name="l" unicode="l" horiz-adv-x="222" 
d="M88 0v737h57v-737h-57z" />
    <glyph glyph-name="m" unicode="m" horiz-adv-x="917" 
d="M139 429q16 26 33.5 42t37 24.5t43 11t52.5 2.5q72 0 112 -20t57 -66q17 28 35 44.5t39 25.5t46 12t56 3q57 0 93.5 -11.5t58.5 -37t30.5 -66t8.5 -98.5v-297h-57v296q0 49 -6.5 81.5t-24 52t-47 28t-75.5 8.5q-29 0 -50 -2.5t-37.5 -11t-31 -25.5t-29.5 -45q7 -34 7 -89
v-292h-57v296q0 49 -6.5 81.5t-23 52t-45 28t-72.5 8.5q-28 0 -49 -2.5t-37.5 -12t-30.5 -27.5t-29 -49v-374h-57v500h53z" />
    <glyph glyph-name="n" unicode="n" horiz-adv-x="599" 
d="M139 431q16 25 34.5 40.5t40.5 24t48 11.5t58 3q60 0 99 -11.5t62 -37t32 -66t9 -98.5v-297h-57v297q0 49 -7 81.5t-25.5 52t-50.5 28t-81 8.5q-31 0 -54.5 -3t-42 -13t-34 -27.5t-30.5 -47.5v-376h-57v500h53z" />
    <glyph glyph-name="o" unicode="o" horiz-adv-x="580" 
d="M290 509q64 0 108.5 -14t72.5 -44.5t41 -80t13 -121.5t-13 -121.5t-41 -80t-72.5 -44.5t-108.5 -14t-108.5 14t-72.5 44.5t-41 80t-13 121.5t13 121.5t41 80t72.5 44.5t108.5 14zM290 468q-50 0 -84 -10t-55 -35t-30 -67t-9 -106t9 -106t30 -67t55 -35t84 -10q49 0 83 10
t55 35t30.5 67t9.5 106t-9.5 106t-30.5 67t-55 35t-83 10z" />
    <glyph glyph-name="p" unicode="p" horiz-adv-x="599" 
d="M145 436q26 40 70.5 57.5t110.5 17.5q59 0 100.5 -14t67.5 -44.5t38 -80t12 -121.5t-12 -121.5t-38 -80t-67.5 -44.5t-100.5 -14q-66 0 -110.5 17.5t-70.5 57.5v-266h-57v700h57v-64zM145 120q18 -48 56.5 -66.5t104.5 -18.5q49 0 83.5 10.5t56 36t31 67.5t9.5 104
t-9.5 104t-31 67t-56 35.5t-83.5 10.5q-66 0 -104.5 -18.5t-56.5 -66.5v-265z" />
    <glyph glyph-name="q" unicode="q" horiz-adv-x="592" 
d="M453 64q-26 -40 -70.5 -57.5t-110.5 -17.5q-59 0 -100.5 14t-67.5 44.5t-38 80t-12 121.5t12 121.5t38 80t67.5 44.5t100.5 14q66 0 110.5 -17.5t70.5 -57.5v66h57v-700h-57v264zM453 380q-18 48 -56.5 66.5t-104.5 18.5q-50 0 -84 -10.5t-55.5 -35.5t-31 -67t-9.5 -104
t9.5 -104t31 -67.5t55.5 -36t84 -10.5q66 0 104.5 18.5t56.5 66.5v265z" />
    <glyph glyph-name="r" unicode="r" horiz-adv-x="366" 
d="M138 413q17 33 33.5 52.5t35 29t39 12t46.5 2.5q11 0 24 -0.5t25 -2.5v-43q-11 1 -22 1h-24q-28 0 -49 -2.5t-38.5 -14t-33.5 -33.5t-34 -61v-353h-57v500h57z" />
    <glyph glyph-name="s" unicode="s" horiz-adv-x="541" 
d="M225 241q-38 3 -69 10t-53.5 20.5t-34.5 35.5t-12 55q0 40 15 68t42.5 45.5t65.5 25t85 7.5q48 0 88 -7.5t68.5 -25t44.5 -45t16 -67.5h-53q0 60 -43.5 84.5t-118.5 24.5q-72 0 -114 -24.5t-42 -84.5q0 -45 33.5 -62t91.5 -22l90 -7q35 -3 65 -10t52.5 -21.5t35 -38
t12.5 -58.5q0 -43 -17 -72.5t-46.5 -48t-70 -27t-88.5 -8.5q-49 0 -91 8.5t-73 26.5t-48.5 47.5t-17.5 71.5h56q0 -32 12.5 -54.5t36 -36.5t55.5 -20t71 -6q37 0 68 6t53.5 20t34.5 36.5t12 54.5q0 25 -9 42t-25 27.5t-39 16t-50 7.5z" />
    <glyph glyph-name="t" unicode="t" horiz-adv-x="373" 
d="M326 499v-44h-154v-305q0 -42 15 -66.5t41 -36.5q20 -9 42 -11t57 -1v-44q-8 -1 -18 -1.5t-22 -0.5q-24 0 -51 3.5t-48 14.5q-35 17 -54 51t-19 93v305h-88v44h88v132h57v-132z" />
    <glyph glyph-name="u" unicode="u" 
d="M462 -1l-2 70q-17 -25 -35 -40.5t-40 -24t-48 -11.5t-58 -3q-60 0 -99 11.5t-62 37t-32 66t-9 98.5v297h57v-297q0 -49 7 -81.5t25.5 -52t50 -28t81.5 -8.5q31 0 54.5 3t42 13t34 27.5t30.5 47.5v376h57v-500z" />
    <glyph glyph-name="v" unicode="v" horiz-adv-x="530" 
d="M230 0l-205 500h59l181 -445l181 445h58l-205 -500h-69z" />
    <glyph glyph-name="w" unicode="w" horiz-adv-x="773" 
d="M511 0l-126 434l-126 -434h-69l-166 500h58l144 -445l130 445h60l130 -445l144 445h58l-166 -500h-71z" />
    <glyph glyph-name="x" unicode="x" horiz-adv-x="496" 
d="M471 0h-62l-162 214l-159 -214h-62l190 258l-182 242h62l154 -203l151 203h62l-182 -247z" />
    <glyph glyph-name="y" unicode="y" horiz-adv-x="533" 
d="M161 -200l82 200h-9l-210 500h59l183 -438l183 438h59l-293 -700h-54z" />
    <glyph glyph-name="z" unicode="z" horiz-adv-x="502" 
d="M113 43h342v-44h-420v44l336 413h-318v44h396v-44z" />
    <glyph glyph-name="braceleft" unicode="{" horiz-adv-x="392" 
d="M346 681q-53 0 -86 -16q-55 -25 -55 -102v-165q0 -38 -18.5 -66.5t-49.5 -42.5q31 -14 49.5 -42.5t18.5 -66.5v-165q0 -41 14.5 -65.5t40.5 -36.5q17 -8 38.5 -11.5t47.5 -3.5v-48q-66 0 -111 18q-42 17 -64.5 51.5t-22.5 92.5v169q0 38 -21.5 60.5t-56.5 22.5h-26v51h26
q35 0 57 22.5t22 60.5v169q0 56 21 90t59 51q24 11 53.5 15.5t64.5 4.5z" />
    <glyph glyph-name="bar" unicode="|" horiz-adv-x="148" 
d="M45 -150v900h57v-900h-57z" />
    <glyph glyph-name="braceright" unicode="}" horiz-adv-x="392" 
d="M44 727q35 0 64.5 -4.5t53.5 -15.5q38 -17 59 -51t21 -90v-169q0 -38 22 -60.5t57 -22.5h26v-51h-26q-35 0 -56.5 -22.5t-21.5 -60.5v-169q0 -58 -22.5 -92.5t-64.5 -51.5q-45 -18 -111 -18v48q26 0 47.5 3.5t38.5 11.5q26 12 40.5 36.5t14.5 65.5v165q0 38 18.5 66.5
t49.5 42.5q-31 14 -49.5 42.5t-18.5 66.5v165q0 77 -55 102q-33 16 -86 16z" />
    <glyph glyph-name="asciitilde" unicode="~" horiz-adv-x="536" 
d="M41 237q26 46 55 65.5t63 19.5q26 0 55.5 -9.5t63.5 -26.5t58 -26.5t44 -9.5q24 0 44 16.5t46 53.5l18 -42q-26 -38 -49 -57t-51 -19q-22 0 -48 10.5t-60 27.5q-33 17 -60.5 26t-50.5 9q-31 0 -56 -17t-50 -62z" />
    <glyph glyph-name="exclamdown" unicode="&#xa1;" horiz-adv-x="154" 
d="M45 402v108h64v-108h-64zM46 -190l5 487h52l5 -487h-62z" />
    <glyph glyph-name="cent" unicode="&#xa2;" horiz-adv-x="556" 
d="M304 510q45 -2 82 -12t63 -29.5t40 -50t14 -72.5h-56q0 35 -11.5 58.5t-32.5 38t-51.5 21t-68.5 6.5q-48 0 -80.5 -10t-52.5 -35t-29 -67.5t-9 -106.5t9 -106.5t29 -67.5t52.5 -35t80.5 -10q38 0 68.5 6.5t51.5 21t32.5 38t11.5 58.5h56q0 -42 -14 -72.5t-40 -50
t-63 -29.5t-82 -12v-96h-49v96q-54 3 -92 18.5t-61.5 46t-34.5 78t-11 115.5q0 67 11 115t34.5 78.5t61.5 46t92 18.5v96h49v-94z" />
    <glyph glyph-name="sterling" unicode="&#xa3;" horiz-adv-x="593" 
d="M98 431q0 84 12.5 137t39 83t68.5 41.5t102 11.5q48 0 87 -7.5t67.5 -27t44.5 -53.5t18 -86h-62q-2 39 -13 64t-30.5 39t-47.5 19t-64 5q-45 0 -75.5 -7.5t-49.5 -30.5t-27 -64.5t-8 -108.5v-75h335v-48h-335v-275h389v-48h-503v48h51v275h-51v48h51z" />
    <glyph glyph-name="currency" unicode="&#xa4;" horiz-adv-x="715" 
 />
    <glyph glyph-name="yen" unicode="&#xa5;" horiz-adv-x="641" 
d="M529 421v-43h-128l-49 -78v-42h177v-43h-177v-216h-62v216h-177v43h177v42l-49 78h-128v43h105l-172 279h70l205 -345l205 345h70l-172 -279h105z" />
    <glyph glyph-name="brokenbar" unicode="&#xa6;" horiz-adv-x="148" 
d="M45 396v354h57v-354h-57zM45 -150v354h57v-354h-57z" />
    <glyph glyph-name="section" unicode="&#xa7;" horiz-adv-x="548" 
d="M235 159q-38 3 -69 11t-53.5 23t-35 39.5t-12.5 61.5q0 56 24 89t66 49q-42 12 -66.5 38t-24.5 77q0 45 15 76t43 50.5t66.5 28t85.5 8.5q49 0 89 -8.5t69 -27.5t45 -49.5t16 -75.5h-55q0 65 -44 92t-118 27q-72 0 -113.5 -26.5t-41.5 -92.5q0 -25 8.5 -41.5t24.5 -27
t39 -15.5t52 -8l91 -8q35 -3 65.5 -11t53 -24t35.5 -42t13 -65q0 -51 -20.5 -83.5t-55.5 -51.5q35 -14 56 -41.5t21 -75.5q0 -47 -17 -80t-47 -53.5t-71.5 -30t-89.5 -9.5q-50 0 -92.5 9t-73.5 29.5t-49 53t-18 79.5h58q0 -35 12.5 -59t36 -39t55.5 -21.5t71 -6.5
q37 0 68 6.5t53.5 21.5t34.5 39t12 59q0 28 -9 46t-25.5 29.5t-39 17t-50.5 7.5zM232 412q-51 -8 -80.5 -35t-29.5 -81q0 -25 8.5 -41.5t24.5 -27t39 -15.5t52 -8l80 -7q22 -1 45 -6q36 13 56.5 40t20.5 72q0 28 -9 46t-25.5 29.5t-39 17t-50.5 7.5l-80 7z" />
    <glyph glyph-name="dieresis" unicode="&#xa8;" horiz-adv-x="365" 
d="M44 611v45h54v-45h-54zM269 611v45h54v-45h-54z" />
    <glyph glyph-name="copyright" unicode="&#xa9;" horiz-adv-x="810" 
d="M405 710q75 0 140.5 -28.5t114 -77t77 -114t28.5 -140.5t-28.5 -140.5t-77 -114t-114 -77t-140.5 -28.5t-140.5 28.5t-114 77t-77 114t-28.5 140.5t28.5 140.5t77 114t114 77t140.5 28.5zM405 670q-66 0 -123.5 -25t-101 -68.5t-68.5 -101.5t-25 -124t25 -124
t68.5 -101.5t101 -68.5t123.5 -25t123.5 25t101 68.5t68.5 101.5t25 124t-25 124t-68.5 101.5t-101 68.5t-123.5 25zM557 265q1 -68 -42.5 -96t-113.5 -28q-44 0 -75 11t-50.5 35.5t-28.5 64t-9 97.5t9 97.5t28.5 64t50.5 35.5t75 11q70 0 113.5 -28.5t42.5 -95.5h-40
q1 52 -30.5 71t-86.5 19q-35 0 -58.5 -8t-38 -27.5t-21 -53t-6.5 -84.5t6.5 -84.5t21 -53t38 -27.5t58.5 -8q55 0 86.5 19t30.5 71z" />
    <glyph glyph-name="ordfeminine" unicode="&#xaa;" horiz-adv-x="399" 
d="M58 596q-1 59 40 84t106 25q69 0 111 -25t42 -85v-246h-41l-2 43q-18 -27 -51 -39t-82 -12q-65 0 -103.5 24.5t-38.5 85.5t38.5 87t99.5 26h137v34q0 44 -29 61.5t-80 17.5q-49 0 -77.5 -17.5t-27.5 -62.5zM193 537q-51 0 -79.5 -18.5t-28.5 -64.5q0 -47 29 -64.5
t83 -17.5q50 0 77.5 13t39.5 45v108z" />
    <glyph glyph-name="guillemotleft" unicode="&#xab;" horiz-adv-x="497" 
d="M89 276l147 -160l-27 -29l-161 171v36l161 171l27 -29zM304 276l147 -160l-27 -29l-161 171v36l161 171l27 -29z" />
    <glyph glyph-name="logicalnot" unicode="&#xac;" horiz-adv-x="715" 
 />
    <glyph glyph-name="registered" unicode="&#xae;" horiz-adv-x="810" 
d="M405 710q75 0 140.5 -28.5t114 -77t77 -114t28.5 -140.5t-28.5 -140.5t-77 -114t-114 -77t-140.5 -28.5t-140.5 28.5t-114 77t-77 114t-28.5 140.5t28.5 140.5t77 114t114 77t140.5 28.5zM405 670q-66 0 -123.5 -25t-101 -68.5t-68.5 -101.5t-25 -124t25 -124
t68.5 -101.5t101 -68.5t123.5 -25t123.5 25t101 68.5t68.5 101.5t25 124t-25 124t-68.5 101.5t-101 68.5t-123.5 25zM412 549q74 0 104 -25.5t30 -82.5q0 -34 -10 -56t-34 -34q25 -12 34.5 -34.5t9.5 -57.5v-105h-38v105q0 35 -10 53t-36 26q-19 -4 -52 -4h-105v-180h-38
v395h145zM306 363h106q29 0 48 4t30 13t15.5 24t4.5 37t-4.5 37t-15.5 24t-30 13t-48 4h-106v-156z" />
    <glyph glyph-name="macron" unicode="&#xaf;" horiz-adv-x="441" 
d="M44 669v35h353v-35h-353z" />
    <glyph glyph-name="degree" unicode="&#xb0;" horiz-adv-x="370" 
d="M185 787q75 0 107.5 -30.5t32.5 -105.5t-32.5 -105.5t-107.5 -30.5t-107.5 30.5t-32.5 105.5t32.5 105.5t107.5 30.5zM185 756q-30 0 -49.5 -4.5t-31.5 -16.5t-17 -32.5t-5 -51.5t5 -51.5t17 -32.5t31.5 -16.5t49.5 -4.5t49.5 4.5t31.5 16.5t17 32.5t5 51.5t-5 51.5
t-17 32.5t-31.5 16.5t-49.5 4.5z" />
    <glyph glyph-name="plusminus" unicode="&#xb1;" horiz-adv-x="588" 
d="M542 364v-48h-218v-194h-61v194h-218v48h218v194h61v-194h218zM45 -14v47h497v-47h-497z" />
    <glyph glyph-name="uni00B2" unicode="&#xb2;" horiz-adv-x="383" 
d="M52 582q0 35 10.5 59t29.5 38.5t46 21t59 6.5q31 0 56.5 -6.5t44 -21t29 -38t10.5 -57.5q0 -30 -9 -48.5t-24 -30t-35.5 -18t-43.5 -12.5l-59 -15q-18 -5 -32 -10.5t-23.5 -14t-15 -22t-5.5 -34.5v-55h248v-37h-295v94q0 31 8.5 50.5t23.5 32.5t34.5 20t42.5 13l60 15
q18 5 33 9.5t25 12t15.5 19t5.5 31.5q0 49 -25 67.5t-69 18.5q-46 0 -72.5 -19.5t-25.5 -69.5z" />
    <glyph glyph-name="uni00B3" unicode="&#xb3;" horiz-adv-x="379" 
d="M49 602q0 24 6.5 43.5t22 33t42.5 21t69 7.5q77 0 108.5 -25t31.5 -82q0 -38 -13 -60.5t-45 -33.5q35 -11 49.5 -36.5t14.5 -69.5q0 -63 -33 -91.5t-113 -28.5q-42 0 -69.5 8t-44 22.5t-23.5 35t-8 46.5h44q2 -42 23.5 -58.5t78.5 -16.5q30 0 49.5 4.5t31.5 14.5
t16.5 26.5t4.5 40.5t-4.5 40.5t-16.5 26.5t-31.5 14t-49.5 4h-51v36h51q56 0 75.5 16t19.5 57q0 42 -19.5 57.5t-75.5 15.5q-28 0 -46 -3.5t-29 -11.5t-15.5 -21.5t-4.5 -33.5z" />
    <glyph glyph-name="acute" unicode="&#xb4;" horiz-adv-x="276" 
d="M43 566l129 138h60l-138 -138h-51z" />
    <glyph glyph-name="paragraph" unicode="&#xb6;" horiz-adv-x="596" 
d="M504 653v-802h-57v802h-93v-802h-57v454h-38q-60 0 -101.5 11.5t-66.5 35.5t-36 61.5t-11 88.5q0 53 12 90.5t39 61.5t71 35t109 11h276v-48z" />
    <glyph glyph-name="periodcentered" unicode="&#xb7;" horiz-adv-x="154" 
d="M45 249v108h64v-108h-64z" />
    <glyph glyph-name="cedilla" unicode="&#xb8;" horiz-adv-x="289" 
d="M161 -38q45 -1 64.5 -19t19.5 -63t-20 -63.5t-67 -18.5q-61 0 -87.5 18.5t-26.5 63.5h35q0 -30 16.5 -41.5t61.5 -11.5q31 0 42 10.5t11 42.5q0 31 -11 41.5t-41 10.5h-44v69h28v-39h19z" />
    <glyph glyph-name="uni00B9" unicode="&#xb9;" horiz-adv-x="261" 
d="M171 281v368l-100 -82l-27 30l126 103h47v-420z" />
    <glyph glyph-name="ordmasculine" unicode="&#xba;" horiz-adv-x="413" 
d="M206 706q45 0 76 -9.5t51 -31.5t29 -56.5t9 -84.5t-9 -84.5t-29 -56.5t-51 -31.5t-76 -9.5t-76 9.5t-51 31.5t-29 56.5t-9 84.5t9 84.5t29 56.5t51 31.5t76 9.5zM206 675q-34 0 -57.5 -7t-37.5 -24.5t-20.5 -46.5t-6.5 -73t6.5 -73.5t20.5 -46.5t37.5 -24t57.5 -7t57.5 7
t37.5 24t20.5 46.5t6.5 73.5t-6.5 73t-20.5 46.5t-37.5 24.5t-57.5 7z" />
    <glyph glyph-name="guillemotright" unicode="&#xbb;" horiz-adv-x="497" 
d="M233 258l-161 -171l-27 29l147 160l-147 160l27 29l161 -171v-36zM448 258l-161 -171l-27 29l147 160l-147 160l27 29l161 -171v-36z" />
    <glyph glyph-name="onequarter" unicode="&#xbc;" horiz-adv-x="798" 
d="M177 -17l367 734h50l-367 -734h-50zM171 281v368l-100 -82l-27 30l126 103h47v-420zM754 158v-37h-60v-121h-45v121h-197v38l190 260h52v-262zM650 158v206l-150 -206h150z" />
    <glyph glyph-name="onehalf" unicode="&#xbd;" horiz-adv-x="841" 
d="M175 -17l367 734h50l-367 -734h-50zM171 281v368l-100 -82l-27 30l126 103h47v-420zM510 296q0 35 10.5 59t29.5 38.5t46 21t59 6.5q31 0 56.5 -6.5t44 -21t29 -38t10.5 -57.5q0 -30 -9 -48.5t-24 -30t-35.5 -18t-43.5 -12.5l-59 -15q-18 -5 -32 -10.5t-23.5 -14t-15 -22
t-5.5 -34.5v-55h248v-37h-295v94q0 31 8.5 50.5t23.5 32.5t34.5 20t42.5 13l60 15q18 5 33 9.5t25 12t15.5 19t5.5 31.5q0 49 -25 67.5t-69 18.5q-46 0 -72.5 -19.5t-25.5 -69.5z" />
    <glyph glyph-name="threequarters" unicode="&#xbe;" horiz-adv-x="864" 
d="M242 -17l367 734h50l-367 -734h-50zM49 602q0 24 6.5 43.5t22 33t42.5 21t69 7.5q77 0 108.5 -25t31.5 -82q0 -38 -13 -60.5t-45 -33.5q35 -11 49.5 -36.5t14.5 -69.5q0 -63 -33 -91.5t-113 -28.5q-42 0 -69.5 8t-44 22.5t-23.5 35t-8 46.5h44q2 -42 23.5 -58.5
t78.5 -16.5q30 0 49.5 4.5t31.5 14.5t16.5 26.5t4.5 40.5t-4.5 40.5t-16.5 26.5t-31.5 14t-49.5 4h-51v36h51q56 0 75.5 16t19.5 57q0 42 -19.5 57.5t-75.5 15.5q-28 0 -46 -3.5t-29 -11.5t-15.5 -21.5t-4.5 -33.5zM820 161v-37h-60v-121h-45v121h-197v38l190 260h52v-262z
M716 161v206l-150 -206h150z" />
    <glyph glyph-name="questiondown" unicode="&#xbf;" horiz-adv-x="548" 
d="M293 401v108h64v-108h-64zM354 240q0 -21 -6 -35t-16.5 -22.5t-24 -14t-28.5 -10.5l-42 -13q-28 -10 -52 -18.5t-41.5 -22t-27.5 -36t-10 -59.5q0 -44 12 -74.5t33.5 -49.5t52 -27t67.5 -8q36 0 67 7t54 23t36.5 42.5t13.5 64.5h59q0 -51 -19 -87t-50.5 -58t-73.5 -32
t-88 -10q-48 0 -89.5 11.5t-72 36t-48 64.5t-17.5 97q0 46 13 75t34 46.5t49 28t58 20.5l46 14q26 9 38.5 20t12.5 41v43h61z" />
    <glyph glyph-name="Agrave" unicode="&#xc0;" horiz-adv-x="699" 
d="M390 766l-138 138h60l129 -138h-51zM596 0l-78 198h-335l-78 -198h-65l277 700h66l277 -700h-64zM501 245l-151 383l-151 -383h302z" />
    <glyph glyph-name="Aacute" unicode="&#xc1;" horiz-adv-x="699" 
d="M251 766l129 138h60l-138 -138h-51zM595 0l-78 198h-335l-78 -198h-65l277 700h66l277 -700h-64zM500 245l-151 383l-151 -383h302z" />
    <glyph glyph-name="Acircumflex" unicode="&#xc2;" horiz-adv-x="699" 
d="M454 766l-104 105l-104 -105h-53l130 138h54l130 -138h-53zM595 0l-78 198h-335l-78 -198h-65l277 700h66l277 -700h-64zM500 245l-151 383l-151 -383h302z" />
    <glyph glyph-name="Atilde" unicode="&#xc3;" horiz-adv-x="699" 
d="M202 813q25 68 78 68q17 0 35 -5.5t38 -15.5q21 -11 36 -17t27 -6q14 0 24.5 9.5t24.5 32.5l28 -11q-12 -30 -29.5 -48t-43.5 -18q-15 0 -32.5 6.5t-39.5 17.5q-20 10 -35 15.5t-28 5.5q-17 0 -29 -9t-25 -33zM595 -2l-78 198h-335l-78 -198h-65l277 700h66l277 -700h-64
zM500 243l-151 383l-151 -383h302z" />
    <glyph glyph-name="Adieresis" unicode="&#xc4;" horiz-adv-x="699" 
d="M211 811v45h54v-45h-54zM436 811v45h54v-45h-54zM597 0l-78 198h-335l-78 -198h-65l277 700h66l277 -700h-64zM502 245l-151 383l-151 -383h302z" />
    <glyph glyph-name="Aring" unicode="&#xc5;" horiz-adv-x="699" 
d="M349 935q63 0 90 -24t27 -84t-27 -84t-90 -24t-90 24t-27 84t27 84t90 24zM349 905q-47 0 -64.5 -16t-17.5 -61t17.5 -61t64.5 -16t64.5 16t17.5 61t-17.5 61t-64.5 16zM596 0l-78 198h-335l-78 -198h-65l277 700h66l277 -700h-64zM501 245l-151 383l-151 -383h302z" />
    <glyph glyph-name="AE" unicode="&#xc6;" horiz-adv-x="851" 
d="M412 651v-266h375v-49h-375v-287h387v-49h-449v198h-168l-78 -198h-65l277 700h479v-49h-383zM350 245v383l-151 -383h151z" />
    <glyph glyph-name="Ccedilla" unicode="&#xc7;" horiz-adv-x="681" 
d="M568 502q0 44 -15 74t-42.5 48t-66.5 26t-86 8q-62 0 -104 -14t-68 -48.5t-37.5 -94t-11.5 -149.5t11.5 -149.5t37.5 -94t68 -48.5t104 -14q47 0 86 8t66.5 26t42.5 48t15 74h61q0 -57 -19.5 -97t-55 -65t-85.5 -36.5t-111 -11.5h-20v-28h19q45 -1 64.5 -19t19.5 -63
t-20 -63.5t-67 -18.5q-61 0 -87.5 18.5t-26.5 63.5h35q0 -30 16.5 -41.5t61.5 -11.5q31 0 42 10.5t11 42.5q0 31 -11 41.5t-41 10.5h-44v60q-64 5 -108.5 27t-72.5 64.5t-40.5 108t-12.5 157.5q0 100 15 169t48.5 111t87.5 60.5t131 18.5q61 0 111 -11.5t85.5 -36.5t55 -65
t19.5 -97z" />
    <glyph glyph-name="Egrave" unicode="&#xc8;" horiz-adv-x="601" 
d="M343 766l-138 138h60l129 -138h-51zM160 651v-266h375v-49h-375v-287h387v-49h-449v700h446v-49h-384z" />
    <glyph glyph-name="Eacute" unicode="&#xc9;" horiz-adv-x="601" 
d="M205 766l129 138h60l-138 -138h-51zM161 651v-266h375v-49h-375v-287h387v-49h-449v700h446v-49h-384z" />
    <glyph glyph-name="Ecircumflex" unicode="&#xca;" horiz-adv-x="601" 
d="M407 766l-104 105l-104 -105h-53l130 138h54l130 -138h-53zM160 651v-266h375v-49h-375v-287h387v-49h-449v700h446v-49h-384z" />
    <glyph glyph-name="Edieresis" unicode="&#xcb;" horiz-adv-x="601" 
d="M164 811v45h54v-45h-54zM389 811v45h54v-45h-54zM162 651v-266h375v-49h-375v-287h387v-49h-449v700h446v-49h-384z" />
    <glyph glyph-name="Igrave" unicode="&#xcc;" horiz-adv-x="260" 
d="M170 766l-138 138h60l129 -138h-51zM98 0v700h62v-700h-62z" />
    <glyph glyph-name="Iacute" unicode="&#xcd;" horiz-adv-x="260" 
d="M32 766l129 138h60l-138 -138h-51zM98 0v700h62v-700h-62z" />
    <glyph glyph-name="Icircumflex" unicode="&#xce;" horiz-adv-x="260" 
d="M235 766l-104 105l-104 -105h-53l130 138h54l130 -138h-53zM99 0v700h62v-700h-62z" />
    <glyph glyph-name="Idieresis" unicode="&#xcf;" horiz-adv-x="260" 
d="M-9 811v45h55v-45h-55zM216 811v45h54v-45h-54zM99 0v700h62v-700h-62z" />
    <glyph glyph-name="Eth" unicode="&#xd0;" horiz-adv-x="710" 
d="M345 700q78 0 133 -17t89 -57.5t49.5 -107.5t15.5 -168t-15.5 -168t-49.5 -107.5t-89 -57.5t-133 -17h-240v326h-103v48h103v326h240zM167 376h171v-48h-171v-276h178q64 0 107 12.5t69.5 46t38 91.5t11.5 149t-11.5 149t-38 91.5t-69.5 46t-107 12.5h-178v-274z" />
    <glyph glyph-name="Ntilde" unicode="&#xd1;" horiz-adv-x="695" 
d="M197 813q25 68 78 68q17 0 35 -5.5t38 -15.5q21 -11 36 -17t27 -6q14 0 24.5 9.5t24.5 32.5l28 -11q-12 -30 -29.5 -48t-43.5 -18q-15 0 -32.5 6.5t-39.5 17.5q-20 10 -35 15.5t-28 5.5q-17 0 -29 -9t-25 -33zM543 698h61v-700h-69l-384 603v-603h-61v700h70l384 -602z
" />
    <glyph glyph-name="Ograve" unicode="&#xd2;" horiz-adv-x="729" 
d="M404 766l-138 138h60l129 -138h-51zM363 709q79 0 133.5 -18.5t89 -60.5t50 -111t15.5 -169q0 -101 -15.5 -169.5t-50 -111t-89 -61t-133.5 -18.5t-133.5 18.5t-89 61t-50 111t-15.5 169.5q0 100 15.5 169t50 111t89 60.5t133.5 18.5zM363 659q-63 0 -106 -14
t-69.5 -49.5t-38 -95t-11.5 -150.5t11.5 -150.5t38 -95t69.5 -49.5t106 -14t106 14t69.5 49.5t38 95t11.5 150.5t-11.5 150.5t-38 95t-69.5 49.5t-106 14z" />
    <glyph glyph-name="Oacute" unicode="&#xd3;" horiz-adv-x="729" 
d="M266 766l129 138h60l-138 -138h-51zM363 709q79 0 133.5 -18.5t89 -60.5t50 -111t15.5 -169q0 -101 -15.5 -169.5t-50 -111t-89 -61t-133.5 -18.5t-133.5 18.5t-89 61t-50 111t-15.5 169.5q0 100 15.5 169t50 111t89 60.5t133.5 18.5zM363 659q-63 0 -106 -14
t-69.5 -49.5t-38 -95t-11.5 -150.5t11.5 -150.5t38 -95t69.5 -49.5t106 -14t106 14t69.5 49.5t38 95t11.5 150.5t-11.5 150.5t-38 95t-69.5 49.5t-106 14z" />
    <glyph glyph-name="Ocircumflex" unicode="&#xd4;" horiz-adv-x="729" 
d="M469 766l-104 105l-104 -105h-53l130 138h54l130 -138h-53zM364 709q79 0 133.5 -18.5t89 -60.5t50 -111t15.5 -169q0 -101 -15.5 -169.5t-50 -111t-89 -61t-133.5 -18.5t-133.5 18.5t-89 61t-50 111t-15.5 169.5q0 100 15.5 169t50 111t89 60.5t133.5 18.5zM364 659
q-63 0 -106 -14t-69.5 -49.5t-38 -95t-11.5 -150.5t11.5 -150.5t38 -95t69.5 -49.5t106 -14t106 14t69.5 49.5t38 95t11.5 150.5t-11.5 150.5t-38 95t-69.5 49.5t-106 14z" />
    <glyph glyph-name="Otilde" unicode="&#xd5;" horiz-adv-x="729" 
d="M217 813q25 68 78 68q17 0 35 -5.5t38 -15.5q21 -11 36 -17t27 -6q14 0 24.5 9.5t24.5 32.5l28 -11q-12 -30 -29.5 -48t-43.5 -18q-15 0 -32.5 6.5t-39.5 17.5q-20 10 -35 15.5t-28 5.5q-17 0 -29 -9t-25 -33zM364 708q79 0 133.5 -18.5t89 -60.5t50 -111t15.5 -169
q0 -101 -15.5 -169.5t-50 -111t-89 -61t-133.5 -18.5t-133.5 18.5t-89 61t-50 111t-15.5 169.5q0 100 15.5 169t50 111t89 60.5t133.5 18.5zM364 658q-63 0 -106 -14t-69.5 -49.5t-38 -95t-11.5 -150.5t11.5 -150.5t38 -95t69.5 -49.5t106 -14t106 14t69.5 49.5t38 95
t11.5 150.5t-11.5 150.5t-38 95t-69.5 49.5t-106 14z" />
    <glyph glyph-name="Odieresis" unicode="&#xd6;" horiz-adv-x="729" 
d="M225 811v45h54v-45h-54zM450 811v45h54v-45h-54zM365 709q79 0 133.5 -18.5t89 -60.5t50 -111t15.5 -169q0 -101 -15.5 -169.5t-50 -111t-89 -61t-133.5 -18.5t-133.5 18.5t-89 61t-50 111t-15.5 169.5q0 100 15.5 169t50 111t89 60.5t133.5 18.5zM365 659
q-63 0 -106 -14t-69.5 -49.5t-38 -95t-11.5 -150.5t11.5 -150.5t38 -95t69.5 -49.5t106 -14t106 14t69.5 49.5t38 95t11.5 150.5t-11.5 150.5t-38 95t-69.5 49.5t-106 14z" />
    <glyph glyph-name="multiply" unicode="&#xd7;" horiz-adv-x="476" 
d="M392 445l38 -38l-154 -154l154 -154l-38 -38l-154 154l-154 -154l-38 39l154 154l-154 154l38 38l154 -154z" />
    <glyph glyph-name="Oslash" unicode="&#xd8;" horiz-adv-x="729" 
d="M518 684q73 -32 104.5 -111.5t31.5 -221.5q0 -101 -15.5 -169.5t-50 -111t-89 -61t-133.5 -18.5q-62 0 -110 12l-20 -51h-49l25 66q-73 32 -104.5 111.5t-31.5 221.5q0 100 15.5 169t50 111t89 60.5t133.5 18.5q61 0 109 -12l20 52h49zM456 649q-37 10 -91 10
q-63 0 -106 -14t-69.5 -49.5t-38 -95t-11.5 -150.5q0 -122 21.5 -188.5t71.5 -94.5zM275 51q37 -10 91 -10q63 0 106 14t69.5 49.5t38 95t11.5 150.5q0 122 -21.5 188.5t-71.5 94.5z" />
    <glyph glyph-name="Ugrave" unicode="&#xd9;" horiz-adv-x="720" 
d="M400 766l-138 138h60l129 -138h-51zM629 316q0 -100 -14.5 -163.5t-46.5 -99.5t-82 -49.5t-122 -13.5t-122 13.5t-82 49.5t-46.5 99.5t-14.5 163.5v384h62v-378q0 -90 10 -145.5t33.5 -85.5t62.5 -40t97 -10t97 10t62.5 40t33.5 85.5t10 145.5v378h62v-384z" />
    <glyph glyph-name="Uacute" unicode="&#xda;" horiz-adv-x="720" 
d="M262 766l129 138h60l-138 -138h-51zM629 316q0 -100 -14.5 -163.5t-46.5 -99.5t-82 -49.5t-122 -13.5t-122 13.5t-82 49.5t-46.5 99.5t-14.5 163.5v384h62v-378q0 -90 10 -145.5t33.5 -85.5t62.5 -40t97 -10t97 10t62.5 40t33.5 85.5t10 145.5v378h62v-384z" />
    <glyph glyph-name="Ucircumflex" unicode="&#xdb;" horiz-adv-x="720" 
d="M465 766l-104 105l-104 -105h-53l130 138h54l130 -138h-53zM630 316q0 -100 -14.5 -163.5t-46.5 -99.5t-82 -49.5t-122 -13.5t-122 13.5t-82 49.5t-46.5 99.5t-14.5 163.5v384h62v-378q0 -90 10 -145.5t33.5 -85.5t62.5 -40t97 -10t97 10t62.5 40t33.5 85.5t10 145.5v378
h62v-384z" />
    <glyph glyph-name="Udieresis" unicode="&#xdc;" horiz-adv-x="720" 
d="M221 811v45h54v-45h-54zM446 811v45h54v-45h-54zM630 316q0 -100 -14.5 -163.5t-46.5 -99.5t-82 -49.5t-122 -13.5t-122 13.5t-82 49.5t-46.5 99.5t-14.5 163.5v384h62v-378q0 -90 10 -145.5t33.5 -85.5t62.5 -40t97 -10t97 10t62.5 40t33.5 85.5t10 145.5v378h62v-384z
" />
    <glyph glyph-name="Yacute" unicode="&#xdd;" horiz-adv-x="654" 
d="M227 766l129 138h60l-138 -138h-51zM357 1h-62v300l-257 400h70l218 -345l218 345h70l-257 -401v-299z" />
    <glyph glyph-name="Thorn" unicode="&#xde;" horiz-adv-x="657" 
d="M355 582q65 0 110 -11t72.5 -35t39.5 -61.5t12 -90.5t-12 -90.5t-39.5 -61.5t-72.5 -35t-110 -11h-194v-186h-62v750h62v-167zM161 233h193q52 0 86 7.5t54.5 25.5t29 46.5t8.5 70.5t-8.5 70.5t-29 46.5t-54.5 25.5t-86 7.5h-193v-300z" />
    <glyph glyph-name="germandbls" unicode="&#xdf;" horiz-adv-x="605" 
d="M92 532q0 44 10 78t35 57t68.5 34.5t110.5 11.5q62 0 105 -10t69.5 -31.5t38 -55t11.5 -81.5q0 -69 -23.5 -107t-83.5 -54q65 -17 91.5 -60t26.5 -122q0 -54 -12 -92t-39.5 -62t-72.5 -35t-110 -11q-59 0 -100 11l3 52q19 -6 42.5 -8.5t54.5 -2.5q51 0 85 8t54 26
t28.5 47.5t8.5 72.5q0 41 -7.5 69.5t-26 46t-49 26t-76.5 9.5h-24v49h24q43 1 71 8.5t45 23t24 39.5t7 59q0 37 -8 62t-26.5 40.5t-50 22t-79.5 6.5t-79 -6.5t-50 -22t-26.5 -40.5t-7.5 -62v-528h-60z" />
    <glyph glyph-name="agrave" unicode="&#xe0;" horiz-adv-x="582" 
d="M332 566l-138 138h60l129 -138h-51zM77 357q0 42 15 71.5t43 47.5t66 26.5t85 8.5q49 0 89 -8.5t68.5 -27.5t44 -48.5t15.5 -72.5v-353h-53l-2 67q-26 -42 -73.5 -60.5t-121.5 -18.5q-46 0 -83.5 8t-63.5 27t-40.5 48.5t-14.5 73.5q0 43 14.5 73.5t40.5 50t62 28t79 8.5
h200v50q0 64 -43.5 90t-117.5 26q-71 0 -112.5 -26t-41.5 -90zM268 274q-73 0 -115.5 -27.5t-42.5 -94.5q0 -68 42.5 -94.5t121.5 -26.5q72 0 113 18.5t59 66.5v158h-178z" />
    <glyph glyph-name="aacute" unicode="&#xe1;" horiz-adv-x="582" 
d="M193 566l129 138h60l-138 -138h-51zM76 357q0 42 15 71.5t43 47.5t66 26.5t85 8.5q49 0 89 -8.5t68.5 -27.5t44 -48.5t15.5 -72.5v-353h-53l-2 67q-26 -42 -73.5 -60.5t-121.5 -18.5q-46 0 -83.5 8t-63.5 27t-40.5 48.5t-14.5 73.5q0 43 14.5 73.5t40.5 50t62 28t79 8.5
h200v50q0 64 -43.5 90t-117.5 26q-71 0 -112.5 -26t-41.5 -90zM267 274q-73 0 -115.5 -27.5t-42.5 -94.5q0 -68 42.5 -94.5t121.5 -26.5q72 0 113 18.5t59 66.5v158h-178z" />
    <glyph glyph-name="acircumflex" unicode="&#xe2;" horiz-adv-x="582" 
d="M396 566l-104 105l-104 -105h-53l130 138h54l130 -138h-53zM77 357q0 42 15 71.5t43 47.5t66 26.5t85 8.5q49 0 89 -8.5t68.5 -27.5t44 -48.5t15.5 -72.5v-353h-53l-2 67q-26 -42 -73.5 -60.5t-121.5 -18.5q-46 0 -83.5 8t-63.5 27t-40.5 48.5t-14.5 73.5q0 43 14.5 73.5
t40.5 50t62 28t79 8.5h200v50q0 64 -43.5 90t-117.5 26q-71 0 -112.5 -26t-41.5 -90zM268 274q-73 0 -115.5 -27.5t-42.5 -94.5q0 -68 42.5 -94.5t121.5 -26.5q72 0 113 18.5t59 66.5v158h-178z" />
    <glyph glyph-name="atilde" unicode="&#xe3;" horiz-adv-x="582" 
d="M144 613q25 68 78 68q17 0 35 -5.5t38 -15.5q21 -11 36 -17t27 -6q14 0 24.5 9.5t24.5 32.5l28 -11q-12 -30 -29.5 -48t-43.5 -18q-15 0 -32.5 6.5t-39.5 17.5q-20 10 -35 15.5t-28 5.5q-17 0 -29 -9t-25 -33zM77 355q0 42 15 71.5t43 47.5t66 26.5t85 8.5q49 0 89 -8.5
t68.5 -27.5t44 -48.5t15.5 -72.5v-353h-53l-2 67q-26 -42 -73.5 -60.5t-121.5 -18.5q-46 0 -83.5 8t-63.5 27t-40.5 48.5t-14.5 73.5q0 43 14.5 73.5t40.5 50t62 28t79 8.5h200v50q0 64 -43.5 90t-117.5 26q-71 0 -112.5 -26t-41.5 -90zM268 272q-73 0 -115.5 -27.5
t-42.5 -94.5q0 -68 42.5 -94.5t121.5 -26.5q72 0 113 18.5t59 66.5v158h-178z" />
    <glyph glyph-name="adieresis" unicode="&#xe4;" horiz-adv-x="582" 
d="M153 611v45h54v-45h-54zM378 611v45h54v-45h-54zM78 356q0 42 15 71.5t43 47.5t66 26.5t85 8.5q49 0 89 -8.5t68.5 -27.5t44 -48.5t15.5 -72.5v-353h-53l-2 67q-26 -42 -73.5 -60.5t-121.5 -18.5q-46 0 -83.5 8t-63.5 27t-40.5 48.5t-14.5 73.5q0 43 14.5 73.5t40.5 50
t62 28t79 8.5h200v50q0 64 -43.5 90t-117.5 26q-71 0 -112.5 -26t-41.5 -90zM269 273q-73 0 -115.5 -27.5t-42.5 -94.5q0 -68 42.5 -94.5t121.5 -26.5q72 0 113 18.5t59 66.5v158h-178z" />
    <glyph glyph-name="aring" unicode="&#xe5;" horiz-adv-x="582" 
d="M291 735q63 0 90 -24t27 -84t-27 -84t-90 -24t-90 24t-27 84t27 84t90 24zM291 705q-47 0 -64.5 -16t-17.5 -61t17.5 -61t64.5 -16t64.5 16t17.5 61t-17.5 61t-64.5 16zM77 356q0 42 15 71.5t43 47.5t66 26.5t85 8.5q49 0 89 -8.5t68.5 -27.5t44 -48.5t15.5 -72.5v-353
h-53l-2 67q-26 -42 -73.5 -60.5t-121.5 -18.5q-46 0 -83.5 8t-63.5 27t-40.5 48.5t-14.5 73.5q0 43 14.5 73.5t40.5 50t62 28t79 8.5h200v50q0 64 -43.5 90t-117.5 26q-71 0 -112.5 -26t-41.5 -90zM268 273q-73 0 -115.5 -27.5t-42.5 -94.5q0 -68 42.5 -94.5t121.5 -26.5
q72 0 113 18.5t59 66.5v158h-178z" />
    <glyph glyph-name="ae" unicode="&#xe6;" horiz-adv-x="971" 
d="M77 355q0 42 15 71.5t43 47.5t66 26.5t85 8.5q83 0 137.5 -26.5t66.5 -90.5q21 64 69.5 90.5t132.5 26.5q62 0 105.5 -14t70.5 -44.5t39.5 -80t12.5 -121.5v-24h-398q1 -57 11 -94.5t30.5 -60t52.5 -31.5t77 -9q73 0 117 25.5t46 89.5h56q-5 -84 -63.5 -119.5
t-155.5 -35.5q-78 0 -123.5 24.5t-66.5 84.5v-98h-53l-2 67q-26 -42 -73.5 -60.5t-121.5 -18.5q-46 0 -83.5 8t-63.5 27t-40.5 48.5t-14.5 73.5q0 43 14.5 73.5t40.5 50t62 28t79 8.5h200v50q0 64 -43.5 90t-117.5 26q-71 0 -112.5 -26t-41.5 -90zM863 266q-1 58 -10 97.5
t-29.5 62.5t-52.5 33t-78 10t-78.5 -9.5t-52.5 -33t-29.5 -62t-10.5 -96.5v-7h341v5zM269 271q-73 0 -115.5 -27.5t-42.5 -94.5q0 -68 42.5 -94.5t121.5 -26.5q72 0 113 18.5t59 66.5v158h-178z" />
    <glyph glyph-name="ccedilla" unicode="&#xe7;" horiz-adv-x="553" 
d="M447 345q0 35 -11.5 58.5t-32.5 38t-51.5 21t-68.5 6.5q-48 0 -80.5 -10t-52.5 -35t-29 -67.5t-9 -106.5t9 -106.5t29 -67.5t52.5 -35t80.5 -10q38 0 68.5 6.5t51.5 21t32.5 38t11.5 58.5h56q0 -45 -15.5 -76.5t-44 -51.5t-69.5 -29t-91 -9h-6v-28h19q45 -1 64.5 -19
t19.5 -63t-20 -63.5t-67 -18.5q-61 0 -87.5 18.5t-26.5 63.5h35q0 -30 16.5 -41.5t61.5 -11.5q31 0 42 10.5t11 42.5q0 31 -11 41.5t-41 10.5h-44v59q-52 4 -88.5 20t-60 47.5t-34 79t-10.5 113.5q0 72 12.5 121.5t39.5 80t70 44.5t105 14q50 0 91 -9t69.5 -29t44 -51
t15.5 -76h-56z" />
    <glyph glyph-name="egrave" unicode="&#xe8;" horiz-adv-x="561" 
d="M321 566l-138 138h60l129 -138h-51zM500 144q-5 -84 -63.5 -119.5t-155.5 -35.5q-62 0 -105.5 14t-70.5 44.5t-39.5 80t-12.5 121.5t12.5 121.5t39.5 80t70.5 44.5t105.5 14t105.5 -14t70.5 -44.5t39.5 -80t12.5 -121.5l-1 -24h-398q1 -57 11 -94.5t30.5 -60t52.5 -31.5
t77 -9q73 0 117 25.5t46 89.5zM451 265q-1 58 -10 97.5t-29.5 62.5t-52.5 33t-78 10t-78 -9.5t-52.5 -33t-29.5 -62t-10 -96.5v-6h341z" />
    <glyph glyph-name="eacute" unicode="&#xe9;" horiz-adv-x="561" 
d="M183 566l129 138h60l-138 -138h-51zM500 144q-5 -84 -63.5 -119.5t-155.5 -35.5q-62 0 -105.5 14t-70.5 44.5t-39.5 80t-12.5 121.5t12.5 121.5t39.5 80t70.5 44.5t105.5 14t105.5 -14t70.5 -44.5t39.5 -80t12.5 -121.5l-1 -24h-398q1 -57 11 -94.5t30.5 -60t52.5 -31.5
t77 -9q73 0 117 25.5t46 89.5zM451 265q-1 58 -10 97.5t-29.5 62.5t-52.5 33t-78 10t-78 -9.5t-52.5 -33t-29.5 -62t-10 -96.5v-6h341z" />
    <glyph glyph-name="ecircumflex" unicode="&#xea;" horiz-adv-x="561" 
d="M386 566l-104 105l-104 -105h-53l130 138h54l130 -138h-53zM501 144q-5 -84 -63.5 -119.5t-155.5 -35.5q-62 0 -105.5 14t-70.5 44.5t-39.5 80t-12.5 121.5t12.5 121.5t39.5 80t70.5 44.5t105.5 14t105.5 -14t70.5 -44.5t39.5 -80t12.5 -121.5l-1 -24h-398
q1 -57 11 -94.5t30.5 -60t52.5 -31.5t77 -9q73 0 117 25.5t46 89.5zM452 265q-1 58 -10 97.5t-29.5 62.5t-52.5 33t-78 10t-78 -9.5t-52.5 -33t-29.5 -62t-10 -96.5v-6h341z" />
    <glyph glyph-name="edieresis" unicode="&#xeb;" horiz-adv-x="561" 
d="M143 611v45h54v-45h-54zM368 611v45h54v-45h-54zM503 144q-5 -84 -63.5 -119.5t-155.5 -35.5q-62 0 -105.5 14t-70.5 44.5t-39.5 80t-12.5 121.5t12.5 121.5t39.5 80t70.5 44.5t105.5 14t105.5 -14t70.5 -44.5t39.5 -80t12.5 -121.5l-1 -24h-398q1 -57 11 -94.5t30.5 -60
t52.5 -31.5t77 -9q73 0 117 25.5t46 89.5zM454 265q-1 58 -10 97.5t-29.5 62.5t-52.5 33t-78 10t-78 -9.5t-52.5 -33t-29.5 -62t-10 -96.5v-6h341z" />
    <glyph glyph-name="igrave" unicode="&#xec;" horiz-adv-x="227" 
d="M156 566l-138 138h60l129 -138h-51zM87 0v500h57v-500h-57z" />
    <glyph glyph-name="iacute" unicode="&#xed;" horiz-adv-x="227" 
d="M19 566l128 138h60l-138 -138h-50zM88 0v500h57v-500h-57z" />
    <glyph glyph-name="icircumflex" unicode="&#xee;" horiz-adv-x="227" 
d="M220 566l-104 105l-104 -105h-52l129 138h54l130 -138h-53zM87 0v500h57v-500h-57z" />
    <glyph glyph-name="idieresis" unicode="&#xef;" horiz-adv-x="227" 
d="M-24 611v45h55v-45h-55zM202 611v45h54v-45h-54zM88 0v500h57v-500h-57z" />
    <glyph glyph-name="eth" unicode="&#xf0;" horiz-adv-x="607" 
d="M489 629q20 -45 29 -111t9 -160q0 -104 -12.5 -175t-40.5 -114t-73.5 -61.5t-111.5 -18.5q-54 0 -96.5 12.5t-71.5 40.5t-44.5 73.5t-15.5 111.5q0 62 11 105.5t36 71t66 40t102 12.5q37 0 66 -3.5t51.5 -13t39.5 -26.5t31 -45v11q-1 154 -29 222l-115 -60l-16 34l113 59
q-21 29 -52.5 39.5t-76.5 10.5q-37 0 -67.5 -8t-57.5 -29l-32 38q35 28 75.5 39t87.5 11q61 0 103.5 -17t69.5 -56l77 40l16 -34zM289 38q46 0 79 12t54 41.5t32 79t13 124.5q-11 38 -25 61.5t-34.5 36t-49.5 17t-69 4.5q-49 0 -81.5 -9t-52 -31t-27.5 -57.5t-8 -88.5
q0 -54 11 -90.5t32.5 -58.5t53 -31t72.5 -9v-1z" />
    <glyph glyph-name="ntilde" unicode="&#xf1;" horiz-adv-x="599" 
d="M153 613q25 68 78 68q17 0 35 -5.5t38 -15.5q21 -11 36 -17t27 -6q14 0 24.5 9.5t24.5 32.5l28 -11q-12 -30 -29.5 -48t-43.5 -18q-15 0 -32.5 6.5t-39.5 17.5q-20 10 -35 15.5t-28 5.5q-17 0 -29 -9t-25 -33zM138 429q16 25 34.5 40.5t40.5 24t48 11.5t58 3
q60 0 99 -11.5t62 -37t32 -66t9 -98.5v-297h-57v297q0 49 -7 81.5t-25.5 52t-50.5 28t-81 8.5q-31 0 -54.5 -3t-42 -13t-34 -27.5t-30.5 -47.5v-376h-57v500h53z" />
    <glyph glyph-name="ograve" unicode="&#xf2;" horiz-adv-x="580" 
d="M331 568l-138 138h60l129 -138h-51zM290 510q64 0 108.5 -14t72.5 -44.5t41 -80t13 -121.5t-13 -121.5t-41 -80t-72.5 -44.5t-108.5 -14t-108.5 14t-72.5 44.5t-41 80t-13 121.5t13 121.5t41 80t72.5 44.5t108.5 14zM290 469q-50 0 -84 -10t-55 -35t-30 -67t-9 -106
t9 -106t30 -67t55 -35t84 -10q49 0 83 10t55 35t30.5 67t9.5 106t-9.5 106t-30.5 67t-55 35t-83 10z" />
    <glyph glyph-name="oacute" unicode="&#xf3;" horiz-adv-x="580" 
d="M192 568l129 138h60l-138 -138h-51zM289 510q64 0 108.5 -14t72.5 -44.5t41 -80t13 -121.5t-13 -121.5t-41 -80t-72.5 -44.5t-108.5 -14t-108.5 14t-72.5 44.5t-41 80t-13 121.5t13 121.5t41 80t72.5 44.5t108.5 14zM289 469q-50 0 -84 -10t-55 -35t-30 -67t-9 -106
t9 -106t30 -67t55 -35t84 -10q49 0 83 10t55 35t30.5 67t9.5 106t-9.5 106t-30.5 67t-55 35t-83 10z" />
    <glyph glyph-name="ocircumflex" unicode="&#xf4;" horiz-adv-x="580" 
d="M395 568l-104 105l-104 -105h-53l130 138h54l130 -138h-53zM290 510q64 0 108.5 -14t72.5 -44.5t41 -80t13 -121.5t-13 -121.5t-41 -80t-72.5 -44.5t-108.5 -14t-108.5 14t-72.5 44.5t-41 80t-13 121.5t13 121.5t41 80t72.5 44.5t108.5 14zM290 469q-50 0 -84 -10
t-55 -35t-30 -67t-9 -106t9 -106t30 -67t55 -35t84 -10q49 0 83 10t55 35t30.5 67t9.5 106t-9.5 106t-30.5 67t-55 35t-83 10z" />
    <glyph glyph-name="otilde" unicode="&#xf5;" horiz-adv-x="580" 
d="M143 614q25 68 78 68q17 0 35 -5.5t38 -15.5q21 -11 36 -17t27 -6q14 0 24.5 9.5t24.5 32.5l28 -11q-12 -30 -29.5 -48t-43.5 -18q-15 0 -32.5 6.5t-39.5 17.5q-20 10 -35 15.5t-28 5.5q-17 0 -29 -9t-25 -33zM290 507q64 0 108.5 -14t72.5 -44.5t41 -80t13 -121.5
t-13 -121.5t-41 -80t-72.5 -44.5t-108.5 -14t-108.5 14t-72.5 44.5t-41 80t-13 121.5t13 121.5t41 80t72.5 44.5t108.5 14zM290 466q-50 0 -84 -10t-55 -35t-30 -67t-9 -106t9 -106t30 -67t55 -35t84 -10q49 0 83 10t55 35t30.5 67t9.5 106t-9.5 106t-30.5 67t-55 35t-83 10
z" />
    <glyph glyph-name="odieresis" unicode="&#xf6;" horiz-adv-x="580" 
d="M152 613v45h54v-45h-54zM377 613v45h54v-45h-54zM291 509q64 0 108.5 -14t72.5 -44.5t41 -80t13 -121.5t-13 -121.5t-41 -80t-72.5 -44.5t-108.5 -14t-108.5 14t-72.5 44.5t-41 80t-13 121.5t13 121.5t41 80t72.5 44.5t108.5 14zM291 468q-50 0 -84 -10t-55 -35t-30 -67
t-9 -106t9 -106t30 -67t55 -35t84 -10q49 0 83 10t55 35t30.5 67t9.5 106t-9.5 106t-30.5 67t-55 35t-83 10z" />
    <glyph glyph-name="divide" unicode="&#xf7;" horiz-adv-x="588" 
d="M262 415v108h64v-108h-64zM46 230v48h497v-48h-497zM263 -16v108h64v-108h-64z" />
    <glyph glyph-name="oslash" unicode="&#xf8;" horiz-adv-x="580" 
d="M407 491q63 -23 90 -80.5t27 -161.5q0 -72 -13 -121.5t-41 -80t-72.5 -44.5t-108.5 -14q-40 0 -73 6l-17 -45h-49l22 57q-63 23 -90 81t-27 162q0 72 13 121.5t41 80t72.5 44.5t108.5 14q40 0 73 -6l18 46h49zM348 462q-23 4 -58 4q-50 0 -84 -10t-55 -35t-30 -67
t-9 -106q0 -88 17 -134.5t59 -66.5zM232 34q23 -4 58 -4q49 0 83 10t55 35t30.5 67t9.5 106q0 88 -17 134.5t-59 66.5z" />
    <glyph glyph-name="ugrave" unicode="&#xf9;" 
d="M338 566l-138 138h60l129 -138h-51zM461 -1l-2 70q-17 -25 -35 -40.5t-40 -24t-48 -11.5t-58 -3q-60 0 -99 11.5t-62 37t-32 66t-9 98.5v297h57v-297q0 -49 7 -81.5t25.5 -52t50 -28t81.5 -8.5q31 0 54.5 3t42 13t34 27.5t30.5 47.5v376h57v-500z" />
    <glyph glyph-name="uacute" unicode="&#xfa;" 
d="M200 566l129 138h60l-138 -138h-51zM461 -1l-2 70q-17 -25 -35 -40.5t-40 -24t-48 -11.5t-58 -3q-60 0 -99 11.5t-62 37t-32 66t-9 98.5v297h57v-297q0 -49 7 -81.5t25.5 -52t50 -28t81.5 -8.5q31 0 54.5 3t42 13t34 27.5t30.5 47.5v376h57v-500z" />
    <glyph glyph-name="ucircumflex" unicode="&#xfb;" 
d="M403 566l-104 105l-104 -105h-53l130 138h54l130 -138h-53zM462 -1l-2 70q-17 -25 -35 -40.5t-40 -24t-48 -11.5t-58 -3q-60 0 -99 11.5t-62 37t-32 66t-9 98.5v297h57v-297q0 -49 7 -81.5t25.5 -52t50 -28t81.5 -8.5q31 0 54.5 3t42 13t34 27.5t30.5 47.5v376h57v-500z
" />
    <glyph glyph-name="udieresis" unicode="&#xfc;" 
d="M160 611v45h54v-45h-54zM385 611v45h54v-45h-54zM463 -1l-2 70q-17 -25 -35 -40.5t-40 -24t-48 -11.5t-58 -3q-60 0 -99 11.5t-62 37t-32 66t-9 98.5v297h57v-297q0 -49 7 -81.5t25.5 -52t50 -28t81.5 -8.5q31 0 54.5 3t42 13t34 27.5t30.5 47.5v376h57v-500z" />
    <glyph glyph-name="yacute" unicode="&#xfd;" horiz-adv-x="533" 
d="M169 566l129 138h60l-138 -138h-51zM161 -200l82 200h-9l-210 500h59l183 -438l183 438h59l-293 -700h-54z" />
    <glyph glyph-name="thorn" unicode="&#xfe;" horiz-adv-x="599" 
d="M145 436q26 40 70.5 57.5t110.5 17.5q59 0 100.5 -14t67.5 -44.5t38 -80t12 -121.5t-12 -121.5t-38 -80t-67.5 -44.5t-100.5 -14q-66 0 -110.5 17.5t-70.5 57.5v-266h-57v938h57v-302zM145 120q18 -48 56.5 -66.5t104.5 -18.5q49 0 83.5 10.5t56 36t31 67.5t9.5 104
t-9.5 104t-31 67t-56 35.5t-83.5 10.5q-66 0 -104.5 -18.5t-56.5 -66.5v-265z" />
    <glyph glyph-name="ydieresis" unicode="&#xff;" horiz-adv-x="533" 
d="M128 611v45h54v-45h-54zM353 611v45h54v-45h-54zM162 -200l82 200h-9l-210 500h59l183 -438l183 438h59l-293 -700h-54z" />
    <glyph glyph-name="Amacron" unicode="&#x100;" horiz-adv-x="699" 
d="M173 869v35h353v-35h-353zM596 0l-78 198h-335l-78 -198h-65l277 700h66l277 -700h-64zM501 245l-151 383l-151 -383h302z" />
    <glyph glyph-name="amacron" unicode="&#x101;" horiz-adv-x="582" 
d="M115 669v35h353v-35h-353zM77 356q0 42 15 71.5t43 47.5t66 26.5t85 8.5q49 0 89 -8.5t68.5 -27.5t44 -48.5t15.5 -72.5v-353h-53l-2 67q-26 -42 -73.5 -60.5t-121.5 -18.5q-46 0 -83.5 8t-63.5 27t-40.5 48.5t-14.5 73.5q0 43 14.5 73.5t40.5 50t62 28t79 8.5h200v50
q0 64 -43.5 90t-117.5 26q-71 0 -112.5 -26t-41.5 -90zM268 273q-73 0 -115.5 -27.5t-42.5 -94.5q0 -68 42.5 -94.5t121.5 -26.5q72 0 113 18.5t59 66.5v158h-178z" />
    <glyph glyph-name="Abreve" unicode="&#x102;" horiz-adv-x="699" 
d="M494 889q-1 -61 -34.5 -86t-108.5 -25q-74 0 -107.5 24t-35.5 83v18h38v-13q1 -47 24 -64t80 -17q58 0 80.5 17.5t23.5 64.5v12h38zM597 -2l-78 198h-335l-78 -198h-65l277 700h66l277 -700h-64zM502 243l-151 383l-151 -383h302z" />
    <glyph glyph-name="abreve" unicode="&#x103;" horiz-adv-x="582" 
d="M436 689q-1 -61 -34.5 -86t-108.5 -25q-74 0 -107.5 24t-35.5 83v18h38v-13q1 -47 24 -64t80 -17q58 0 80.5 17.5t23.5 64.5v12h38zM78 355q0 42 15 71.5t43 47.5t66 26.5t85 8.5q49 0 89 -8.5t68.5 -27.5t44 -48.5t15.5 -72.5v-353h-53l-2 67q-26 -42 -73.5 -60.5
t-121.5 -18.5q-46 0 -83.5 8t-63.5 27t-40.5 48.5t-14.5 73.5q0 43 14.5 73.5t40.5 50t62 28t79 8.5h200v50q0 64 -43.5 90t-117.5 26q-71 0 -112.5 -26t-41.5 -90zM269 272q-73 0 -115.5 -27.5t-42.5 -94.5q0 -68 42.5 -94.5t121.5 -26.5q72 0 113 18.5t59 66.5v158h-178z
" />
    <glyph glyph-name="Aogonek" unicode="&#x104;" horiz-adv-x="699" 
d="M637 -2q-35 -25 -50.5 -52.5t-15.5 -51.5q0 -32 21.5 -54t65.5 -22q20 0 46 6l7 -30q-30 -9 -55 -9q-29 0 -51.5 9t-38 23.5t-24 34t-8.5 40.5q0 29 14.5 58t46.5 54l-77 194h-335l-78 -198h-65l277 700h66l277 -700zM501 246l-151 383l-151 -383h302z" />
    <glyph glyph-name="aogonek" unicode="&#x105;" horiz-adv-x="582" 
d="M76 358q0 42 15 71.5t43 47.5t66 26.5t85 8.5q49 0 89 -8.5t68.5 -27.5t44 -48.5t15.5 -72.5v-353l-14 -3q-35 -26 -50 -53.5t-15 -51.5q0 -32 21.5 -54t65.5 -22q20 0 46 6l7 -30q-30 -9 -55 -9q-29 0 -51.5 9t-38 23.5t-24 34t-8.5 40.5q0 29 15.5 58.5t48.5 55.5
l-2 62q-26 -42 -73.5 -60.5t-121.5 -18.5q-46 0 -83.5 8t-63.5 27t-40.5 48.5t-14.5 73.5q0 43 14.5 73.5t40.5 50t62 28t79 8.5h200v50q0 64 -43.5 90t-117.5 26q-71 0 -112.5 -26t-41.5 -90zM267 275q-73 0 -115.5 -27.5t-42.5 -94.5q0 -68 42.5 -94.5t121.5 -26.5
q72 0 113 18.5t59 66.5v158h-178z" />
    <glyph glyph-name="Cacute" unicode="&#x106;" horiz-adv-x="681" 
d="M243 766l129 138h60l-138 -138h-51zM628 201q0 -57 -19.5 -97t-55 -65t-85.5 -36.5t-111 -11.5q-77 0 -131 18.5t-87.5 61t-48.5 111t-15 169.5q0 100 15 169t48.5 111t87.5 60.5t131 18.5q61 0 111 -11.5t85.5 -36.5t55 -65t19.5 -97h-61q0 44 -15 74t-42.5 48t-66.5 26
t-86 8q-62 0 -104 -14t-68 -48.5t-37.5 -94t-11.5 -149.5t11.5 -149.5t37.5 -94t68 -48.5t104 -14q47 0 86 8t66.5 26t42.5 48t15 74z" />
    <glyph glyph-name="cacute" unicode="&#x107;" horiz-adv-x="553" 
d="M180 566l129 138h60l-138 -138h-51zM502 156q0 -45 -15.5 -76.5t-44 -51.5t-69.5 -29t-91 -9q-62 0 -105 14t-70 44.5t-39.5 80t-12.5 121.5t12.5 121.5t39.5 80t70 44.5t105 14q50 0 91 -9t69.5 -29t44 -51t15.5 -76h-56q0 35 -11.5 58.5t-32.5 38t-51.5 21t-68.5 6.5
q-48 0 -80.5 -10t-52.5 -35t-29 -67.5t-9 -106.5t9 -106.5t29 -67.5t52.5 -35t80.5 -10q38 0 68.5 6.5t51.5 21t32.5 38t11.5 58.5z" />
    <glyph glyph-name="Cdotaccent" unicode="&#x10a;" horiz-adv-x="681" 
d="M315 811v45h54v-45h-54zM629 201q0 -57 -19.5 -97t-55 -65t-85.5 -36.5t-111 -11.5q-77 0 -131 18.5t-87.5 61t-48.5 111t-15 169.5q0 100 15 169t48.5 111t87.5 60.5t131 18.5q61 0 111 -11.5t85.5 -36.5t55 -65t19.5 -97h-61q0 44 -15 74t-42.5 48t-66.5 26t-86 8
q-62 0 -104 -14t-68 -48.5t-37.5 -94t-11.5 -149.5t11.5 -149.5t37.5 -94t68 -48.5t104 -14q47 0 86 8t66.5 26t42.5 48t15 74z" />
    <glyph glyph-name="cdotaccent" unicode="&#x10b;" horiz-adv-x="553" 
d="M252 611v45h54v-45h-54zM503 156q0 -45 -15.5 -76.5t-44 -51.5t-69.5 -29t-91 -9q-62 0 -105 14t-70 44.5t-39.5 80t-12.5 121.5t12.5 121.5t39.5 80t70 44.5t105 14q50 0 91 -9t69.5 -29t44 -51t15.5 -76h-56q0 35 -11.5 58.5t-32.5 38t-51.5 21t-68.5 6.5
q-48 0 -80.5 -10t-52.5 -35t-29 -67.5t-9 -106.5t9 -106.5t29 -67.5t52.5 -35t80.5 -10q38 0 68.5 6.5t51.5 21t32.5 38t11.5 58.5z" />
    <glyph glyph-name="Ccaron" unicode="&#x10c;" horiz-adv-x="681" 
d="M314 766l-130 138h53l104 -105l104 105h53l-130 -138h-54zM629 201q0 -57 -19.5 -97t-55 -65t-85.5 -36.5t-111 -11.5q-77 0 -131 18.5t-87.5 61t-48.5 111t-15 169.5q0 100 15 169t48.5 111t87.5 60.5t131 18.5q61 0 111 -11.5t85.5 -36.5t55 -65t19.5 -97h-61
q0 44 -15 74t-42.5 48t-66.5 26t-86 8q-62 0 -104 -14t-68 -48.5t-37.5 -94t-11.5 -149.5t11.5 -149.5t37.5 -94t68 -48.5t104 -14q47 0 86 8t66.5 26t42.5 48t15 74z" />
    <glyph glyph-name="ccaron" unicode="&#x10d;" horiz-adv-x="553" 
d="M251 566l-130 138h53l104 -105l104 105h53l-130 -138h-54zM502 156q0 -45 -15.5 -76.5t-44 -51.5t-69.5 -29t-91 -9q-62 0 -105 14t-70 44.5t-39.5 80t-12.5 121.5t12.5 121.5t39.5 80t70 44.5t105 14q50 0 91 -9t69.5 -29t44 -51t15.5 -76h-56q0 35 -11.5 58.5t-32.5 38
t-51.5 21t-68.5 6.5q-48 0 -80.5 -10t-52.5 -35t-29 -67.5t-9 -106.5t9 -106.5t29 -67.5t52.5 -35t80.5 -10q38 0 68.5 6.5t51.5 21t32.5 38t11.5 58.5z" />
    <glyph glyph-name="Dcaron" unicode="&#x10e;" horiz-adv-x="704" 
d="M320 766l-130 138h53l104 -105l104 105h53l-130 -138h-54zM339 700q78 0 133 -17t89 -57.5t49.5 -107.5t15.5 -168t-15.5 -168t-49.5 -107.5t-89 -57.5t-133 -17h-240v700h240zM161 52h178q64 0 107 12.5t69.5 46t38 91.5t11.5 149t-11.5 149t-38 91.5t-69.5 46
t-107 12.5h-178v-598z" />
    <glyph glyph-name="dcaron" unicode="&#x10f;" horiz-adv-x="699" 
d="M688 646q0 -20 -6.5 -35t-22.5 -31l-44 -45l-30 29l34 34q11 11 15.5 22t4.5 27v95h50zM452 -2v66q-26 -40 -70.5 -57.5t-110.5 -17.5q-59 0 -100.5 14t-67.5 44.5t-38 80t-12 121.5t12 121.5t38 80t67.5 44.5t100.5 14q66 0 110.5 -17.5t70.5 -57.5v303h57v-738z
M452 380q-18 48 -56.5 66.5t-104.5 18.5q-50 0 -84 -10.5t-55.5 -36t-31 -67.5t-9.5 -104t9.5 -104t31 -67t55.5 -35.5t84 -10.5q66 0 104.5 18.5t56.5 66.5v265z" />
    <glyph glyph-name="Dcroat" unicode="&#x110;" horiz-adv-x="704" 
d="M345 700q78 0 133 -17t89 -57.5t49.5 -107.5t15.5 -168t-15.5 -168t-49.5 -107.5t-89 -57.5t-133 -17h-240v326h-103v48h103v326h240zM167 376h171v-48h-171v-276h178q64 0 107 12.5t69.5 46t38 91.5t11.5 149t-11.5 149t-38 91.5t-69.5 46t-107 12.5h-178v-274z" />
    <glyph glyph-name="dcroat" unicode="&#x111;" 
d="M643 633v-34h-132v-601h-57v66q-26 -40 -70.5 -57.5t-110.5 -17.5q-59 0 -100.5 14t-67.5 44.5t-38 80t-12 121.5t12 121.5t38 80t67.5 44.5t100.5 14q66 0 110.5 -17.5t70.5 -57.5v167h-164v34h164v102h57v-102zM454 379q-18 48 -56.5 66.5t-104.5 18.5q-50 0 -84 -10.5
t-55.5 -36t-31 -67.5t-9.5 -104t9.5 -104t31 -67t55.5 -35.5t84 -10.5q66 0 104.5 18.5t56.5 66.5v265z" />
    <glyph glyph-name="Emacron" unicode="&#x112;" horiz-adv-x="601" 
d="M126 869v35h353v-35h-353zM161 651v-266h375v-49h-375v-287h387v-49h-449v700h446v-49h-384z" />
    <glyph glyph-name="emacron" unicode="&#x113;" horiz-adv-x="561" 
d="M105 669v35h353v-35h-353zM501 144q-5 -84 -63.5 -119.5t-155.5 -35.5q-62 0 -105.5 14t-70.5 44.5t-39.5 80t-12.5 121.5t12.5 121.5t39.5 80t70.5 44.5t105.5 14t105.5 -14t70.5 -44.5t39.5 -80t12.5 -121.5l-1 -24h-398q1 -57 11 -94.5t30.5 -60t52.5 -31.5t77 -9
q73 0 117 25.5t46 89.5zM452 265q-1 58 -10 97.5t-29.5 62.5t-52.5 33t-78 10t-78 -9.5t-52.5 -33t-29.5 -62t-10 -96.5v-6h341z" />
    <glyph glyph-name="Edotaccent" unicode="&#x116;" horiz-adv-x="601" 
d="M277 811v45h54v-45h-54zM162 651v-266h375v-49h-375v-287h387v-49h-449v700h446v-49h-384z" />
    <glyph glyph-name="edotaccent" unicode="&#x117;" horiz-adv-x="561" 
d="M255 611v45h54v-45h-54zM502 144q-5 -84 -63.5 -119.5t-155.5 -35.5q-62 0 -105.5 14t-70.5 44.5t-39.5 80t-12.5 121.5t12.5 121.5t39.5 80t70.5 44.5t105.5 14t105.5 -14t70.5 -44.5t39.5 -80t12.5 -121.5l-1 -24h-398q1 -57 11 -94.5t30.5 -60t52.5 -31.5t77 -9
q73 0 117 25.5t46 89.5zM453 265q-1 58 -10 97.5t-29.5 62.5t-52.5 33t-78 10t-78 -9.5t-52.5 -33t-29.5 -62t-10 -96.5v-6h341z" />
    <glyph glyph-name="Eogonek" unicode="&#x118;" horiz-adv-x="601" 
d="M160 650v-266h375v-49h-375v-287h387v-49h-75q-37 -26 -53.5 -54t-16.5 -53q0 -31 21.5 -53.5t66.5 -22.5q20 0 46 6l7 -30q-29 -9 -54 -9q-29 0 -51.5 9t-38 24t-24 34.5t-8.5 40.5q0 27 13.5 55t42.5 54h-324v700h446v-49z" />
    <glyph glyph-name="eogonek" unicode="&#x119;" horiz-adv-x="561" 
d="M460 -203q-29 -9 -54 -9q-29 0 -51.5 9t-38 24t-24 34.5t-8.5 40.5q0 24 11 49t34 48q-27 -4 -55 -3q-60 1 -101.5 15t-68 44.5t-38.5 79.5t-12 120q0 72 12.5 121.5t39.5 80t70.5 44.5t105.5 14t105.5 -14t70.5 -44.5t39.5 -80t12.5 -121.5l-1 -24h-398q1 -57 11 -94.5
t30.5 -60t52.5 -31.5t77 -9q73 0 117 25.5t46 89.5h56q-3 -58 -32 -91.5t-79 -48.5q-36 -25 -52 -53t-16 -54q0 -31 21 -53.5t66 -22.5q20 0 46 6zM451 265q-1 58 -10 97.5t-29.5 62.5t-52.5 33t-78 10t-78.5 -9.5t-52.5 -33t-29.5 -62t-10.5 -96.5v-6h341v4z" />
    <glyph glyph-name="Ecaron" unicode="&#x11a;" horiz-adv-x="601" 
d="M276 766l-130 138h53l104 -105l104 105h53l-130 -138h-54zM161 651v-266h375v-49h-375v-287h387v-49h-449v700h446v-49h-384z" />
    <glyph glyph-name="ecaron" unicode="&#x11b;" horiz-adv-x="561" 
d="M254 566l-130 138h53l104 -105l104 105h53l-130 -138h-54zM501 144q-5 -84 -63.5 -119.5t-155.5 -35.5q-62 0 -105.5 14t-70.5 44.5t-39.5 80t-12.5 121.5t12.5 121.5t39.5 80t70.5 44.5t105.5 14t105.5 -14t70.5 -44.5t39.5 -80t12.5 -121.5l-1 -24h-398q1 -57 11 -94.5
t30.5 -60t52.5 -31.5t77 -9q73 0 117 25.5t46 89.5zM453 265q-1 58 -10 97.5t-29.5 62.5t-52.5 33t-78 10t-78.5 -9.5t-52.5 -33t-29.5 -62t-10.5 -96.5v-6h341v4z" />
    <glyph glyph-name="Gbreve" unicode="&#x11e;" horiz-adv-x="726" 
d="M509 889q-1 -61 -34.5 -86t-108.5 -25q-74 0 -107.5 24t-35.5 83v18h38v-13q1 -47 24 -64t80 -17q58 0 80.5 17.5t23.5 64.5v12h38zM591 77q-34 -49 -90.5 -70t-141.5 -21q-77 0 -130.5 18.5t-87 61t-48.5 111t-15 169.5q0 100 15 169t48.5 111t87 60.5t130.5 18.5
q60 0 109 -11t84 -36t55 -64.5t22 -96.5h-61q-1 45 -16 75.5t-42 48.5t-65 26t-85 8q-62 0 -104 -14t-67.5 -49.5t-37 -95t-11.5 -150.5t11.5 -150.5t37 -94.5t67.5 -49t104 -14q87 0 138.5 23t77.5 83v166h-209v46h270v-366h-43z" />
    <glyph glyph-name="gbreve" unicode="&#x11f;" 
d="M444 689q-1 -61 -34.5 -86t-108.5 -25q-74 0 -107.5 24t-35.5 83v18h38v-13q1 -47 24 -64t80 -17q58 0 80.5 17.5t23.5 64.5v12h38zM455 72q-26 -40 -70.5 -57.5t-110.5 -17.5q-59 0 -100.5 13.5t-67.5 43.5t-38 77.5t-12 115.5q0 72 12 121.5t38 80t67.5 44.5t100.5 14
q66 0 110.5 -17.5t70.5 -57.5v67h57v-547q0 -43 -16.5 -73t-46.5 -48.5t-71 -27t-89 -8.5q-45 0 -83 8t-66.5 25.5t-45 45.5t-19.5 68h56q4 -60 46.5 -83.5t111.5 -23.5q76 0 121 26.5t45 90.5v120zM455 381q-18 47 -56.5 65.5t-103.5 18.5q-50 0 -84 -10.5t-55.5 -36
t-31 -67.5t-9.5 -105q0 -59 9.5 -99.5t31 -65t55.5 -35t84 -10.5q65 0 103.5 18.5t56.5 65.5v261z" />
    <glyph glyph-name="Gdotaccent" unicode="&#x120;" horiz-adv-x="726" 
d="M338 811v45h54v-45h-54zM589 79q-34 -49 -90.5 -70t-141.5 -21q-77 0 -130.5 18.5t-87 61t-48.5 111t-15 169.5q0 100 15 169t48.5 111t87 60.5t130.5 18.5q60 0 109 -11t84 -36t55 -64.5t22 -96.5h-61q-1 45 -16 75.5t-42 48.5t-65 26t-85 8q-62 0 -104 -14t-67.5 -49.5
t-37 -95t-11.5 -150.5t11.5 -150.5t37 -94.5t67.5 -49t104 -14q87 0 138.5 23t77.5 83v166h-209v46h270v-366h-43z" />
    <glyph glyph-name="gdotaccent" unicode="&#x121;" 
d="M274 611v45h54v-45h-54zM455 74q-26 -40 -70.5 -57.5t-110.5 -17.5q-59 0 -100.5 13.5t-67.5 43.5t-38 77.5t-12 115.5q0 72 12 121.5t38 80t67.5 44.5t100.5 14q66 0 110.5 -17.5t70.5 -57.5v67h57v-547q0 -43 -16.5 -73t-46.5 -48.5t-71 -27t-89 -8.5q-45 0 -83 8
t-66.5 25.5t-45 45.5t-19.5 68h56q4 -60 46.5 -83.5t111.5 -23.5q76 0 121 26.5t45 90.5v120zM455 383q-18 47 -56.5 65.5t-103.5 18.5q-50 0 -84 -10.5t-55.5 -36t-31 -67.5t-9.5 -105q0 -59 9.5 -99.5t31 -65t55.5 -35t84 -10.5q65 0 103.5 18.5t56.5 65.5v261z" />
    <glyph glyph-name="uni0122" unicode="&#x122;" horiz-adv-x="726" 
d="M588 79q-34 -49 -90.5 -70t-141.5 -21q-77 0 -130.5 18.5t-87 61t-48.5 111t-15 169.5q0 100 15 169t48.5 111t87 60.5t130.5 18.5q60 0 109 -11t84 -36t55 -64.5t22 -96.5h-61q-1 45 -16 75.5t-42 48.5t-65 26t-85 8q-62 0 -104 -14t-67.5 -49.5t-37 -95t-11.5 -150.5
t11.5 -150.5t37 -94.5t67.5 -49t104 -14q86 0 138.5 23t78.5 83v166h-209v46h270v-366h-43zM413 -142q0 -20 -6.5 -35t-22.5 -32l-44 -44l-30 28l34 34q11 11 15.5 22t4.5 27v95h50z" />
    <glyph glyph-name="uni0123" unicode="&#x123;" 
d="M302 703q-11 -11 -15.5 -21.5t-4.5 -26.5v-95h-50v96q0 20 6.5 35t22.5 31l44 45l30 -29zM455 73q-26 -40 -70.5 -57.5t-110.5 -17.5q-59 0 -100.5 13.5t-67.5 43.5t-38 77.5t-12 115.5q0 72 12 121.5t38 80t67.5 44.5t100.5 14q66 0 110.5 -17.5t70.5 -57.5v67h57v-547
q0 -43 -16.5 -73t-46.5 -48.5t-71 -27t-89 -8.5q-45 0 -83 8t-66.5 25.5t-45 45.5t-19.5 68h56q4 -60 46.5 -83.5t111.5 -23.5q76 0 121 26.5t45 90.5v120zM455 382q-18 47 -56.5 65.5t-103.5 18.5q-50 0 -84 -10.5t-55.5 -36t-31 -67.5t-9.5 -105q0 -59 9.5 -99.5t31 -65
t55.5 -35t84 -10.5q65 0 103.5 18.5t56.5 65.5v261z" />
    <glyph glyph-name="Hbar" unicode="&#x126;" horiz-adv-x="715" 
d="M714 585v-49h-98v-536h-62v325h-392v-325h-62v536h-98v49h98v115h62v-115h392v115h62v-115h98zM162 374h392v162h-392v-162z" />
    <glyph glyph-name="hbar" unicode="&#x127;" horiz-adv-x="606" 
d="M340 645v-44h-191v-170q16 25 34.5 40.5t40 24.5t47.5 12t58 3q59 0 98 -11.5t61.5 -37t31.5 -66t9 -98.5v-297h-57v295q0 48 -7 80.5t-25 52t-49.5 28t-80.5 8.5q-31 0 -54.5 -3t-42 -13t-34 -27.5t-30.5 -47.5v-374h-57v599h-96v44h96v94h57v-94z" />
    <glyph glyph-name="Itilde" unicode="&#x128;" horiz-adv-x="260" 
d="M-18 813q26 68 79 68q17 0 35 -5.5t38 -15.5q21 -11 36 -17t27 -6q14 0 24.5 9.5t24.5 32.5l28 -11q-12 -30 -29.5 -48t-43.5 -18q-15 0 -32.5 6.5t-39.5 17.5q-20 10 -35 15.5t-28 5.5q-17 0 -29 -9t-25 -33zM98 -2v700h62v-700h-62z" />
    <glyph glyph-name="itilde" unicode="&#x129;" horiz-adv-x="227" 
d="M-32 613q25 68 78 68q17 0 35 -5.5t38 -15.5q21 -11 36 -17t27 -6q14 0 24.5 9.5t24.5 32.5l28 -11q-12 -30 -29.5 -48t-43.5 -18q-15 0 -32.5 6.5t-39.5 17.5q-20 10 -35 15.5t-28 5.5q-17 0 -29 -9t-24 -33zM87 -2v500h57v-500h-57z" />
    <glyph glyph-name="Imacron" unicode="&#x12a;" horiz-adv-x="260" 
d="M-46 869v35h353v-35h-353zM99 0v700h62v-700h-62z" />
    <glyph glyph-name="imacron" unicode="&#x12b;" horiz-adv-x="227" 
d="M-61 669v35h353v-35h-353zM88 0v500h57v-500h-57z" />
    <glyph glyph-name="Iogonek" unicode="&#x12e;" horiz-adv-x="260" 
d="M160 -1q-37 -26 -53.5 -54t-16.5 -53q0 -32 21.5 -54t65.5 -22q20 0 46 6l7 -30q-30 -9 -55 -9q-29 0 -51 9t-38 24t-24 34.5t-8 40.5q0 28 14 56.5t45 54.5l-14 3v695h62z" />
    <glyph glyph-name="iogonek" unicode="&#x12f;" horiz-adv-x="227" 
d="M90 611v45h54v-45h-54zM144 0q-37 -26 -53.5 -54t-16.5 -53q0 -32 21.5 -54t65.5 -22q20 0 46 6l7 -30q-30 -9 -55 -9q-29 0 -51.5 9t-38 23.5t-24 34t-8.5 40.5q0 28 14.5 56.5t46.5 54.5l-10 3v495h57z" />
    <glyph glyph-name="Idotaccent" unicode="&#x130;" horiz-adv-x="260" 
d="M104 811v45h54v-45h-54zM99 0v700h62v-700h-62z" />
    <glyph glyph-name="dotlessi" unicode="&#x131;" horiz-adv-x="227" 
d="M88 0v500h57v-500h-57z" />
    <glyph glyph-name="IJ" unicode="&#x132;" horiz-adv-x="849" 
d="M99 0v700h62v-700h-62zM749 264q0 -84 -13.5 -137.5t-41 -84t-70.5 -41.5t-102 -11q-52 0 -93.5 8.5t-70 31t-44 60.5t-15.5 98h62q0 -46 10.5 -74.5t31 -44.5t51 -22t69.5 -6q46 0 77.5 8.5t51 32.5t28 68t8.5 115v435h62z" />
    <glyph glyph-name="ij" unicode="&#x133;" horiz-adv-x="459" 
d="M88 608v92h60v-92h-60zM317 608v92h60v-92h-60zM89 0v500h57v-500h-57zM375 -33q0 -42 -12 -71t-34 -49q-24 -23 -59 -33.5t-78 -10.5v46q32 2 57.5 10t42.5 26q26 28 26 82v533h57v-533z" />
    <glyph glyph-name="uni0136" unicode="&#x136;" horiz-adv-x="653" 
d="M614 0h-71l-264 383l-118 -112v-269h-62v698h62v-344l360 344h81l-283 -271zM376 -139q0 -20 -6.5 -35t-22.5 -31l-44 -45l-30 29l34 34q11 11 15.5 21.5t4.5 26.5v95h50z" />
    <glyph glyph-name="uni0137" unicode="&#x137;" horiz-adv-x="532" 
d="M412 500h73l-218 -186l240 -314h-67l-210 278l-85 -71v-207h-57v737h57v-464zM306 -139q0 -20 -6.5 -35t-22.5 -31l-44 -45l-30 29l34 34q11 11 15.5 21.5t4.5 26.5v95h50z" />
    <glyph glyph-name="Lacute" unicode="&#x139;" horiz-adv-x="566" 
d="M189 766l129 138h60l-138 -138h-51zM527 49v-49h-428v700h62v-651h366z" />
    <glyph glyph-name="lacute" unicode="&#x13a;" horiz-adv-x="222" 
d="M18 804l129 138h60l-138 -138h-51zM87 0v737h57v-737h-57z" />
    <glyph glyph-name="uni013B" unicode="&#x13b;" horiz-adv-x="566" 
d="M527 49v-49h-428v700h62v-651h366zM337 -139q0 -20 -6.5 -35t-22.5 -31l-44 -45l-30 29l34 34q11 11 15.5 21.5t4.5 26.5v95h50z" />
    <glyph glyph-name="uni013C" unicode="&#x13c;" horiz-adv-x="222" 
d="M88 0v737h57v-737h-57zM163 -139q0 -20 -6.5 -35t-22.5 -31l-44 -45l-30 29l34 34q11 11 15.5 21.5t4.5 26.5v95h50z" />
    <glyph glyph-name="Lcaron" unicode="&#x13d;" horiz-adv-x="566" 
d="M453 621q0 -20 -6.5 -35t-22.5 -31l-44 -45l-30 29l34 34q11 11 15.5 22t4.5 27v95h50zM526 48v-49h-428v700h62v-651h366z" />
    <glyph glyph-name="lcaron" unicode="&#x13e;" horiz-adv-x="339" 
d="M317 646q0 -20 -6.5 -35t-22.5 -31l-44 -45l-30 29l34 34q11 11 15.5 22t4.5 27v95h50zM87 -1v737h57v-737h-57z" />
    <glyph glyph-name="Ldot" unicode="&#x13f;" horiz-adv-x="566" 
d="M527 49v-49h-428v700h62v-651h366zM365 311v108h64v-108h-64z" />
    <glyph glyph-name="ldot" unicode="&#x140;" horiz-adv-x="339" 
d="M88 0v737h57v-737h-57zM248 311v108h64v-108h-64z" />
    <glyph glyph-name="Lslash" unicode="&#x141;" horiz-adv-x="584" 
d="M328 558l28 -45l-176 -129v-335h366v-49h-428v349l-114 -88l-27 46l141 104v289h62v-254z" />
    <glyph glyph-name="lslash" unicode="&#x142;" horiz-adv-x="400" 
d="M363 555l26 -43l-177 -130v-382h-57v350l-118 -90l-26 43l144 105v329h57v-297z" />
    <glyph glyph-name="Nacute" unicode="&#x143;" horiz-adv-x="695" 
d="M246 766l129 138h60l-138 -138h-51zM542 700h61v-700h-69l-384 603v-603h-61v700h70l384 -602z" />
    <glyph glyph-name="nacute" unicode="&#x144;" horiz-adv-x="599" 
d="M202 566l129 138h60l-138 -138h-51zM137 431q16 25 34.5 40.5t40.5 24t48 11.5t58 3q60 0 99 -11.5t62 -37t32 -66t9 -98.5v-297h-57v297q0 49 -7 81.5t-25.5 52t-50.5 28t-81 8.5q-31 0 -54.5 -3t-42 -13t-34 -27.5t-30.5 -47.5v-376h-57v500h53z" />
    <glyph glyph-name="uni0145" unicode="&#x145;" horiz-adv-x="695" 
d="M543 700h61v-700h-69l-384 603v-603h-61v700h70l384 -602zM394 -139q0 -20 -6.5 -35t-22.5 -31l-44 -45l-30 29l34 34q11 11 15.5 21.5t4.5 26.5v95h50z" />
    <glyph glyph-name="uni0146" unicode="&#x146;" horiz-adv-x="599" 
d="M139 431q16 25 34.5 40.5t40.5 24t48 11.5t58 3q60 0 99 -11.5t62 -37t32 -66t9 -98.5v-297h-57v297q0 49 -7 81.5t-25.5 52t-50.5 28t-81 8.5q-31 0 -54.5 -3t-42 -13t-34 -27.5t-30.5 -47.5v-376h-57v500h53zM352 -138q0 -20 -6.5 -35t-22.5 -31l-44 -45l-30 29l34 34
q11 11 15.5 21.5t4.5 26.5v95h50z" />
    <glyph glyph-name="Ncaron" unicode="&#x147;" horiz-adv-x="695" 
d="M317 766l-130 138h53l104 -105l104 105h53l-130 -138h-54zM543 700h61v-700h-69l-384 603v-603h-61v700h70l384 -602z" />
    <glyph glyph-name="ncaron" unicode="&#x148;" horiz-adv-x="599" 
d="M274 566l-130 138h53l104 -105l104 105h53l-130 -138h-54zM139 431q16 25 34.5 40.5t40.5 24t48 11.5t58 3q60 0 99 -11.5t62 -37t32 -66t9 -98.5v-297h-57v297q0 49 -7 81.5t-25.5 52t-50.5 28t-81 8.5q-31 0 -54.5 -3t-42 -13t-34 -27.5t-30.5 -47.5v-376h-57v500h53z
" />
    <glyph glyph-name="Eng" unicode="&#x14a;" horiz-adv-x="695" 
d="M605 85q0 -84 -13.5 -137.5t-41 -84t-70.5 -42t-102 -11.5v51q38 0 66 5.5t47.5 20.5t30.5 42.5t16 71.5h-3l-384 603v-603h-61v700h70l381 -598q3 39 3 83v514h61v-615z" />
    <glyph glyph-name="eng" unicode="&#x14b;" horiz-adv-x="599" 
d="M139 431q16 25 34.5 40.5t40.5 24t48 11.5t58 3q60 0 99 -11.5t62 -37t32 -66t9 -98.5v-330q0 -42 -12 -71t-34 -49q-24 -23 -59 -33.5t-78 -10.5v46q32 2 57.5 10t42.5 26q26 28 26 82v330q0 49 -7 81.5t-25.5 52t-50.5 28t-81 8.5q-31 0 -54.5 -3t-42 -13t-34 -27.5
t-30.5 -47.5v-376h-57v500h53z" />
    <glyph glyph-name="Omacron" unicode="&#x14c;" horiz-adv-x="729" 
d="M188 869v35h353v-35h-353zM364 709q79 0 133.5 -18.5t89 -60.5t50 -111t15.5 -169q0 -101 -15.5 -169.5t-50 -111t-89 -61t-133.5 -18.5t-133.5 18.5t-89 61t-50 111t-15.5 169.5q0 100 15.5 169t50 111t89 60.5t133.5 18.5zM364 659q-63 0 -106 -14t-69.5 -49.5t-38 -95
t-11.5 -150.5t11.5 -150.5t38 -95t69.5 -49.5t106 -14t106 14t69.5 49.5t38 95t11.5 150.5t-11.5 150.5t-38 95t-69.5 49.5t-106 14z" />
    <glyph glyph-name="omacron" unicode="&#x14d;" horiz-adv-x="580" 
d="M114 671v35h353v-35h-353zM290 509q64 0 108.5 -14t72.5 -44.5t41 -80t13 -121.5t-13 -121.5t-41 -80t-72.5 -44.5t-108.5 -14t-108.5 14t-72.5 44.5t-41 80t-13 121.5t13 121.5t41 80t72.5 44.5t108.5 14zM290 468q-50 0 -84 -10t-55 -35t-30 -67t-9 -106t9 -106t30 -67
t55 -35t84 -10q49 0 83 10t55 35t30.5 67t9.5 106t-9.5 106t-30.5 67t-55 35t-83 10z" />
    <glyph glyph-name="Ohungarumlaut" unicode="&#x150;" horiz-adv-x="729" 
d="M191 766l129 138h60l-138 -138h-51zM357 766l129 138h60l-138 -138h-51zM362 709q79 0 133.5 -18.5t89 -60.5t50 -111t15.5 -169q0 -101 -15.5 -169.5t-50 -111t-89 -61t-133.5 -18.5t-133.5 18.5t-89 61t-50 111t-15.5 169.5q0 100 15.5 169t50 111t89 60.5t133.5 18.5z
M362 659q-63 0 -106 -14t-69.5 -49.5t-38 -95t-11.5 -150.5t11.5 -150.5t38 -95t69.5 -49.5t106 -14t106 14t69.5 49.5t38 95t11.5 150.5t-11.5 150.5t-38 95t-69.5 49.5t-106 14z" />
    <glyph glyph-name="ohungarumlaut" unicode="&#x151;" horiz-adv-x="580" 
d="M117 568l129 138h60l-138 -138h-51zM283 568l129 138h60l-138 -138h-51zM288 510q64 0 108.5 -14t72.5 -44.5t41 -80t13 -121.5t-13 -121.5t-41 -80t-72.5 -44.5t-108.5 -14t-108.5 14t-72.5 44.5t-41 80t-13 121.5t13 121.5t41 80t72.5 44.5t108.5 14zM288 469
q-50 0 -84 -10t-55 -35t-30 -67t-9 -106t9 -106t30 -67t55 -35t84 -10q49 0 83 10t55 35t30.5 67t9.5 106t-9.5 106t-30.5 67t-55 35t-83 10z" />
    <glyph glyph-name="OE" unicode="&#x152;" horiz-adv-x="1097" 
d="M596 140q-23 -83 -78.5 -116.5t-152.5 -33.5q-79 0 -133.5 18.5t-89 61t-50 111t-15.5 169.5q0 100 15.5 169t50 111t89 60.5t133.5 18.5q97 0 152.5 -33.5t78.5 -116.5v141h446v-49h-384v-266h375v-49h-375v-287h387v-49h-449v140zM364 659q-63 0 -106 -14t-69.5 -49.5
t-38 -95t-11.5 -150.5t11.5 -150.5t38 -95t69.5 -49.5t106 -14t106 14t69.5 49.5t38 95t11.5 150.5t-11.5 150.5t-38 95t-69.5 49.5t-106 14z" />
    <glyph glyph-name="oe" unicode="&#x153;" horiz-adv-x="975" 
d="M915 144q-5 -84 -63.5 -119.5t-155.5 -35.5q-87 0 -134.5 30.5t-65.5 105.5q-19 -75 -68 -105.5t-139 -30.5q-64 0 -108.5 14t-72.5 44.5t-41 80t-13 121.5t13 121.5t41 80t72.5 44.5t108.5 14q90 0 139 -30.5t68 -105.5q18 75 65.5 105.5t134.5 30.5q62 0 105.5 -14
t70.5 -44.5t39.5 -80t12.5 -121.5l-1 -24h-398q1 -57 11 -94.5t30.5 -60t52.5 -31.5t77 -9q73 0 117 25.5t46 89.5zM867 267q-1 58 -10.5 96.5t-29.5 62t-52.5 33t-78.5 9.5t-78 -9.5t-52.5 -33t-29.5 -62t-10 -96.5v-6h341v6zM290 467q-50 0 -84 -10t-55 -35t-30 -67
t-9 -106t9 -106t30 -67t55 -35t84 -10q49 0 83 10t55 35t30.5 67t9.5 106t-9.5 106t-30.5 67t-55 35t-83 10z" />
    <glyph glyph-name="Racute" unicode="&#x154;" horiz-adv-x="674" 
d="M239 766l129 138h60l-138 -138h-51zM350 701q66 0 111.5 -10.5t73 -33.5t40 -59t12.5 -87q0 -64 -19 -104t-66 -60q49 -21 67 -61.5t18 -105.5v-181h-62v181q0 63 -18.5 98t-67.5 50q-34 -7 -88 -7h-191v-321h-62v700zM159 369h192q52 0 86 7.5t54.5 24t29 43.5t8.5 67
t-8.5 67t-29 43.5t-54.5 24t-86 7.5h-192v-284z" />
    <glyph glyph-name="racute" unicode="&#x155;" horiz-adv-x="366" 
d="M82 566l129 138h60l-138 -138h-51zM137 413q17 33 33.5 52.5t35 29t39 12t46.5 2.5q11 0 24 -0.5t25 -2.5v-43q-11 1 -22 1h-24q-28 0 -49 -2.5t-38.5 -14t-33.5 -33.5t-34 -61v-353h-57v500h57z" />
    <glyph glyph-name="uni0156" unicode="&#x156;" horiz-adv-x="674" 
d="M351 701q66 0 111.5 -10.5t73 -33.5t40 -59t12.5 -87q0 -64 -19 -104t-66 -60q49 -21 67 -61.5t18 -105.5v-181h-62v181q0 63 -18.5 98t-67.5 50q-34 -7 -88 -7h-191v-321h-62v700zM160 369h192q52 0 86 7.5t54.5 24t29 43.5t8.5 67t-8.5 67t-29 43.5t-54.5 24t-86 7.5
h-192v-284zM387 -139q0 -20 -6.5 -35t-22.5 -31l-44 -45l-30 29l34 34q11 11 15.5 21.5t4.5 26.5v95h50z" />
    <glyph glyph-name="uni0157" unicode="&#x157;" horiz-adv-x="366" 
d="M138 413q17 33 33.5 52.5t35 29t39 12t46.5 2.5q11 0 24 -0.5t25 -2.5v-43q-11 1 -22 1h-24q-28 0 -49 -2.5t-38.5 -14t-33.5 -33.5t-34 -61v-353h-57v500h57zM229 -140q0 -20 -6.5 -35t-22.5 -31l-44 -45l-30 29l34 34q11 11 15.5 21.5t4.5 26.5v95h50z" />
    <glyph glyph-name="Rcaron" unicode="&#x158;" horiz-adv-x="674" 
d="M310 766l-130 138h53l104 -105l104 105h53l-130 -138h-54zM351 701q66 0 111.5 -10.5t73 -33.5t40 -59t12.5 -87q0 -64 -19 -104t-66 -60q49 -21 67 -61.5t18 -105.5v-181h-62v181q0 63 -18.5 98t-67.5 50q-34 -7 -88 -7h-191v-321h-62v700zM160 369h192q52 0 86 7.5
t54.5 24t29 43.5t8.5 67t-8.5 67t-29 43.5t-54.5 24t-86 7.5h-192v-284z" />
    <glyph glyph-name="rcaron" unicode="&#x159;" horiz-adv-x="366" 
d="M153 566l-130 138h53l104 -105l104 105h53l-130 -138h-54zM137 413q17 33 33.5 52.5t35 29t39 12t46.5 2.5q11 0 24 -0.5t25 -2.5v-43q-11 1 -22 1h-24q-28 0 -49 -2.5t-38.5 -14t-33.5 -33.5t-34 -61v-353h-57v500h57z" />
    <glyph glyph-name="Sacute" unicode="&#x15a;" horiz-adv-x="646" 
d="M225 766l129 138h60l-138 -138h-51zM270 339q-46 4 -84 13.5t-65.5 28t-42.5 49t-15 77.5q0 57 18.5 95.5t52 62t80.5 34t104 10.5q59 0 108 -10.5t84 -34t54.5 -61.5t19.5 -94h-61q0 43 -14.5 72.5t-41 47.5t-64.5 26t-84 8q-44 0 -80 -8t-61.5 -26t-39.5 -47.5
t-14 -72.5q0 -33 11 -54.5t31.5 -35t49.5 -20.5t65 -10l112 -10q43 -4 79.5 -13.5t63.5 -29.5t42.5 -52t15.5 -80q0 -59 -20.5 -99.5t-56.5 -66t-86 -37t-108 -11.5q-60 0 -111.5 11.5t-89 36.5t-59 65t-21.5 98h64q0 -45 16 -76t44.5 -50.5t68.5 -28t88 -8.5q46 0 84.5 8.5
t66 28t42.5 50.5t15 76q0 35 -11 58.5t-31.5 38t-48.5 21.5t-62 10z" />
    <glyph glyph-name="sacute" unicode="&#x15b;" horiz-adv-x="541" 
d="M174 566l129 138h60l-138 -138h-51zM224 242q-38 3 -69 10t-53.5 20.5t-34.5 35.5t-12 55q0 40 15 68t42.5 45.5t65.5 25t85 7.5q48 0 88 -7.5t68.5 -25t44.5 -45t16 -67.5h-53q0 60 -43.5 84.5t-118.5 24.5q-72 0 -114 -24.5t-42 -84.5q0 -45 33.5 -62t91.5 -22l90 -7
q35 -3 65 -10t52.5 -21.5t35 -38t12.5 -58.5q0 -43 -17 -72.5t-46.5 -48t-70 -27t-88.5 -8.5q-49 0 -91 8.5t-73 26.5t-48.5 47.5t-17.5 71.5h56q0 -32 12.5 -54.5t36 -36.5t55.5 -20t71 -6q37 0 68 6t53.5 20t34.5 36.5t12 54.5q0 25 -9 42t-25 27.5t-39 16t-50 7.5z" />
    <glyph glyph-name="Scedilla" unicode="&#x15e;" horiz-adv-x="646" 
d="M271 338q-46 4 -84 13.5t-65.5 28t-42.5 49t-15 77.5q0 57 18.5 95.5t52 62t80.5 34t104 10.5q59 0 108 -10.5t84 -34t54.5 -61.5t19.5 -94h-61q0 43 -14.5 72.5t-41 47.5t-64.5 26t-84 8q-44 0 -80 -8t-61.5 -26t-39.5 -47.5t-14 -72.5q0 -33 11 -54.5t31.5 -35
t49.5 -20.5t65 -10l112 -10q43 -4 79.5 -13.5t63.5 -29.5t42.5 -52t15.5 -80q0 -58 -20 -98.5t-55 -66t-84 -37t-106 -12.5h-9v-28h19q45 -1 64.5 -19t19.5 -63t-20 -63.5t-67 -18.5q-61 0 -87.5 18.5t-26.5 63.5h35q0 -30 16.5 -41.5t61.5 -11.5q31 0 42 10.5t11 42.5
q0 31 -11 41.5t-41 10.5h-44v59q-54 3 -100 16t-79 38.5t-52 64t-19 92.5h64q0 -45 16 -76t44.5 -50.5t68.5 -28t88 -8.5q46 0 84.5 8.5t66 28t42.5 50.5t15 76q0 35 -11 58.5t-31.5 38t-48.5 21.5t-62 10z" />
    <glyph glyph-name="scedilla" unicode="&#x15f;" horiz-adv-x="541" 
d="M225 241q-38 3 -69 10t-53.5 20.5t-34.5 35.5t-12 55q0 40 15 68t42.5 45.5t65.5 25t85 7.5q48 0 88 -7.5t68.5 -25t44.5 -45t16 -67.5h-53q0 60 -43.5 84.5t-118.5 24.5q-72 0 -114 -24.5t-42 -84.5q0 -45 33.5 -62t91.5 -22l90 -7q35 -3 65 -10t52.5 -21.5t35 -38
t12.5 -58.5q0 -42 -16 -71.5t-45 -48t-68.5 -27.5t-85.5 -9h-6v-28h19q45 -1 64.5 -19t19.5 -63t-20 -63.5t-67 -18.5q-61 0 -87.5 18.5t-26.5 63.5h35q0 -30 16.5 -41.5t61.5 -11.5q31 0 42 10.5t11 42.5q0 31 -11 41.5t-41 10.5h-44v58q-44 2 -81 12t-64 28.5t-42.5 46.5
t-15.5 67h56q0 -32 12.5 -54.5t36 -36.5t55.5 -20t71 -6q37 0 68 6t53.5 20t34.5 36.5t12 54.5q0 25 -9 42t-25 27.5t-39 16t-50 7.5z" />
    <glyph glyph-name="Scaron" unicode="&#x160;" horiz-adv-x="646" 
d="M296 766l-130 138h53l104 -105l104 105h53l-130 -138h-54zM270 339q-46 4 -84 13.5t-65.5 28t-42.5 49t-15 77.5q0 57 18.5 95.5t52 62t80.5 34t104 10.5q59 0 108 -10.5t84 -34t54.5 -61.5t19.5 -94h-61q0 43 -14.5 72.5t-41 47.5t-64.5 26t-84 8q-44 0 -80 -8
t-61.5 -26t-39.5 -47.5t-14 -72.5q0 -33 11 -54.5t31.5 -35t49.5 -20.5t65 -10l112 -10q43 -4 79.5 -13.5t63.5 -29.5t42.5 -52t15.5 -80q0 -59 -20.5 -99.5t-56.5 -66t-86 -37t-108 -11.5q-60 0 -111.5 11.5t-89 36.5t-59 65t-21.5 98h64q0 -45 16 -76t44.5 -50.5t68.5 -28
t88 -8.5q46 0 84.5 8.5t66 28t42.5 50.5t15 76q0 35 -11 58.5t-31.5 38t-48.5 21.5t-62 10z" />
    <glyph glyph-name="scaron" unicode="&#x161;" horiz-adv-x="541" 
d="M245 566l-130 138h53l104 -105l104 105h53l-130 -138h-54zM224 242q-38 3 -69 10t-53.5 20.5t-34.5 35.5t-12 55q0 40 15 68t42.5 45.5t65.5 25t85 7.5q48 0 88 -7.5t68.5 -25t44.5 -45t16 -67.5h-53q0 60 -43.5 84.5t-118.5 24.5q-72 0 -114 -24.5t-42 -84.5
q0 -45 33.5 -62t91.5 -22l90 -7q35 -3 65 -10t52.5 -21.5t35 -38t12.5 -58.5q0 -43 -17 -72.5t-46.5 -48t-70 -27t-88.5 -8.5q-49 0 -91 8.5t-73 26.5t-48.5 47.5t-17.5 71.5h56q0 -32 12.5 -54.5t36 -36.5t55.5 -20t71 -6q37 0 68 6t53.5 20t34.5 36.5t12 54.5q0 25 -9 42
t-25 27.5t-39 16t-50 7.5z" />
    <glyph glyph-name="uni0162" unicode="&#x162;" horiz-adv-x="607" 
d="M335 651v-651l-21 -13v-24h19q45 0 64.5 -18.5t19.5 -62.5q0 -45 -20 -63.5t-67 -18.5q-61 0 -87.5 18.5t-26.5 63.5h35q0 -31 16.5 -42.5t61.5 -11.5q31 0 42 11t11 43q0 31 -11 41.5t-41 10.5h-45v53l-12 13v651h-234v49h529v-49h-233z" />
    <glyph glyph-name="uni0163" unicode="&#x163;" horiz-adv-x="373" 
d="M324 501v-44h-154v-305q0 -42 15 -66.5t41 -36.5q20 -9 42 -11t57 -1v-44q-5 -1 -12 -1.5t-15 -0.5q-19 0 -40.5 2.5t-39.5 8.5q-10 3 -23 8v-48h19q45 -1 64.5 -19t19.5 -63t-20 -63.5t-67 -18.5q-61 0 -87.5 18.5t-26.5 63.5h35q0 -30 16.5 -41.5t61.5 -11.5
q31 0 42 10.5t11 42.5q0 31 -11 41.5t-41 10.5h-44v89q-25 18 -38.5 49t-13.5 81v305h-88v44h88v132h57v-132z" />
    <glyph glyph-name="Tcaron" unicode="&#x164;" horiz-adv-x="607" 
d="M277 766l-130 138h53l104 -105l104 105h53l-130 -138h-54zM335 651v-651h-62v651h-234v49h529v-49h-233z" />
    <glyph glyph-name="tcaron" unicode="&#x165;" horiz-adv-x="411" 
d="M390 626q0 -20 -6.5 -35t-22.5 -31l-44 -45l-30 29l34 34q11 11 15.5 22t4.5 27v95h50zM326 499v-44h-154v-305q0 -42 15 -66.5t41 -36.5q20 -9 42 -11t57 -1v-44q-8 -1 -18 -1.5t-22 -0.5q-25 0 -52.5 4t-48.5 15q-34 17 -53 51t-19 92v305h-88v44h88v132h57v-132z" />
    <glyph glyph-name="Tbar" unicode="&#x166;" horiz-adv-x="607" 
d="M127 869v35h353v-35h-353zM335 651v-651h-62v651h-234v49h529v-49h-233z" />
    <glyph glyph-name="tbar" unicode="&#x167;" horiz-adv-x="373" 
d="M324 500v-44h-154v-144h154v-34h-154v-127q0 -42 15 -66.5t41 -36.5q20 -9 42 -11t57 -1v-44q-8 -1 -18 -1.5t-22 -0.5q-24 0 -51 3.5t-47 14.5q-34 17 -53 51t-19 92v127h-87v34h87v144h-88v44h88v132h57v-132h152z" />
    <glyph glyph-name="Utilde" unicode="&#x168;" horiz-adv-x="720" 
d="M213 813q25 68 78 68q17 0 35 -5.5t38 -15.5q21 -11 36 -17t27 -6q14 0 24.5 9.5t24.5 32.5l28 -11q-12 -30 -29.5 -48t-43.5 -18q-15 0 -32.5 6.5t-39.5 17.5q-20 10 -35 15.5t-28 5.5q-17 0 -29 -9t-25 -33zM629 314q0 -100 -14.5 -163.5t-46.5 -99.5t-82 -49.5
t-122 -13.5t-122 13.5t-82 49.5t-46.5 99.5t-14.5 163.5v384h62v-378q0 -90 10 -145.5t33.5 -85.5t62.5 -40t97 -10t97 10t62.5 40t33.5 85.5t10 145.5v378h62v-384z" />
    <glyph glyph-name="utilde" unicode="&#x169;" 
d="M151 613q25 68 78 68q17 0 35 -5.5t38 -15.5q21 -11 36 -17t27 -6q14 0 24.5 9.5t24.5 32.5l28 -11q-12 -30 -29.5 -48t-43.5 -18q-15 0 -32.5 6.5t-39.5 17.5q-20 10 -35 15.5t-28 5.5q-17 0 -29 -9t-25 -33zM462 -3l-2 70q-17 -25 -35 -40.5t-40 -24t-48 -11.5t-58 -3
q-60 0 -99 11.5t-62 37t-32 66t-9 98.5v297h57v-297q0 -49 7 -81.5t25.5 -52t50 -28t81.5 -8.5q31 0 54.5 3t42 13t34 27.5t30.5 47.5v376h57v-500z" />
    <glyph glyph-name="Umacron" unicode="&#x16a;" horiz-adv-x="720" 
d="M184 869v35h353v-35h-353zM630 316q0 -100 -14.5 -163.5t-46.5 -99.5t-82 -49.5t-122 -13.5t-122 13.5t-82 49.5t-46.5 99.5t-14.5 163.5v384h62v-378q0 -90 10 -145.5t33.5 -85.5t62.5 -40t97 -10t97 10t62.5 40t33.5 85.5t10 145.5v378h62v-384z" />
    <glyph glyph-name="umacron" unicode="&#x16b;" 
d="M122 669v35h353v-35h-353zM462 -1l-2 70q-17 -25 -35 -40.5t-40 -24t-48 -11.5t-58 -3q-60 0 -99 11.5t-62 37t-32 66t-9 98.5v297h57v-297q0 -49 7 -81.5t25.5 -52t50 -28t81.5 -8.5q31 0 54.5 3t42 13t34 27.5t30.5 47.5v376h57v-500z" />
    <glyph glyph-name="Uring" unicode="&#x16e;" horiz-adv-x="720" 
d="M360 935q63 0 90 -24t27 -84t-27 -84t-90 -24t-90 24t-27 84t27 84t90 24zM360 905q-47 0 -64.5 -16t-17.5 -61t17.5 -61t64.5 -16t64.5 16t17.5 61t-17.5 61t-64.5 16zM630 315q0 -100 -14.5 -163.5t-46.5 -99.5t-82 -49.5t-122 -13.5t-122 13.5t-82 49.5t-46.5 99.5
t-14.5 163.5v384h62v-378q0 -90 10 -145.5t33.5 -85.5t62.5 -40t97 -10t97 10t62.5 40t33.5 85.5t10 145.5v378h62v-384z" />
    <glyph glyph-name="uring" unicode="&#x16f;" 
d="M298 735q63 0 90 -24t27 -84t-27 -84t-90 -24t-90 24t-27 84t27 84t90 24zM298 705q-47 0 -64.5 -16t-17.5 -61t17.5 -61t64.5 -16t64.5 16t17.5 61t-17.5 61t-64.5 16zM462 -1l-2 70q-17 -25 -35 -40.5t-40 -24t-48 -11.5t-58 -3q-60 0 -99 11.5t-62 37t-32 66t-9 98.5
v297h57v-297q0 -49 7 -81.5t25.5 -52t50 -28t81.5 -8.5q31 0 54.5 3t42 13t34 27.5t30.5 47.5v376h57v-500z" />
    <glyph glyph-name="Uhungarumlaut" unicode="&#x170;" horiz-adv-x="720" 
d="M187 766l129 138h60l-138 -138h-51zM353 766l129 138h60l-138 -138h-51zM628 316q0 -100 -14.5 -163.5t-46.5 -99.5t-82 -49.5t-122 -13.5t-122 13.5t-82 49.5t-46.5 99.5t-14.5 163.5v384h62v-378q0 -90 10 -145.5t33.5 -85.5t62.5 -40t97 -10t97 10t62.5 40t33.5 85.5
t10 145.5v378h62v-384z" />
    <glyph glyph-name="uhungarumlaut" unicode="&#x171;" 
d="M125 566l129 138h60l-138 -138h-51zM291 566l129 138h60l-138 -138h-51zM460 -1l-2 70q-17 -25 -35 -40.5t-40 -24t-48 -11.5t-58 -3q-60 0 -99 11.5t-62 37t-32 66t-9 98.5v297h57v-297q0 -49 7 -81.5t25.5 -52t50 -28t81.5 -8.5q31 0 54.5 3t42 13t34 27.5t30.5 47.5
v376h57v-500z" />
    <glyph glyph-name="Uogonek" unicode="&#x172;" horiz-adv-x="720" 
d="M629 315q0 -77 -8.5 -132t-26.5 -91.5t-46.5 -57.5t-68.5 -31q-35 -26 -51 -54t-16 -53q0 -31 21.5 -53t66.5 -22q19 0 45 6l7 -29q-30 -9 -55 -9q-29 0 -51.5 9t-38 23.5t-24 34t-8.5 40.5q0 24 11 49t34 48q-32 -3 -63 -3q-70 1 -119 15t-80 50t-45 99t-14 162v384h62
v-378q0 -90 10 -145.5t33.5 -85.5t62.5 -40t97 -10t97 10t62.5 40t33.5 85.5t10 145.5v378h62v-385z" />
    <glyph glyph-name="uogonek" unicode="&#x173;" 
d="M502 -2q-35 -26 -51 -54t-16 -52q0 -32 21.5 -54t65.5 -22q20 0 46 6l7 -30q-30 -9 -55 -9q-29 0 -51.5 9t-38 23.5t-24 34t-8.5 40.5q0 29 15.5 59t48.5 56l-2 64q-17 -25 -35 -40.5t-40 -24t-48 -11.5t-58 -3q-60 0 -99 11.5t-62 37t-32 66t-9 98.5v297h57v-297
q0 -49 7 -81.5t25.5 -52t50 -28t81.5 -8.5q31 0 54.5 3t42 13t34 27.5t30.5 47.5v376h57v-500z" />
    <glyph glyph-name="Wcircumflex" unicode="&#x174;" horiz-adv-x="936" 
d="M572 766l-104 105l-104 -105h-53l130 138h54l130 -138h-53zM629 0l-162 607l-162 -607h-67l-196 700h62l167 -621l165 621h63l165 -621l167 621h62l-196 -700h-68z" />
    <glyph glyph-name="wcircumflex" unicode="&#x175;" horiz-adv-x="773" 
d="M491 566l-104 105l-104 -105h-53l130 138h54l130 -138h-53zM510 0l-126 434l-126 -434h-69l-166 500h58l144 -445l130 445h60l130 -445l144 445h58l-166 -500h-71z" />
    <glyph glyph-name="Ycircumflex" unicode="&#x176;" horiz-adv-x="654" 
d="M430 766l-104 105l-104 -105h-53l130 138h54l130 -138h-53zM357 1h-62v300l-257 400h70l218 -345l218 345h70l-257 -401v-299z" />
    <glyph glyph-name="ycircumflex" unicode="&#x177;" horiz-adv-x="533" 
d="M371 566l-104 105l-104 -105h-53l130 138h54l130 -138h-53zM160 -200l82 200h-9l-210 500h59l183 -438l183 438h59l-293 -700h-54z" />
    <glyph glyph-name="Ydieresis" unicode="&#x178;" horiz-adv-x="654" 
d="M187 811v45h54v-45h-54zM412 811v45h54v-45h-54zM359 1h-62v300l-257 400h70l218 -345l218 345h70l-257 -401v-299z" />
    <glyph glyph-name="Zacute" unicode="&#x179;" horiz-adv-x="607" 
d="M206 766l129 138h60l-138 -138h-51zM113 49h443v-49h-513v49l436 602h-415v49h484v-49z" />
    <glyph glyph-name="zacute" unicode="&#x17a;" horiz-adv-x="502" 
d="M152 566l129 138h60l-138 -138h-51zM112 43h342v-44h-420v44l336 413h-318v44h396v-44z" />
    <glyph glyph-name="Zdotaccent" unicode="&#x17b;" horiz-adv-x="607" 
d="M278 811v45h54v-45h-54zM113 49h444v-49h-513v49l436 602h-415v49h484v-49z" />
    <glyph glyph-name="zdotaccent" unicode="&#x17c;" horiz-adv-x="502" 
d="M224 611v45h54v-45h-54zM113 43h342v-44h-420v44l336 413h-318v44h396v-44z" />
    <glyph glyph-name="Zcaron" unicode="&#x17d;" horiz-adv-x="607" 
d="M277 766l-130 138h53l104 -105l104 105h53l-130 -138h-54zM113 49h443v-49h-513v49l436 602h-415v49h484v-49z" />
    <glyph glyph-name="zcaron" unicode="&#x17e;" horiz-adv-x="502" 
d="M223 566l-130 138h53l104 -105l104 105h53l-130 -138h-54zM113 43h342v-44h-420v44l336 413h-318v44h396v-44z" />
    <glyph glyph-name="florin" unicode="&#x192;" horiz-adv-x="384" 
d="M129 583q0 45 14.5 75t40.5 48.5t61 26t76 7.5q11 0 21 -0.5t20 -1.5v-41q-9 1 -17 1.5t-16 0.5q-68 0 -105 -26t-37 -91v-157h152v-44h-152v-414q0 -38 -10.5 -65.5t-29.5 -46.5q-37 -39 -102 -45v46q20 5 36.5 13.5t27.5 22.5q20 26 20 75v414h-83v44h83v158z" />
    <glyph glyph-name="uni01CD" unicode="&#x1cd;" horiz-adv-x="699" 
d="M322 766l-130 138h53l104 -105l104 105h53l-130 -138h-54zM595 0l-78 198h-335l-78 -198h-65l277 700h66l277 -700h-64zM500 245l-151 383l-151 -383h302z" />
    <glyph glyph-name="uni01CE" unicode="&#x1ce;" horiz-adv-x="582" 
d="M264 566l-130 138h53l104 -105l104 105h53l-130 -138h-54zM76 357q0 42 15 71.5t43 47.5t66 26.5t85 8.5q49 0 89 -8.5t68.5 -27.5t44 -48.5t15.5 -72.5v-353h-53l-2 67q-26 -42 -73.5 -60.5t-121.5 -18.5q-46 0 -83.5 8t-63.5 27t-40.5 48.5t-14.5 73.5q0 43 14.5 73.5
t40.5 50t62 28t79 8.5h200v50q0 64 -43.5 90t-117.5 26q-71 0 -112.5 -26t-41.5 -90zM267 274q-73 0 -115.5 -27.5t-42.5 -94.5q0 -68 42.5 -94.5t121.5 -26.5q72 0 113 18.5t59 66.5v158h-178z" />
    <glyph glyph-name="uni01CF" unicode="&#x1cf;" horiz-adv-x="260" 
d="M104 766l-130 138h52l104 -105l104 105h53l-130 -138h-53zM100 0v700h62v-700h-62z" />
    <glyph glyph-name="uni01D0" unicode="&#x1d0;" horiz-adv-x="227" 
d="M89 566l-129 138h52l104 -105l104 105h53l-130 -138h-54zM88 0v500h57v-500h-57z" />
    <glyph glyph-name="uni01D1" unicode="&#x1d1;" horiz-adv-x="729" 
d="M337 766l-130 138h53l104 -105l104 105h53l-130 -138h-54zM364 709q79 0 133.5 -18.5t89 -60.5t50 -111t15.5 -169q0 -101 -15.5 -169.5t-50 -111t-89 -61t-133.5 -18.5t-133.5 18.5t-89 61t-50 111t-15.5 169.5q0 100 15.5 169t50 111t89 60.5t133.5 18.5zM364 659
q-63 0 -106 -14t-69.5 -49.5t-38 -95t-11.5 -150.5t11.5 -150.5t38 -95t69.5 -49.5t106 -14t106 14t69.5 49.5t38 95t11.5 150.5t-11.5 150.5t-38 95t-69.5 49.5t-106 14z" />
    <glyph glyph-name="uni01D2" unicode="&#x1d2;" horiz-adv-x="580" 
d="M263 568l-130 138h53l104 -105l104 105h53l-130 -138h-54zM290 510q64 0 108.5 -14t72.5 -44.5t41 -80t13 -121.5t-13 -121.5t-41 -80t-72.5 -44.5t-108.5 -14t-108.5 14t-72.5 44.5t-41 80t-13 121.5t13 121.5t41 80t72.5 44.5t108.5 14zM290 469q-50 0 -84 -10t-55 -35
t-30 -67t-9 -106t9 -106t30 -67t55 -35t84 -10q49 0 83 10t55 35t30.5 67t9.5 106t-9.5 106t-30.5 67t-55 35t-83 10z" />
    <glyph glyph-name="uni01D3" unicode="&#x1d3;" horiz-adv-x="720" 
d="M333 766l-130 138h53l104 -105l104 105h53l-130 -138h-54zM629 316q0 -100 -14.5 -163.5t-46.5 -99.5t-82 -49.5t-122 -13.5t-122 13.5t-82 49.5t-46.5 99.5t-14.5 163.5v384h62v-378q0 -90 10 -145.5t33.5 -85.5t62.5 -40t97 -10t97 10t62.5 40t33.5 85.5t10 145.5v378
h62v-384z" />
    <glyph glyph-name="uni01D4" unicode="&#x1d4;" 
d="M271 566l-130 138h53l104 -105l104 105h53l-130 -138h-54zM462 -1l-2 70q-17 -25 -35 -40.5t-40 -24t-48 -11.5t-58 -3q-60 0 -99 11.5t-62 37t-32 66t-9 98.5v297h57v-297q0 -49 7 -81.5t25.5 -52t50 -28t81.5 -8.5q31 0 54.5 3t42 13t34 27.5t30.5 47.5v376h57v-500z
" />
    <glyph glyph-name="uni01D5" unicode="&#x1d5;" horiz-adv-x="720" 
d="M184 904v35h353v-35h-353zM221 796v45h54v-45h-54zM446 796v45h54v-45h-54zM630 316q0 -100 -14.5 -163.5t-46.5 -99.5t-82 -49.5t-122 -13.5t-122 13.5t-82 49.5t-46.5 99.5t-14.5 163.5v384h62v-378q0 -90 10 -145.5t33.5 -85.5t62.5 -40t97 -10t97 10t62.5 40
t33.5 85.5t10 145.5v378h62v-384z" />
    <glyph glyph-name="uni01D6" unicode="&#x1d6;" 
d="M122 717v35h353v-35h-353zM159 611v45h54v-45h-54zM384 611v45h54v-45h-54zM462 -1l-2 70q-17 -25 -35 -40.5t-40 -24t-48 -11.5t-58 -3q-60 0 -99 11.5t-62 37t-32 66t-9 98.5v297h57v-297q0 -49 7 -81.5t25.5 -52t50 -28t81.5 -8.5q31 0 54.5 3t42 13t34 27.5
t30.5 47.5v376h57v-500z" />
    <glyph glyph-name="uni01D7" unicode="&#x1d7;" horiz-adv-x="720" 
d="M262 904l129 138h60l-138 -138h-51zM221 793v45h54v-45h-54zM446 793v45h54v-45h-54zM630 316q0 -100 -14.5 -163.5t-46.5 -99.5t-82 -49.5t-122 -13.5t-122 13.5t-82 49.5t-46.5 99.5t-14.5 163.5v384h62v-378q0 -90 10 -145.5t33.5 -85.5t62.5 -40t97 -10t97 10
t62.5 40t33.5 85.5t10 145.5v378h62v-384z" />
    <glyph glyph-name="uni01D8" unicode="&#x1d8;" 
d="M200 704l129 138h60l-138 -138h-51zM159 611v45h54v-45h-54zM384 611v45h54v-45h-54zM462 -1l-2 70q-17 -25 -35 -40.5t-40 -24t-48 -11.5t-58 -3q-60 0 -99 11.5t-62 37t-32 66t-9 98.5v297h57v-297q0 -49 7 -81.5t25.5 -52t50 -28t81.5 -8.5q31 0 54.5 3t42 13t34 27.5
t30.5 47.5v376h57v-500z" />
    <glyph glyph-name="uni01D9" unicode="&#x1d9;" horiz-adv-x="720" 
d="M333 904l-130 138h53l104 -105l104 105h53l-130 -138h-54zM221 796v45h54v-45h-54zM446 796v45h54v-45h-54zM630 316q0 -100 -14.5 -163.5t-46.5 -99.5t-82 -49.5t-122 -13.5t-122 13.5t-82 49.5t-46.5 99.5t-14.5 163.5v384h62v-378q0 -90 10 -145.5t33.5 -85.5
t62.5 -40t97 -10t97 10t62.5 40t33.5 85.5t10 145.5v378h62v-384z" />
    <glyph glyph-name="uni01DA" unicode="&#x1da;" 
d="M271 704l-130 138h53l104 -105l104 105h53l-130 -138h-54zM159 611v45h54v-45h-54zM384 611v45h54v-45h-54zM462 -1l-2 70q-17 -25 -35 -40.5t-40 -24t-48 -11.5t-58 -3q-60 0 -99 11.5t-62 37t-32 66t-9 98.5v297h57v-297q0 -49 7 -81.5t25.5 -52t50 -28t81.5 -8.5
q31 0 54.5 3t42 13t34 27.5t30.5 47.5v376h57v-500z" />
    <glyph glyph-name="uni01DB" unicode="&#x1db;" horiz-adv-x="720" 
d="M400 904l-138 138h60l129 -138h-51zM220 796v45h54v-45h-54zM445 796v45h54v-45h-54zM629 316q0 -100 -14.5 -163.5t-46.5 -99.5t-82 -49.5t-122 -13.5t-122 13.5t-82 49.5t-46.5 99.5t-14.5 163.5v384h62v-378q0 -90 10 -145.5t33.5 -85.5t62.5 -40t97 -10t97 10
t62.5 40t33.5 85.5t10 145.5v378h62v-384z" />
    <glyph glyph-name="uni01DC" unicode="&#x1dc;" 
d="M338 702l-138 138h60l129 -138h-51zM158 611v45h54v-45h-54zM383 611v45h54v-45h-54zM461 -1l-2 70q-17 -25 -35 -40.5t-40 -24t-48 -11.5t-58 -3q-60 0 -99 11.5t-62 37t-32 66t-9 98.5v297h57v-297q0 -49 7 -81.5t25.5 -52t50 -28t81.5 -8.5q31 0 54.5 3t42 13t34 27.5
t30.5 47.5v376h57v-500z" />
    <glyph glyph-name="uni01DE" unicode="&#x1de;" horiz-adv-x="699" 
d="M173 902v35h353v-35h-353zM210 794v45h54v-45h-54zM435 794v45h54v-45h-54zM596 0l-78 198h-335l-78 -198h-65l277 700h66l277 -700h-64zM501 245l-151 383l-151 -383h302z" />
    <glyph glyph-name="uni01DF" unicode="&#x1df;" horiz-adv-x="582" 
d="M115 717v35h353v-35h-353zM152 611v45h54v-45h-54zM377 611v45h54v-45h-54zM77 356q0 42 15 71.5t43 47.5t66 26.5t85 8.5q49 0 89 -8.5t68.5 -27.5t44 -48.5t15.5 -72.5v-353h-53l-2 67q-26 -42 -73.5 -60.5t-121.5 -18.5q-46 0 -83.5 8t-63.5 27t-40.5 48.5t-14.5 73.5
q0 43 14.5 73.5t40.5 50t62 28t79 8.5h200v50q0 64 -43.5 90t-117.5 26q-71 0 -112.5 -26t-41.5 -90zM268 273q-73 0 -115.5 -27.5t-42.5 -94.5q0 -68 42.5 -94.5t121.5 -26.5q72 0 113 18.5t59 66.5v158h-178z" />
    <glyph glyph-name="Gcaron" unicode="&#x1e6;" horiz-adv-x="726" 
d="M337 766l-130 138h53l104 -105l104 105h53l-130 -138h-54zM588 79q-34 -49 -90.5 -70t-141.5 -21q-77 0 -130.5 18.5t-87 61t-48.5 111t-15 169.5q0 100 15 169t48.5 111t87 60.5t130.5 18.5q60 0 109 -11t84 -36t55 -64.5t22 -96.5h-61q-1 45 -16 75.5t-42 48.5t-65 26
t-85 8q-62 0 -104 -14t-67.5 -49.5t-37 -95t-11.5 -150.5t11.5 -150.5t37 -94.5t67.5 -49t104 -14q86 0 138.5 23t78.5 83v166h-209v46h270v-366h-43z" />
    <glyph glyph-name="gcaron" unicode="&#x1e7;" 
d="M273 566l-130 138h53l104 -105l104 105h53l-130 -138h-54zM454 74q-26 -40 -70.5 -57.5t-110.5 -17.5q-59 0 -100.5 13.5t-67.5 43.5t-38 77.5t-12 115.5q0 72 12 121.5t38 80t67.5 44.5t100.5 14q66 0 110.5 -17.5t70.5 -57.5v67h57v-547q0 -43 -16.5 -73t-46.5 -48.5
t-71 -27t-89 -8.5q-45 0 -83 8t-66.5 25.5t-45 45.5t-19.5 68h56q4 -60 46.5 -83.5t111.5 -23.5q76 0 121 26.5t45 90.5v120zM454 383q-18 47 -56.5 65.5t-103.5 18.5q-50 0 -84 -10.5t-55.5 -36t-31 -67.5t-9.5 -105q0 -59 9.5 -99.5t31 -65t55.5 -35t84 -10.5
q65 0 103.5 18.5t56.5 65.5v261z" />
    <glyph glyph-name="Oslashacute" unicode="&#x1fe;" horiz-adv-x="729" 
d="M269 766l129 138h60l-138 -138h-51zM517 684q73 -32 104.5 -111.5t31.5 -221.5q0 -101 -15.5 -169.5t-50 -111t-89 -61t-133.5 -18.5q-62 0 -110 12l-20 -51h-49l25 66q-73 32 -104.5 111.5t-31.5 221.5q0 100 15.5 169t50 111t89 60.5t133.5 18.5q61 0 109 -12l20 52h49
zM455 649q-37 10 -91 10q-63 0 -106 -14t-69.5 -49.5t-38 -95t-11.5 -150.5q0 -122 21.5 -188.5t71.5 -94.5zM274 51q37 -10 91 -10q63 0 106 14t69.5 49.5t38 95t11.5 150.5q0 122 -21.5 188.5t-71.5 94.5z" />
    <glyph glyph-name="oslashacute" unicode="&#x1ff;" horiz-adv-x="580" 
d="M191 566l129 138h60l-138 -138h-51zM406 491q63 -23 90 -80.5t27 -161.5q0 -72 -13 -121.5t-41 -80t-72.5 -44.5t-108.5 -14q-40 0 -73 6l-17 -45h-49l22 57q-63 23 -90 81t-27 162q0 72 13 121.5t41 80t72.5 44.5t108.5 14q40 0 73 -6l18 46h49zM347 462q-23 4 -58 4
q-50 0 -84 -10t-55 -35t-30 -67t-9 -106q0 -88 17 -134.5t59 -66.5zM231 34q23 -4 58 -4q49 0 83 10t55 35t30.5 67t9.5 106q0 88 -17 134.5t-59 66.5z" />
    <glyph glyph-name="uni0218" unicode="&#x218;" horiz-adv-x="646" 
d="M271 339q-46 4 -84 13.5t-65.5 28t-42.5 49t-15 77.5q0 57 18.5 95.5t52 62t80.5 34t104 10.5q59 0 108 -10.5t84 -34t54.5 -61.5t19.5 -94h-61q0 43 -14.5 72.5t-41 47.5t-64.5 26t-84 8q-44 0 -80 -8t-61.5 -26t-39.5 -47.5t-14 -72.5q0 -33 11 -54.5t31.5 -35
t49.5 -20.5t65 -10l112 -10q43 -4 79.5 -13.5t63.5 -29.5t42.5 -52t15.5 -80q0 -59 -20.5 -99.5t-56.5 -66t-86 -37t-108 -11.5q-60 0 -111.5 11.5t-89 36.5t-59 65t-21.5 98h64q0 -45 16 -76t44.5 -50.5t68.5 -28t88 -8.5q46 0 84.5 8.5t66 28t42.5 50.5t15 76
q0 35 -11 58.5t-31.5 38t-48.5 21.5t-62 10zM375 -139q0 -20 -6.5 -35t-22.5 -31l-44 -45l-30 29l34 34q11 11 15.5 21.5t4.5 26.5v95h50z" />
    <glyph glyph-name="uni0219" unicode="&#x219;" horiz-adv-x="541" 
d="M225 241q-38 3 -69 10t-53.5 20.5t-34.5 35.5t-12 55q0 40 15 68t42.5 45.5t65.5 25t85 7.5q48 0 88 -7.5t68.5 -25t44.5 -45t16 -67.5h-53q0 60 -43.5 84.5t-118.5 24.5q-72 0 -114 -24.5t-42 -84.5q0 -45 33.5 -62t91.5 -22l90 -7q35 -3 65 -10t52.5 -21.5t35 -38
t12.5 -58.5q0 -43 -17 -72.5t-46.5 -48t-70 -27t-88.5 -8.5q-49 0 -91 8.5t-73 26.5t-48.5 47.5t-17.5 71.5h56q0 -32 12.5 -54.5t36 -36.5t55.5 -20t71 -6q37 0 68 6t53.5 20t34.5 36.5t12 54.5q0 25 -9 42t-25 27.5t-39 16t-50 7.5zM323 -141q0 -20 -6.5 -35t-22.5 -31
l-44 -45l-30 29l34 34q11 11 15.5 21.5t4.5 26.5v95h50z" />
    <glyph glyph-name="uni021A" unicode="&#x21a;" horiz-adv-x="607" 
d="M335 651v-651h-62v651h-234v49h529v-49h-233zM355 -139q0 -20 -6.5 -35t-22.5 -31l-44 -45l-30 29l34 34q11 11 15.5 21.5t4.5 26.5v95h50z" />
    <glyph glyph-name="uni021B" unicode="&#x21b;" horiz-adv-x="373" 
d="M325 500v-44h-154v-305q0 -42 15 -66.5t41 -36.5q20 -9 42 -11t57 -1v-44q-8 -1 -18.5 -1.5t-21.5 -0.5q-25 0 -52.5 4t-48.5 15q-33 17 -51.5 51t-18.5 91v305h-88v44h88v132h57v-132h153zM236 -139q0 -20 -6.5 -35t-22.5 -31l-44 -45l-30 29l34 34q11 11 15.5 21.5
t4.5 26.5v95h50z" />
    <glyph glyph-name="uni0228" unicode="&#x228;" horiz-adv-x="601" 
d="M161 651v-266h375v-49h-375v-287h387v-49h-244v-35h19q45 -1 64.5 -19t19.5 -62q0 -45 -20 -64t-67 -19q-61 0 -87.5 18.5t-26.5 63.5h35q0 -30 16.5 -41.5t61.5 -11.5q31 0 42 10.5t11 42.5q0 31 -11 42t-41 11h-44v64h-177v700h446v-49h-384z" />
    <glyph glyph-name="uni0229" unicode="&#x229;" horiz-adv-x="561" 
d="M251 -8q-53 3 -90 18.5t-60.5 46t-34.5 78t-11 114.5q0 72 12.5 121.5t39.5 80t70.5 44.5t105.5 14t105.5 -14t70.5 -44.5t39.5 -80t12.5 -121.5l-1 -24h-398q1 -57 11 -94.5t30.5 -60t52.5 -31.5t77 -9q73 0 117 25.5t46 89.5h56q-5 -83 -61 -118t-151 -36l-11 -1v-28
h19q45 0 64.5 -18t19.5 -63t-20 -63.5t-67 -18.5q-61 0 -87.5 18.5t-26.5 63.5h35q0 -31 16.5 -42.5t61.5 -11.5q31 0 42 11t11 43q0 31 -11 41.5t-41 10.5h-44v59zM454 266q-1 58 -10 97.5t-29.5 62.5t-52.5 33t-78 10t-78.5 -9.5t-52.5 -33t-29.5 -62t-10.5 -96.5v-6h341
v4z" />
    <glyph glyph-name="circumflex" unicode="&#x2c6;" horiz-adv-x="401" 
d="M304 566l-104 105l-104 -105h-53l130 138h54l130 -138h-53z" />
    <glyph glyph-name="caron" unicode="&#x2c7;" horiz-adv-x="401" 
d="M173 566l-130 138h53l104 -105l104 105h53l-130 -138h-54z" />
    <glyph glyph-name="breve" unicode="&#x2d8;" horiz-adv-x="374" 
d="M331 689q-1 -61 -34.5 -86t-108.5 -25q-74 0 -107.5 24t-35.5 83v18h38v-13q1 -47 24 -64t80 -17q58 0 80.5 17.5t23.5 64.5v12h38z" />
    <glyph glyph-name="dotaccent" unicode="&#x2d9;" horiz-adv-x="141" 
d="M44 611v45h54v-45h-54z" />
    <glyph glyph-name="ring" unicode="&#x2da;" horiz-adv-x="329" 
d="M165 735q63 0 90 -24t27 -84t-27 -84t-90 -24t-90 24t-27 84t27 84t90 24zM165 705q-47 0 -64.5 -16t-17.5 -61t17.5 -61t64.5 -16t64.5 16t17.5 61t-17.5 61t-64.5 16z" />
    <glyph glyph-name="ogonek" unicode="&#x2db;" horiz-adv-x="265" 
d="M150 -1q-37 -26 -53.5 -54t-16.5 -53q0 -32 21.5 -54t65.5 -22q20 0 46 6l7 -30q-30 -9 -55 -9q-29 0 -51 9t-38 24t-24 34.5t-8 40.5q0 33 20 67t65 63z" />
    <glyph glyph-name="tilde" unicode="&#x2dc;" horiz-adv-x="379" 
d="M44 613q25 68 78 68q17 0 35 -5.5t38 -15.5q21 -11 36 -17t27 -6q14 0 24.5 9.5t24.5 32.5l28 -11q-12 -30 -29.5 -48t-43.5 -18q-15 0 -32.5 6.5t-39.5 17.5q-20 10 -35 15.5t-28 5.5q-17 0 -29 -9t-25 -33z" />
    <glyph glyph-name="hungarumlaut" unicode="&#x2dd;" horiz-adv-x="443" 
d="M43 566l129 138h60l-138 -138h-51zM209 566l129 138h60l-138 -138h-51z" />
    <glyph glyph-name="dotbelowcomb" unicode="&#x323;" horiz-adv-x="0" 
d="M44 -137v45h54v-45h-54z" />
    <glyph glyph-name="uni0326" unicode="&#x326;" horiz-adv-x="0" 
d="M146 -139q0 -20 -6.5 -35t-22.5 -31l-44 -45l-30 29l34 34q11 11 15.5 21.5t4.5 26.5v95h50z" />
    <glyph glyph-name="uni032D" unicode="&#x32d;" horiz-adv-x="0" 
d="M304 -187l-104 104l-104 -104h-53l130 137h54l130 -137h-53z" />
    <glyph glyph-name="uni0331" unicode="&#x331;" horiz-adv-x="0" 
d="M44 -167v35h353v-35h-353z" />
    <glyph glyph-name="uni0394" unicode="&#x394;" horiz-adv-x="600" 
 />
    <glyph glyph-name="uni03A9" unicode="&#x3a9;" horiz-adv-x="600" 
 />
    <glyph glyph-name="uni03BC" unicode="&#x3bc;" horiz-adv-x="600" 
 />
    <glyph glyph-name="pi" unicode="&#x3c0;" horiz-adv-x="600" 
 />
    <glyph glyph-name="uni1E04" unicode="&#x1e04;" horiz-adv-x="667" 
d="M359 699q64 0 108 -10t71 -31t39 -54.5t12 -80.5q0 -69 -25.5 -107.5t-88.5 -54.5q73 -15 102.5 -56.5t29.5 -117.5q0 -50 -12.5 -85.5t-41.5 -58t-76 -33t-115 -10.5h-263v700zM162 383h189q51 0 85 7t54.5 22.5t28.5 41t8 62.5t-8 62.5t-28.5 41t-54.5 22.5t-85 7h-189
v-266zM162 50h193q55 0 92 7.5t59 24.5t31 44.5t9 67.5t-9 67.5t-31 44.5t-59 24.5t-92 7.5h-193v-288zM297 -137v45h54v-45h-54z" />
    <glyph glyph-name="uni1E05" unicode="&#x1e05;" 
d="M140 436q26 40 70.5 57.5t110.5 17.5q59 0 100.5 -14t67.5 -44.5t38 -80t12 -121.5t-12 -121.5t-38 -80t-67.5 -44.5t-100.5 -14q-66 0 -110.5 17.5t-70.5 57.5v-66h-57v738h57v-302zM140 120q18 -48 56.5 -66.5t104.5 -18.5q49 0 83.5 10.5t56 35.5t31 67t9.5 104
t-9.5 104t-31 67.5t-56 36t-83.5 10.5q-66 0 -104.5 -18.5t-56.5 -66.5v-265zM268 -134v45h54v-45h-54z" />
    <glyph glyph-name="uni1E0C" unicode="&#x1e0c;" horiz-adv-x="704" 
d="M339 700q78 0 133 -17t89 -57.5t49.5 -107.5t15.5 -168t-15.5 -168t-49.5 -107.5t-89 -57.5t-133 -17h-240v700h240zM161 52h178q64 0 107 12.5t69.5 46t38 91.5t11.5 149t-11.5 149t-38 91.5t-69.5 46t-107 12.5h-178v-598zM310 -135v45h54v-45h-54z" />
    <glyph glyph-name="uni1E0D" unicode="&#x1e0d;" 
d="M454 -1v66q-26 -40 -70.5 -57.5t-110.5 -17.5q-59 0 -100.5 14t-67.5 44.5t-38 80t-12 121.5t12 121.5t38 80t67.5 44.5t100.5 14q66 0 110.5 -17.5t70.5 -57.5v303h57v-738zM454 381q-18 48 -56.5 66.5t-104.5 18.5q-50 0 -84 -10.5t-55.5 -36t-31 -67.5t-9.5 -104
t9.5 -104t31 -67t55.5 -35.5t84 -10.5q66 0 104.5 18.5t56.5 66.5v265zM279 -139v45h54v-45h-54z" />
    <glyph glyph-name="uni1E0E" unicode="&#x1e0e;" horiz-adv-x="704" 
d="M339 700q78 0 133 -17t89 -57.5t49.5 -107.5t15.5 -168t-15.5 -168t-49.5 -107.5t-89 -57.5t-133 -17h-240v700h240zM161 52h178q64 0 107 12.5t69.5 46t38 91.5t11.5 149t-11.5 149t-38 91.5t-69.5 46t-107 12.5h-178v-598zM161 -165v35h353v-35h-353z" />
    <glyph glyph-name="uni1E0F" unicode="&#x1e0f;" 
d="M454 -1v66q-26 -40 -70.5 -57.5t-110.5 -17.5q-59 0 -100.5 14t-67.5 44.5t-38 80t-12 121.5t12 121.5t38 80t67.5 44.5t100.5 14q66 0 110.5 -17.5t70.5 -57.5v303h57v-738zM454 381q-18 48 -56.5 66.5t-104.5 18.5q-50 0 -84 -10.5t-55.5 -36t-31 -67.5t-9.5 -104
t9.5 -104t31 -67t55.5 -35.5t84 -10.5q66 0 104.5 18.5t56.5 66.5v265zM129 -169v35h353v-35h-353z" />
    <glyph glyph-name="uni1E12" unicode="&#x1e12;" horiz-adv-x="704" 
d="M339 700q78 0 133 -17t89 -57.5t49.5 -107.5t15.5 -168t-15.5 -168t-49.5 -107.5t-89 -57.5t-133 -17h-240v700h240zM161 52h178q64 0 107 12.5t69.5 46t38 91.5t11.5 149t-11.5 149t-38 91.5t-69.5 46t-107 12.5h-178v-598zM441 -185l-104 104l-104 -104h-53l130 137h54
l130 -137h-53z" />
    <glyph glyph-name="uni1E13" unicode="&#x1e13;" 
d="M454 -1v66q-26 -40 -70.5 -57.5t-110.5 -17.5q-59 0 -100.5 14t-67.5 44.5t-38 80t-12 121.5t12 121.5t38 80t67.5 44.5t100.5 14q66 0 110.5 -17.5t70.5 -57.5v303h57v-738zM454 381q-18 48 -56.5 66.5t-104.5 18.5q-50 0 -84 -10.5t-55.5 -36t-31 -67.5t-9.5 -104
t9.5 -104t31 -67t55.5 -35.5t84 -10.5q66 0 104.5 18.5t56.5 66.5v265zM409 -189l-104 104l-104 -104h-53l130 137h54l130 -137h-53z" />
    <glyph glyph-name="uni1E24" unicode="&#x1e24;" horiz-adv-x="715" 
d="M554 0v325h-392v-325h-62v700h62v-325h392v325h62v-700h-62zM330 -137v45h54v-45h-54z" />
    <glyph glyph-name="uni1E25" unicode="&#x1e25;" horiz-adv-x="602" 
d="M145 431q16 25 34.5 40.5t40 24.5t47.5 12t58 3q59 0 98 -11.5t61.5 -37t31.5 -66t9 -98.5v-297h-57v295q0 48 -7 80.5t-25 52t-49.5 28t-80.5 8.5q-31 0 -54.5 -3t-42 -13t-34 -27.5t-30.5 -47.5v-374h-57v737h57v-306zM277 -136v45h54v-45h-54z" />
    <glyph glyph-name="uni1E2E" unicode="&#x1e2e;" horiz-adv-x="260" 
d="M32 902l129 138h60l-138 -138h-51zM-11 794v45h55v-45h-55zM214 794v45h54v-45h-54zM97 0v700h62v-700h-62z" />
    <glyph glyph-name="uni1E2F" unicode="&#x1e2f;" horiz-adv-x="227" 
d="M19 704l128 138h60l-138 -138h-50zM-24 611v45h55v-45h-55zM202 611v45h54v-45h-54zM88 0v500h57v-500h-57z" />
    <glyph glyph-name="uni1E36" unicode="&#x1e36;" horiz-adv-x="566" 
d="M527 49v-49h-428v700h62v-651h366zM260 -137v45h54v-45h-54z" />
    <glyph glyph-name="uni1E37" unicode="&#x1e37;" horiz-adv-x="222" 
d="M88 0v737h57v-737h-57zM86 -137v45h54v-45h-54z" />
    <glyph glyph-name="uni1E3C" unicode="&#x1e3c;" horiz-adv-x="566" 
d="M527 49v-49h-428v700h62v-651h366zM390 -187l-104 104l-104 -104h-53l130 137h54l130 -137h-53z" />
    <glyph glyph-name="uni1E3D" unicode="&#x1e3d;" horiz-adv-x="222" 
d="M88 0v737h57v-737h-57zM216 -187l-104 104l-104 -104h-53l130 137h54l130 -137h-53z" />
    <glyph glyph-name="uni1E3E" unicode="&#x1e3e;" horiz-adv-x="877" 
d="M333 766l129 138h60l-138 -138h-51zM717 0v627l-252 -627h-64l-252 627v-627h-60v700h93l251 -619l251 619h93v-700h-60z" />
    <glyph glyph-name="uni1E3F" unicode="&#x1e3f;" horiz-adv-x="917" 
d="M357 566l129 138h60l-138 -138h-51zM137 429q16 26 33.5 42t37 24.5t43 11t52.5 2.5q72 0 112 -20t57 -66q17 28 35 44.5t39 25.5t46 12t56 3q57 0 93.5 -11.5t58.5 -37t30.5 -66t8.5 -98.5v-297h-57v296q0 49 -6.5 81.5t-24 52t-47 28t-75.5 8.5q-29 0 -50 -2.5
t-37.5 -11t-30.5 -25.5t-29 -45q7 -34 7 -89v-292h-57v296q0 49 -6.5 81.5t-23 52t-45 28t-72.5 8.5q-28 0 -49 -2.5t-37.5 -12t-30.5 -27.5t-29 -49v-374h-57v500h53z" />
    <glyph glyph-name="uni1E44" unicode="&#x1e44;" horiz-adv-x="695" 
d="M318 811v45h54v-45h-54zM544 700h61v-700h-69l-384 603v-603h-61v700h70l384 -602z" />
    <glyph glyph-name="uni1E45" unicode="&#x1e45;" horiz-adv-x="599" 
d="M274 611v45h54v-45h-54zM139 431q16 25 34.5 40.5t40.5 24t48 11.5t58 3q60 0 99 -11.5t62 -37t32 -66t9 -98.5v-297h-57v297q0 49 -7 81.5t-25.5 52t-50.5 28t-81 8.5q-31 0 -54.5 -3t-42 -13t-34 -27.5t-30.5 -47.5v-376h-57v500h53z" />
    <glyph glyph-name="uni1E46" unicode="&#x1e46;" horiz-adv-x="695" 
d="M543 700h61v-700h-69l-384 603v-603h-61v700h70l384 -602zM316 -137v45h54v-45h-54z" />
    <glyph glyph-name="uni1E47" unicode="&#x1e47;" horiz-adv-x="599" 
d="M139 431q16 25 34.5 40.5t40.5 24t48 11.5t58 3q60 0 99 -11.5t62 -37t32 -66t9 -98.5v-297h-57v297q0 49 -7 81.5t-25.5 52t-50.5 28t-81 8.5q-31 0 -54.5 -3t-42 -13t-34 -27.5t-30.5 -47.5v-376h-57v500h53zM275 -136v45h54v-45h-54z" />
    <glyph glyph-name="uni1E4A" unicode="&#x1e4a;" horiz-adv-x="695" 
d="M543 700h61v-700h-69l-384 603v-603h-61v700h70l384 -602zM446 -187l-104 104l-104 -104h-53l130 137h54l130 -137h-53z" />
    <glyph glyph-name="uni1E4B" unicode="&#x1e4b;" horiz-adv-x="599" 
d="M139 431q16 25 34.5 40.5t40.5 24t48 11.5t58 3q60 0 99 -11.5t62 -37t32 -66t9 -98.5v-297h-57v297q0 49 -7 81.5t-25.5 52t-50.5 28t-81 8.5q-31 0 -54.5 -3t-42 -13t-34 -27.5t-30.5 -47.5v-376h-57v500h53zM405 -186l-104 104l-104 -104h-53l130 137h54l130 -137h-53
z" />
    <glyph glyph-name="uni1E4C" unicode="&#x1e4c;" horiz-adv-x="729" 
d="M266 898l129 138h60l-138 -138h-51zM216 787q25 68 78 68q17 0 35 -5.5t38 -15.5q21 -11 36 -17t27 -6q14 0 24.5 9.5t24.5 32.5l28 -11q-12 -30 -29.5 -48t-43.5 -18q-15 0 -32.5 6.5t-39.5 17.5q-20 10 -35 15.5t-28 5.5q-17 0 -29 -9t-25 -33zM363 707
q79 0 133.5 -18.5t89 -60.5t50 -111t15.5 -169q0 -101 -15.5 -169.5t-50 -111t-89 -61t-133.5 -18.5t-133.5 18.5t-89 61t-50 111t-15.5 169.5q0 100 15.5 169t50 111t89 60.5t133.5 18.5zM363 657q-63 0 -106 -14t-69.5 -49.5t-38 -95t-11.5 -150.5t11.5 -150.5t38 -95
t69.5 -49.5t106 -14t106 14t69.5 49.5t38 95t11.5 150.5t-11.5 150.5t-38 95t-69.5 49.5t-106 14z" />
    <glyph glyph-name="uni1E4D" unicode="&#x1e4d;" horiz-adv-x="580" 
d="M192 700l129 138h60l-138 -138h-51zM142 579q25 68 78 68q17 0 35 -5.5t38 -15.5q21 -11 36 -17t27 -6q14 0 24.5 9.5t24.5 32.5l28 -11q-12 -30 -29.5 -48t-43.5 -18q-15 0 -32.5 6.5t-39.5 17.5q-20 10 -35 15.5t-28 5.5q-17 0 -29 -9t-25 -33zM289 508q64 0 108.5 -14
t72.5 -44.5t41 -80t13 -121.5t-13 -121.5t-41 -80t-72.5 -44.5t-108.5 -14t-108.5 14t-72.5 44.5t-41 80t-13 121.5t13 121.5t41 80t72.5 44.5t108.5 14zM289 467q-50 0 -84 -10t-55 -35t-30 -67t-9 -106t9 -106t30 -67t55 -35t84 -10q49 0 83 10t55 35t30.5 67t9.5 106
t-9.5 106t-30.5 67t-55 35t-83 10z" />
    <glyph glyph-name="uni1E50" unicode="&#x1e50;" horiz-adv-x="729" 
d="M404 898l-138 138h60l129 -138h-51zM187 800v35h353v-35h-353zM363 710q79 0 133.5 -18.5t89 -60.5t50 -111t15.5 -169q0 -101 -15.5 -169.5t-50 -111t-89 -61t-133.5 -18.5t-133.5 18.5t-89 61t-50 111t-15.5 169.5q0 100 15.5 169t50 111t89 60.5t133.5 18.5zM363 660
q-63 0 -106 -14t-69.5 -49.5t-38 -95t-11.5 -150.5t11.5 -150.5t38 -95t69.5 -49.5t106 -14t106 14t69.5 49.5t38 95t11.5 150.5t-11.5 150.5t-38 95t-69.5 49.5t-106 14z" />
    <glyph glyph-name="uni1E51" unicode="&#x1e51;" horiz-adv-x="580" 
d="M331 700l-138 138h60l129 -138h-51zM114 601v35h353v-35h-353zM290 510q64 0 108.5 -14t72.5 -44.5t41 -80t13 -121.5t-13 -121.5t-41 -80t-72.5 -44.5t-108.5 -14t-108.5 14t-72.5 44.5t-41 80t-13 121.5t13 121.5t41 80t72.5 44.5t108.5 14zM290 469q-50 0 -84 -10
t-55 -35t-30 -67t-9 -106t9 -106t30 -67t55 -35t84 -10q49 0 83 10t55 35t30.5 67t9.5 106t-9.5 106t-30.5 67t-55 35t-83 10z" />
    <glyph glyph-name="uni1E52" unicode="&#x1e52;" horiz-adv-x="729" 
d="M266 898l129 138h60l-138 -138h-51zM187 800v35h353v-35h-353zM363 710q79 0 133.5 -18.5t89 -60.5t50 -111t15.5 -169q0 -101 -15.5 -169.5t-50 -111t-89 -61t-133.5 -18.5t-133.5 18.5t-89 61t-50 111t-15.5 169.5q0 100 15.5 169t50 111t89 60.5t133.5 18.5zM363 660
q-63 0 -106 -14t-69.5 -49.5t-38 -95t-11.5 -150.5t11.5 -150.5t38 -95t69.5 -49.5t106 -14t106 14t69.5 49.5t38 95t11.5 150.5t-11.5 150.5t-38 95t-69.5 49.5t-106 14z" />
    <glyph glyph-name="uni1E53" unicode="&#x1e53;" horiz-adv-x="580" 
d="M192 700l129 138h60l-138 -138h-51zM113 601v35h353v-35h-353zM289 510q64 0 108.5 -14t72.5 -44.5t41 -80t13 -121.5t-13 -121.5t-41 -80t-72.5 -44.5t-108.5 -14t-108.5 14t-72.5 44.5t-41 80t-13 121.5t13 121.5t41 80t72.5 44.5t108.5 14zM289 469q-50 0 -84 -10
t-55 -35t-30 -67t-9 -106t9 -106t30 -67t55 -35t84 -10q49 0 83 10t55 35t30.5 67t9.5 106t-9.5 106t-30.5 67t-55 35t-83 10z" />
    <glyph glyph-name="uni1E62" unicode="&#x1e62;" horiz-adv-x="646" 
d="M271 339q-46 4 -84 13.5t-65.5 28t-42.5 49t-15 77.5q0 57 18.5 95.5t52 62t80.5 34t104 10.5q59 0 108 -10.5t84 -34t54.5 -61.5t19.5 -94h-61q0 43 -14.5 72.5t-41 47.5t-64.5 26t-84 8q-44 0 -80 -8t-61.5 -26t-39.5 -47.5t-14 -72.5q0 -33 11 -54.5t31.5 -35
t49.5 -20.5t65 -10l112 -10q43 -4 79.5 -13.5t63.5 -29.5t42.5 -52t15.5 -80q0 -59 -20.5 -99.5t-56.5 -66t-86 -37t-108 -11.5q-60 0 -111.5 11.5t-89 36.5t-59 65t-21.5 98h64q0 -45 16 -76t44.5 -50.5t68.5 -28t88 -8.5q46 0 84.5 8.5t66 28t42.5 50.5t15 76
q0 35 -11 58.5t-31.5 38t-48.5 21.5t-62 10zM298 -137v45h54v-45h-54z" />
    <glyph glyph-name="uni1E63" unicode="&#x1e63;" horiz-adv-x="541" 
d="M225 241q-38 3 -69 10t-53.5 20.5t-34.5 35.5t-12 55q0 40 15 68t42.5 45.5t65.5 25t85 7.5q48 0 88 -7.5t68.5 -25t44.5 -45t16 -67.5h-53q0 60 -43.5 84.5t-118.5 24.5q-72 0 -114 -24.5t-42 -84.5q0 -45 33.5 -62t91.5 -22l90 -7q35 -3 65 -10t52.5 -21.5t35 -38
t12.5 -58.5q0 -43 -17 -72.5t-46.5 -48t-70 -27t-88.5 -8.5q-49 0 -91 8.5t-73 26.5t-48.5 47.5t-17.5 71.5h56q0 -32 12.5 -54.5t36 -36.5t55.5 -20t71 -6q37 0 68 6t53.5 20t34.5 36.5t12 54.5q0 25 -9 42t-25 27.5t-39 16t-50 7.5zM245 -139v45h54v-45h-54z" />
    <glyph glyph-name="uni1E6C" unicode="&#x1e6c;" horiz-adv-x="607" 
d="M335 651v-651h-62v651h-234v49h529v-49h-233zM277 -137v45h54v-45h-54z" />
    <glyph glyph-name="uni1E6D" unicode="&#x1e6d;" horiz-adv-x="373" 
d="M325 500v-44h-154v-305q0 -42 15 -66.5t41 -36.5q20 -9 42 -11t57 -1v-44q-8 -1 -18.5 -1.5t-21.5 -0.5q-25 0 -52.5 4t-48.5 15q-33 17 -51.5 51t-18.5 91v305h-88v44h88v132h57v-132h153zM158 -137v45h54v-45h-54z" />
    <glyph glyph-name="uni1E6E" unicode="&#x1e6e;" horiz-adv-x="607" 
d="M335 651v-651h-62v651h-234v49h529v-49h-233zM127 -167v35h353v-35h-353z" />
    <glyph glyph-name="uni1E6F" unicode="&#x1e6f;" horiz-adv-x="373" 
d="M325 500v-44h-154v-305q0 -42 15 -66.5t41 -36.5q20 -9 42 -11t57 -1v-44q-8 -1 -18 -1.5t-22 -0.5q-25 0 -52.5 4t-47.5 15q-33 17 -52 51t-19 91v305h-88v44h88v132h57v-132h153zM9 -167v35h353v-35h-353z" />
    <glyph glyph-name="uni1E70" unicode="&#x1e70;" horiz-adv-x="607" 
d="M335 651v-651h-62v651h-234v49h529v-49h-233zM407 -187l-104 104l-104 -104h-53l130 137h54l130 -137h-53z" />
    <glyph glyph-name="uni1E71" unicode="&#x1e71;" horiz-adv-x="373" 
d="M326 499v-44h-154v-305q0 -42 15 -66.5t41 -36.5q20 -9 42 -11t57 -1v-44q-8 -1 -17.5 -1.5t-20.5 -0.5q-24 0 -51 3.5t-48 13.5q-35 17 -55 51t-20 94v305h-88v44h88v132h57v-132zM290 -188l-104 104l-104 -104h-53l130 137h54l130 -137h-53z" />
    <glyph glyph-name="Wgrave" unicode="&#x1e80;" horiz-adv-x="936" 
d="M507 766l-138 138h60l129 -138h-51zM628 0l-162 607l-162 -607h-67l-196 700h62l167 -621l165 621h63l165 -621l167 621h62l-196 -700h-68z" />
    <glyph glyph-name="wgrave" unicode="&#x1e81;" horiz-adv-x="773" 
d="M427 566l-138 138h60l129 -138h-51zM510 0l-126 434l-126 -434h-69l-166 500h58l144 -445l130 445h60l130 -445l144 445h58l-166 -500h-71z" />
    <glyph glyph-name="Wacute" unicode="&#x1e82;" horiz-adv-x="936" 
d="M369 766l129 138h60l-138 -138h-51zM628 0l-162 607l-162 -607h-67l-196 700h62l167 -621l165 621h63l165 -621l167 621h62l-196 -700h-68z" />
    <glyph glyph-name="wacute" unicode="&#x1e83;" horiz-adv-x="773" 
d="M289 566l129 138h60l-138 -138h-51zM511 0l-126 434l-126 -434h-69l-166 500h58l144 -445l130 445h60l130 -445l144 445h58l-166 -500h-71z" />
    <glyph glyph-name="Wdieresis" unicode="&#x1e84;" horiz-adv-x="936" 
d="M329 811v45h54v-45h-54zM554 811v45h54v-45h-54zM630 0l-162 607l-162 -607h-67l-196 700h62l167 -621l165 621h63l165 -621l167 621h62l-196 -700h-68z" />
    <glyph glyph-name="wdieresis" unicode="&#x1e85;" horiz-adv-x="773" 
d="M248 611v45h54v-45h-54zM473 611v45h54v-45h-54zM512 0l-126 434l-126 -434h-69l-166 500h58l144 -445l130 445h60l130 -445l144 445h58l-166 -500h-71z" />
    <glyph glyph-name="uni1E92" unicode="&#x1e92;" horiz-adv-x="607" 
d="M112 49h444v-49h-513v49l436 602h-415v49h484v-49zM277 -137v45h54v-45h-54z" />
    <glyph glyph-name="uni1E93" unicode="&#x1e93;" horiz-adv-x="502" 
d="M113 43h342v-44h-420v44l336 413h-318v44h396v-44zM224 -138v45h54v-45h-54z" />
    <glyph glyph-name="uni1EA1" unicode="&#x1ea1;" horiz-adv-x="582" 
d="M77 357q0 42 15 71.5t43 47.5t66 26.5t85 8.5q49 0 89 -8.5t68.5 -27.5t44 -48.5t15.5 -72.5v-353h-53l-2 67q-26 -42 -73.5 -60.5t-121.5 -18.5q-46 0 -83.5 8t-63.5 27t-40.5 48.5t-14.5 73.5q0 43 14.5 73.5t40.5 50t62 28t79 8.5h200v50q0 64 -43.5 90t-117.5 26
q-71 0 -112.5 -26t-41.5 -90zM268 274q-73 0 -115.5 -27.5t-42.5 -94.5q0 -68 42.5 -94.5t121.5 -26.5q72 0 113 18.5t59 66.5v158h-178zM264 -136v45h54v-45h-54z" />
    <glyph glyph-name="uni1EAC" unicode="&#x1eac;" horiz-adv-x="699" 
d="M454 766l-104 105l-104 -105h-53l130 138h54l130 -138h-53zM595 0l-78 198h-335l-78 -198h-65l277 700h66l277 -700h-64zM500 245l-151 383l-151 -383h302zM326 -137v45h54v-45h-54z" />
    <glyph glyph-name="uni1EAD" unicode="&#x1ead;" horiz-adv-x="582" 
d="M396 566l-104 105l-104 -105h-53l130 138h54l130 -138h-53zM77 357q0 42 15 71.5t43 47.5t66 26.5t85 8.5q49 0 89 -8.5t68.5 -27.5t44 -48.5t15.5 -72.5v-353h-53l-2 67q-26 -42 -73.5 -60.5t-121.5 -18.5q-46 0 -83.5 8t-63.5 27t-40.5 48.5t-14.5 73.5q0 43 14.5 73.5
t40.5 50t62 28t79 8.5h200v50q0 64 -43.5 90t-117.5 26q-71 0 -112.5 -26t-41.5 -90zM268 274q-73 0 -115.5 -27.5t-42.5 -94.5q0 -68 42.5 -94.5t121.5 -26.5q72 0 113 18.5t59 66.5v158h-178zM264 -136v45h54v-45h-54z" />
    <glyph glyph-name="uni1EB8" unicode="&#x1eb8;" horiz-adv-x="601" 
d="M161 651v-266h375v-49h-375v-287h387v-49h-449v700h446v-49h-384zM279 -137v45h54v-45h-54z" />
    <glyph glyph-name="uni1EB9" unicode="&#x1eb9;" horiz-adv-x="561" 
d="M501 144q-5 -84 -63.5 -119.5t-155.5 -35.5q-62 0 -105.5 14t-70.5 44.5t-39.5 80t-12.5 121.5t12.5 121.5t39.5 80t70.5 44.5t105.5 14t105.5 -14t70.5 -44.5t39.5 -80t12.5 -121.5l-1 -24h-398q1 -57 11 -94.5t30.5 -60t52.5 -31.5t77 -9q73 0 117 25.5t46 89.5z
M452 265q-1 58 -10 97.5t-29.5 62.5t-52.5 33t-78 10t-78 -9.5t-52.5 -33t-29.5 -62t-10 -96.5v-6h341zM253 -140v45h54v-45h-54z" />
    <glyph glyph-name="uni1EBC" unicode="&#x1ebc;" horiz-adv-x="601" 
d="M156 813q25 68 78 68q17 0 35 -5.5t38 -15.5q21 -11 36 -17t27 -6q14 0 24.5 9.5t24.5 32.5l28 -11q-12 -30 -29.5 -48t-43.5 -18q-15 0 -32.5 6.5t-39.5 17.5q-20 10 -35 15.5t-28 5.5q-17 0 -29 -9t-25 -33zM161 649v-266h375v-49h-375v-287h387v-49h-449v700h446v-49
h-384z" />
    <glyph glyph-name="uni1EBD" unicode="&#x1ebd;" horiz-adv-x="561" 
d="M134 613q25 68 78 68q17 0 35 -5.5t38 -15.5q21 -11 36 -17t27 -6q14 0 24.5 9.5t24.5 32.5l28 -11q-12 -30 -29.5 -48t-43.5 -18q-15 0 -32.5 6.5t-39.5 17.5q-20 10 -35 15.5t-28 5.5q-17 0 -29 -9t-25 -33zM501 142q-5 -84 -63.5 -119.5t-155.5 -35.5q-62 0 -105.5 14
t-70.5 44.5t-39.5 80t-12.5 121.5t12.5 121.5t39.5 80t70.5 44.5t105.5 14t105.5 -14t70.5 -44.5t39.5 -80t12.5 -121.5l-1 -24h-398q1 -57 11 -94.5t30.5 -60t52.5 -31.5t77 -9q73 0 117 25.5t46 89.5zM453 263q-1 58 -10 97.5t-29.5 62.5t-52.5 33t-78 10t-78.5 -9.5
t-52.5 -33t-29.5 -62t-10.5 -96.5v-6h341v4z" />
    <glyph glyph-name="uni1EC6" unicode="&#x1ec6;" horiz-adv-x="601" 
d="M407 766l-104 105l-104 -105h-53l130 138h54l130 -138h-53zM160 651v-266h375v-49h-375v-287h387v-49h-449v700h446v-49h-384zM278 -137v45h54v-45h-54z" />
    <glyph glyph-name="uni1EC7" unicode="&#x1ec7;" horiz-adv-x="561" 
d="M386 566l-104 105l-104 -105h-53l130 138h54l130 -138h-53zM501 144q-5 -84 -63.5 -119.5t-155.5 -35.5q-62 0 -105.5 14t-70.5 44.5t-39.5 80t-12.5 121.5t12.5 121.5t39.5 80t70.5 44.5t105.5 14t105.5 -14t70.5 -44.5t39.5 -80t12.5 -121.5l-1 -24h-398
q1 -57 11 -94.5t30.5 -60t52.5 -31.5t77 -9q73 0 117 25.5t46 89.5zM452 265q-1 58 -10 97.5t-29.5 62.5t-52.5 33t-78 10t-78 -9.5t-52.5 -33t-29.5 -62t-10 -96.5v-6h341zM253 -140v45h54v-45h-54z" />
    <glyph glyph-name="uni1ECA" unicode="&#x1eca;" horiz-adv-x="260" 
d="M99 0v700h62v-700h-62zM103 -137v45h54v-45h-54z" />
    <glyph glyph-name="uni1ECB" unicode="&#x1ecb;" horiz-adv-x="230" 
d="M88 608v92h60v-92h-60zM89 0v500h57v-500h-57zM91 -137v45h54v-45h-54z" />
    <glyph glyph-name="uni1ECC" unicode="&#x1ecc;" horiz-adv-x="729" 
d="M364 709q79 0 133.5 -18.5t89 -60.5t50 -111t15.5 -169q0 -101 -15.5 -169.5t-50 -111t-89 -61t-133.5 -18.5t-133.5 18.5t-89 61t-50 111t-15.5 169.5q0 100 15.5 169t50 111t89 60.5t133.5 18.5zM364 659q-63 0 -106 -14t-69.5 -49.5t-38 -95t-11.5 -150.5t11.5 -150.5
t38 -95t69.5 -49.5t106 -14t106 14t69.5 49.5t38 95t11.5 150.5t-11.5 150.5t-38 95t-69.5 49.5t-106 14zM337 -137v45h54v-45h-54z" />
    <glyph glyph-name="uni1ECD" unicode="&#x1ecd;" horiz-adv-x="580" 
d="M290 509q64 0 108.5 -14t72.5 -44.5t41 -80t13 -121.5t-13 -121.5t-41 -80t-72.5 -44.5t-108.5 -14t-108.5 14t-72.5 44.5t-41 80t-13 121.5t13 121.5t41 80t72.5 44.5t108.5 14zM290 468q-50 0 -84 -10t-55 -35t-30 -67t-9 -106t9 -106t30 -67t55 -35t84 -10q49 0 83 10
t55 35t30.5 67t9.5 106t-9.5 106t-30.5 67t-55 35t-83 10zM263 -138v45h54v-45h-54z" />
    <glyph glyph-name="uni1ED8" unicode="&#x1ed8;" horiz-adv-x="729" 
d="M469 766l-104 105l-104 -105h-53l130 138h54l130 -138h-53zM364 709q79 0 133.5 -18.5t89 -60.5t50 -111t15.5 -169q0 -101 -15.5 -169.5t-50 -111t-89 -61t-133.5 -18.5t-133.5 18.5t-89 61t-50 111t-15.5 169.5q0 100 15.5 169t50 111t89 60.5t133.5 18.5zM364 659
q-63 0 -106 -14t-69.5 -49.5t-38 -95t-11.5 -150.5t11.5 -150.5t38 -95t69.5 -49.5t106 -14t106 14t69.5 49.5t38 95t11.5 150.5t-11.5 150.5t-38 95t-69.5 49.5t-106 14zM337 -137v45h54v-45h-54z" />
    <glyph glyph-name="uni1ED9" unicode="&#x1ed9;" horiz-adv-x="580" 
d="M395 568l-104 105l-104 -105h-53l130 138h54l130 -138h-53zM290 510q64 0 108.5 -14t72.5 -44.5t41 -80t13 -121.5t-13 -121.5t-41 -80t-72.5 -44.5t-108.5 -14t-108.5 14t-72.5 44.5t-41 80t-13 121.5t13 121.5t41 80t72.5 44.5t108.5 14zM290 469q-50 0 -84 -10
t-55 -35t-30 -67t-9 -106t9 -106t30 -67t55 -35t84 -10q49 0 83 10t55 35t30.5 67t9.5 106t-9.5 106t-30.5 67t-55 35t-83 10zM263 -137v45h54v-45h-54z" />
    <glyph glyph-name="uni1EE4" unicode="&#x1ee4;" horiz-adv-x="720" 
d="M629 316q0 -100 -14.5 -163.5t-46.5 -99.5t-82 -49.5t-122 -13.5t-122 13.5t-82 49.5t-46.5 99.5t-14.5 163.5v384h62v-378q0 -90 10 -145.5t33.5 -85.5t62.5 -40t97 -10t97 10t62.5 40t33.5 85.5t10 145.5v378h62v-384zM334 -137v45h54v-45h-54z" />
    <glyph glyph-name="uni1EE5" unicode="&#x1ee5;" 
d="M462 -1l-2 70q-17 -25 -35 -40.5t-40 -24t-48 -11.5t-58 -3q-60 0 -99 11.5t-62 37t-32 66t-9 98.5v297h57v-297q0 -49 7 -81.5t25.5 -52t50 -28t81.5 -8.5q31 0 54.5 3t42 13t34 27.5t30.5 47.5v376h57v-500zM277 -138v45h54v-45h-54z" />
    <glyph glyph-name="Ygrave" unicode="&#x1ef2;" horiz-adv-x="654" 
d="M366 766l-138 138h60l129 -138h-51zM357 1h-62v300l-257 400h70l218 -345l218 345h70l-257 -401v-299z" />
    <glyph glyph-name="ygrave" unicode="&#x1ef3;" horiz-adv-x="533" 
d="M307 566l-138 138h60l129 -138h-51zM160 -200l82 200h-9l-210 500h59l183 -438l183 438h59l-293 -700h-54z" />
    <glyph glyph-name="endash" unicode="&#x2013;" horiz-adv-x="521" 
d="M45 270v48h431v-48h-431z" />
    <glyph glyph-name="emdash" unicode="&#x2014;" horiz-adv-x="648" 
d="M45 270v48h558v-48h-558z" />
    <glyph glyph-name="quoteleft" unicode="&#x2018;" horiz-adv-x="205" 
d="M128 682q-14 -14 -19 -26.5t-5 -32.5v-115h-59v116q0 25 7.5 43t27.5 38l67 67l36 -35z" />
    <glyph glyph-name="quoteright" unicode="&#x2019;" horiz-adv-x="205" 
d="M160 655q0 -24 -7.5 -42t-27.5 -38l-67 -67l-36 35l54 54q14 14 19.5 26.5t5.5 32.5v115h59v-116z" />
    <glyph glyph-name="quotesinglbase" unicode="&#x201a;" horiz-adv-x="205" 
d="M160 -12q0 -25 -7.5 -43t-27.5 -38l-67 -67l-36 35l54 54q14 14 19.5 26.5t5.5 32.5v116h59v-116z" />
    <glyph glyph-name="quotedblleft" unicode="&#x201c;" horiz-adv-x="400" 
d="M128 682q-14 -14 -19 -26.5t-5 -32.5v-115h-59v116q0 25 7.5 43t27.5 38l67 67l36 -35zM323 681q-14 -14 -19.5 -26.5t-5.5 -32.5v-115h-59v116q0 25 7.5 43t27.5 38l67 67l36 -35z" />
    <glyph glyph-name="quotedblright" unicode="&#x201d;" horiz-adv-x="400" 
d="M160 655q0 -24 -7.5 -42t-27.5 -38l-67 -67l-36 35l54 54q14 14 19.5 26.5t5.5 32.5v115h59v-116zM355 655q0 -24 -7.5 -42t-27.5 -38l-67 -67l-36 35l54 54q14 14 19.5 26.5t5.5 32.5v115h59v-116z" />
    <glyph glyph-name="quotedblbase" unicode="&#x201e;" horiz-adv-x="400" 
d="M160 -12q0 -25 -7.5 -43t-27.5 -38l-67 -67l-36 35l54 54q14 14 19.5 26.5t5.5 32.5v116h59v-116zM355 -13q0 -25 -7.5 -43t-27.5 -38l-67 -67l-36 35l54 54q14 14 19.5 26.5t5.5 32.5v116h59v-116z" />
    <glyph glyph-name="dagger" unicode="&#x2020;" horiz-adv-x="530" 
d="M485 507v-48h-189v-608h-62v608h-189v48h189v210h62v-210h189z" />
    <glyph glyph-name="daggerdbl" unicode="&#x2021;" horiz-adv-x="530" 
d="M485 507v-48h-189v-351h189v-48h-189v-210h-62v210h-189v48h189v351h-189v48h189v210h62v-210h189z" />
    <glyph glyph-name="bullet" unicode="&#x2022;" horiz-adv-x="323" 
d="M172 412q106 0 106 -106v-20q0 -106 -106 -106h-20q-106 0 -106 106v20q0 106 106 106h20z" />
    <glyph glyph-name="ellipsis" unicode="&#x2026;" horiz-adv-x="735" 
d="M45 0v108h64v-108h-64zM335 0v108h64v-108h-64zM626 0v108h64v-108h-64z" />
    <glyph glyph-name="perthousand" unicode="&#x2030;" horiz-adv-x="1227" 
d="M222 -17l367 734h50l-367 -734h-50zM192 706q41 0 69.5 -11t46 -36t25.5 -65.5t8 -100.5t-8 -100.5t-25.5 -65.5t-45.5 -36t-69 -11t-69.5 11t-46 36t-25.5 65.5t-8 100.5t8 100.5t25.5 65.5t46 36t69.5 11h-1zM192 668q-29 0 -48.5 -7.5t-31.5 -27t-17.5 -53.5t-5.5 -87
t5.5 -87t17.5 -53.5t31.5 -27t48.5 -7.5t48.5 7.5t31.5 27t17.5 53.5t5.5 87t-5.5 87t-17.5 53.5t-31.5 27t-48.5 7.5zM671 421q41 0 69 -11t45.5 -36t25.5 -65.5t8 -100.5t-8 -100.5t-25.5 -65.5t-45.5 -36t-69 -11t-69 11t-45.5 36t-25.5 65.5t-8 100.5t8 100.5t25.5 65.5
t45.5 36t69 11zM1030 421q41 0 69.5 -11t46 -36t25.5 -65.5t8 -100.5t-8 -100.5t-25.5 -65.5t-45.5 -36t-69 -11t-69 11t-45.5 36t-25.5 65.5t-8 100.5t8 100.5t25.5 65.5t45.5 36t69 11h-1zM670 383q-29 0 -48.5 -7.5t-31.5 -27t-17.5 -53.5t-5.5 -87t5.5 -87t17.5 -53.5
t31.5 -27t48.5 -7.5t48.5 7.5t31.5 27t17.5 53.5t5.5 87t-5.5 87t-17.5 53.5t-31.5 27t-48.5 7.5zM1030 384q-29 -1 -48.5 -9t-31.5 -27.5t-17.5 -53.5t-5.5 -86q0 -53 5.5 -87t17.5 -53.5t31.5 -27t48.5 -7.5t48.5 7.5t31.5 27t17.5 53.5t5.5 87t-5.5 87t-17.5 53.5
t-31.5 27t-48.5 7.5v1z" />
    <glyph glyph-name="guilsinglleft" unicode="&#x2039;" horiz-adv-x="282" 
d="M89 276l147 -160l-27 -29l-161 171v36l161 171l27 -29z" />
    <glyph glyph-name="guilsinglright" unicode="&#x203a;" horiz-adv-x="282" 
d="M233 258l-161 -171l-27 29l147 160l-147 160l27 29l161 -171v-36z" />
    <glyph glyph-name="fraction" unicode="&#x2044;" horiz-adv-x="505" 
d="M44 -17l367 734h50l-367 -734h-50z" />
    <glyph glyph-name="Euro" unicode="&#x20ac;" horiz-adv-x="604" 
d="M95 430q5 79 20.5 133t44 87t71.5 47t102 14q49 0 90.5 -9.5t71.5 -30.5t47 -54.5t17 -81.5h-62q0 35 -12.5 58.5t-34 38t-51.5 21t-65 6.5q-44 0 -76 -10.5t-53 -37t-32.5 -70.5t-14.5 -111h239v-37h-242v-42l1 -42h241v-37h-239q3 -68 14.5 -112t32.5 -70.5t53 -37
t77 -10.5q35 0 65 6.5t51.5 21t34 38t12.5 58.5h62q0 -48 -17 -81.5t-47 -54.5t-71.5 -30.5t-90.5 -9.5q-60 0 -103 14t-71.5 47t-44 87t-20.5 133h-50v37h47v42l1 42h-48v37z" />
    <glyph glyph-name="trademark" unicode="&#x2122;" horiz-adv-x="785" 
d="M207 666v-331h-43v331h-119v34h280v-34h-118zM698 335v290l-119 -290h-41l-119 290v-290h-41v365h58l123 -302l123 302h58v-365h-42z" />
    <glyph glyph-name="oneeighth" unicode="&#x215b;" horiz-adv-x="854" 
d="M175 -17l367 734h50l-367 -734h-50zM171 281v368l-100 -82l-27 30l126 103h47v-420zM662 424q77 0 108.5 -25.5t31.5 -82.5q0 -38 -13 -60.5t-45 -33.5q35 -11 49.5 -36.5t14.5 -69.5q0 -64 -33 -92.5t-113 -28.5t-113 28.5t-33 92.5q0 44 14.5 69.5t49.5 36.5
q-32 11 -45 33.5t-13 60.5q0 57 31.5 82.5t108.5 25.5zM662 388q-56 0 -75.5 -16t-19.5 -58t19.5 -58t75.5 -16t75.5 16t19.5 58t-19.5 58t-75.5 16zM662 205q-30 0 -49.5 -4t-31.5 -14t-16.5 -26.5t-4.5 -40.5q0 -25 4.5 -41.5t16.5 -26.5t31.5 -14.5t49.5 -4.5t49.5 4.5
t31.5 14.5t16.5 26.5t4.5 41.5q0 24 -4.5 40.5t-16.5 26.5t-31.5 14t-49.5 4z" />
    <glyph glyph-name="threeeighths" unicode="&#x215c;" horiz-adv-x="921" 
d="M242 -17l367 734h50l-367 -734h-50zM49 602q0 24 6.5 43.5t22 33t42.5 21t69 7.5q77 0 108.5 -25t31.5 -82q0 -38 -13 -60.5t-45 -33.5q35 -11 49.5 -36.5t14.5 -69.5q0 -63 -33 -91.5t-113 -28.5q-42 0 -69.5 8t-44 22.5t-23.5 35t-8 46.5h44q2 -42 23.5 -58.5
t78.5 -16.5q30 0 49.5 4.5t31.5 14.5t16.5 26.5t4.5 40.5t-4.5 40.5t-16.5 26.5t-31.5 14t-49.5 4h-51v36h51q56 0 75.5 16t19.5 57q0 42 -19.5 57.5t-75.5 15.5q-28 0 -46 -3.5t-29 -11.5t-15.5 -21.5t-4.5 -33.5zM728 424q77 0 108.5 -25.5t31.5 -82.5q0 -38 -13 -60.5
t-45 -33.5q35 -11 49.5 -36.5t14.5 -69.5q0 -64 -33 -92.5t-113 -28.5t-113 28.5t-33 92.5q0 44 14.5 69.5t49.5 36.5q-32 11 -45 33.5t-13 60.5q0 57 31.5 82.5t108.5 25.5zM728 388q-56 0 -75.5 -16t-19.5 -58t19.5 -58t75.5 -16t75.5 16t19.5 58t-19.5 58t-75.5 16z
M728 205q-30 0 -49.5 -4t-31.5 -14t-16.5 -26.5t-4.5 -40.5q0 -25 4.5 -41.5t16.5 -26.5t31.5 -14.5t49.5 -4.5t49.5 4.5t31.5 14.5t16.5 26.5t4.5 41.5q0 24 -4.5 40.5t-16.5 26.5t-31.5 14t-49.5 4z" />
    <glyph glyph-name="fiveeighths" unicode="&#x215d;" horiz-adv-x="918" 
d="M241 -17l367 734h50l-367 -734h-50zM311 663h-215v-143q26 33 96 33q76 0 106 -32.5t30 -105.5q0 -75 -31.5 -108t-111.5 -33q-71 0 -107 25.5t-36 82.5h43q0 -39 24 -55t76 -16q58 0 79 22.5t21 81.5t-21 81.5t-79 22.5q-45 0 -66 -14t-23 -49h-43v244h259zM727 422
q77 0 108.5 -25.5t31.5 -82.5q0 -38 -13 -60.5t-45 -33.5q35 -11 49.5 -36.5t14.5 -69.5q0 -64 -33 -92.5t-113 -28.5t-113 28.5t-33 92.5q0 44 14.5 69.5t49.5 36.5q-32 11 -45 33.5t-13 60.5q0 57 31.5 82.5t108.5 25.5zM727 386q-56 0 -75.5 -16t-19.5 -58t19.5 -58
t75.5 -16t75.5 16t19.5 58t-19.5 58t-75.5 16zM727 203q-30 0 -49.5 -4t-31.5 -14t-16.5 -26.5t-4.5 -40.5q0 -25 4.5 -41.5t16.5 -26.5t31.5 -14.5t49.5 -4.5t49.5 4.5t31.5 14.5t16.5 26.5t4.5 41.5q0 24 -4.5 40.5t-16.5 26.5t-31.5 14t-49.5 4z" />
    <glyph glyph-name="seveneighths" unicode="&#x215e;" horiz-adv-x="832" 
d="M148 -17l367 734h50l-367 -734h-50zM121 281h-50l193 382h-220v37h275v-26zM642 423q77 0 108.5 -25.5t31.5 -82.5q0 -38 -13 -60.5t-45 -33.5q35 -11 49.5 -36.5t14.5 -69.5q0 -64 -33 -92.5t-113 -28.5t-113 28.5t-33 92.5q0 44 14.5 69.5t49.5 36.5q-32 11 -45 33.5
t-13 60.5q0 57 31.5 82.5t108.5 25.5zM642 387q-56 0 -75.5 -16t-19.5 -58t19.5 -58t75.5 -16t75.5 16t19.5 58t-19.5 58t-75.5 16zM642 204q-30 0 -49.5 -4t-31.5 -14t-16.5 -26.5t-4.5 -40.5q0 -25 4.5 -41.5t16.5 -26.5t31.5 -14.5t49.5 -4.5t49.5 4.5t31.5 14.5
t16.5 26.5t4.5 41.5q0 24 -4.5 40.5t-16.5 26.5t-31.5 14t-49.5 4z" />
    <glyph glyph-name="partialdiff" unicode="&#x2202;" horiz-adv-x="715" 
 />
    <glyph glyph-name="emptyset" unicode="&#x2205;" horiz-adv-x="715" 
 />
    <glyph glyph-name="product" unicode="&#x220f;" horiz-adv-x="715" 
 />
    <glyph glyph-name="summation" unicode="&#x2211;" horiz-adv-x="715" 
 />
    <glyph glyph-name="minus" unicode="&#x2212;" horiz-adv-x="588" 
d="M45 230v48h497v-48h-497z" />
    <glyph glyph-name="radical" unicode="&#x221a;" horiz-adv-x="715" 
 />
    <glyph glyph-name="infinity" unicode="&#x221e;" horiz-adv-x="715" 
 />
    <glyph glyph-name="integral" unicode="&#x222b;" horiz-adv-x="715" 
 />
    <glyph glyph-name="approxequal" unicode="&#x2248;" horiz-adv-x="536" 
d="M41 368q26 46 55 65.5t63 19.5q26 0 55.5 -9.5t63.5 -26.5t58 -26.5t44 -9.5q24 0 44 16.5t46 53.5l18 -42q-26 -38 -49 -57t-51 -19q-22 0 -48 10.5t-60 27.5q-33 17 -60.5 26t-50.5 9q-31 0 -56 -17t-50 -62zM37 157q26 46 55 65.5t63 19.5q26 0 55.5 -9.5t63.5 -26.5
t58 -26.5t44 -9.5q24 0 44 16.5t46 53.5l18 -42q-26 -38 -49 -57t-51 -19q-22 0 -48 10.5t-60 27.5q-33 17 -60.5 26t-50.5 9q-31 0 -56 -17t-50 -62z" />
    <glyph glyph-name="notequal" unicode="&#x2260;" horiz-adv-x="588" 
d="M542 404v-48h-192l-60 -155h252v-48h-270l-69 -181h-49l69 181h-178v48h197l60 155h-257v48h275l65 168h49l-65 -168h173z" />
    <glyph glyph-name="lessequal" unicode="&#x2264;" horiz-adv-x="579" 
d="M113 351l421 -174l-4 -49l-485 194v60l485 194l4 -49zM45 -16v47h489v-47h-489z" />
    <glyph glyph-name="greaterequal" unicode="&#x2265;" horiz-adv-x="579" 
d="M534 324l-485 -193l-4 49l421 174l-421 174l4 49l485 -194v-59zM45 -13v47h489v-47h-489z" />
    <glyph glyph-name="lozenge" unicode="&#x25ca;" horiz-adv-x="715" 
 />
    <glyph glyph-name="R.aalt" horiz-adv-x="676" 
d="M353 700q65 0 110 -11t73 -34t40.5 -58.5t12.5 -85.5q0 -84 -36.5 -128t-125.5 -55l188 -328h-70l-179 321h-205v-321h-62v700h254zM162 368h192q52 0 86 7.5t54.5 24t29 43.5t8.5 67t-8.5 67t-29 43.5t-54.5 24t-86 7.5h-192v-284z" />
    <glyph glyph-name="Racute.aalt" horiz-adv-x="676" 
d="M240 766l129 138h60l-138 -138h-51zM351 700q65 0 110 -11t73 -34t40.5 -58.5t12.5 -85.5q0 -84 -36.5 -128t-125.5 -55l189 -328h-70l-179 321h-205v-321h-62v700h253zM160 368h192q52 0 86 7.5t54.5 24t29 43.5t8.5 67t-8.5 67t-29 43.5t-54.5 24t-86 7.5h-192v-284z
" />
    <glyph glyph-name="Rcaron.aalt" horiz-adv-x="676" 
d="M311 766l-130 138h53l104 -105l104 105h53l-130 -138h-54zM353 700q65 0 110 -11t73 -34t40.5 -58.5t12.5 -85.5q0 -84 -36.5 -128t-125.5 -55l188 -328h-70l-179 321h-205v-321h-62v700h254zM162 368h192q52 0 86 7.5t54.5 24t29 43.5t8.5 67t-8.5 67t-29 43.5t-54.5 24
t-86 7.5h-192v-284z" />
    <glyph glyph-name="uni0156.aalt" horiz-adv-x="676" 
d="M353 700q65 0 110 -11t73 -34t40.5 -58.5t12.5 -85.5q0 -84 -36.5 -128t-125.5 -55l188 -328h-70l-179 321h-205v-321h-62v700h254zM162 368h192q52 0 86 7.5t54.5 24t29 43.5t8.5 67t-8.5 67t-29 43.5t-54.5 24t-86 7.5h-192v-284zM389 -140q0 -20 -6.5 -35t-22.5 -31
l-44 -45l-30 29l34 34q11 11 15.5 21.5t4.5 26.5v95h50z" />
    <glyph glyph-name="a.salt" 
d="M454 -2v66q-26 -40 -70.5 -57.5t-110.5 -17.5q-59 0 -100.5 14t-67.5 44.5t-38 80t-12 121.5t12 121.5t38 80t67.5 44.5t100.5 14q66 0 110.5 -17.5t70.5 -57.5v66h57v-500zM454 380q-18 48 -56.5 66.5t-104.5 18.5q-50 0 -84 -10.5t-55.5 -36t-31 -67.5t-9.5 -104
t9.5 -104t31 -67t55.5 -35.5t84 -10.5q66 0 104.5 18.5t56.5 66.5v265z" />
    <glyph glyph-name="aacute.aalt" 
d="M198 566l129 138h60l-138 -138h-51zM453 -2v66q-26 -40 -70.5 -57.5t-110.5 -17.5q-59 0 -100.5 14t-67.5 44.5t-38 80t-12 121.5t12 121.5t38 80t67.5 44.5t100.5 14q66 0 110.5 -17.5t70.5 -57.5v66h57v-500zM453 380q-18 48 -56.5 66.5t-104.5 18.5q-50 0 -84 -10.5
t-55.5 -36t-31 -67.5t-9.5 -104t9.5 -104t31 -67t55.5 -35.5t84 -10.5q66 0 104.5 18.5t56.5 66.5v265z" />
    <glyph glyph-name="abreve.aalt" 
d="M441 689q-1 -61 -34.5 -86t-108.5 -25q-74 0 -107.5 24t-35.5 83v18h38v-13q1 -47 24 -64t80 -17q58 0 80.5 17.5t23.5 64.5v12h38zM455 -4v66q-26 -40 -70.5 -57.5t-110.5 -17.5q-59 0 -100.5 14t-67.5 44.5t-38 80t-12 121.5t12 121.5t38 80t67.5 44.5t100.5 14
q66 0 110.5 -17.5t70.5 -57.5v66h57v-500zM455 378q-18 48 -56.5 66.5t-104.5 18.5q-50 0 -84 -10.5t-55.5 -36t-31 -67.5t-9.5 -104t9.5 -104t31 -67t55.5 -35.5t84 -10.5q66 0 104.5 18.5t56.5 66.5v265z" />
    <glyph glyph-name="uni01CE.aalt" 
d="M270 566l-130 138h53l104 -105l104 105h53l-130 -138h-54zM454 -2v66q-26 -40 -70.5 -57.5t-110.5 -17.5q-59 0 -100.5 14t-67.5 44.5t-38 80t-12 121.5t12 121.5t38 80t67.5 44.5t100.5 14q66 0 110.5 -17.5t70.5 -57.5v66h57v-500zM454 380q-18 48 -56.5 66.5
t-104.5 18.5q-50 0 -84 -10.5t-55.5 -36t-31 -67.5t-9.5 -104t9.5 -104t31 -67t55.5 -35.5t84 -10.5q66 0 104.5 18.5t56.5 66.5v265z" />
    <glyph glyph-name="acircumflex.aalt" 
d="M401 566l-104 105l-104 -105h-53l130 138h54l130 -138h-53zM453 -2v66q-26 -40 -70.5 -57.5t-110.5 -17.5q-59 0 -100.5 14t-67.5 44.5t-38 80t-12 121.5t12 121.5t38 80t67.5 44.5t100.5 14q66 0 110.5 -17.5t70.5 -57.5v66h57v-500zM453 380q-18 48 -56.5 66.5
t-104.5 18.5q-50 0 -84 -10.5t-55.5 -36t-31 -67.5t-9.5 -104t9.5 -104t31 -67t55.5 -35.5t84 -10.5q66 0 104.5 18.5t56.5 66.5v265z" />
    <glyph glyph-name="uni1EAD.aalt" 
d="M401 566l-104 105l-104 -105h-53l130 138h54l130 -138h-53zM453 -2v66q-26 -40 -70.5 -57.5t-110.5 -17.5q-59 0 -100.5 14t-67.5 44.5t-38 80t-12 121.5t12 121.5t38 80t67.5 44.5t100.5 14q66 0 110.5 -17.5t70.5 -57.5v66h57v-500zM453 380q-18 48 -56.5 66.5
t-104.5 18.5q-50 0 -84 -10.5t-55.5 -36t-31 -67.5t-9.5 -104t9.5 -104t31 -67t55.5 -35.5t84 -10.5q66 0 104.5 18.5t56.5 66.5v265zM274 -140v45h54v-45h-54z" />
    <glyph glyph-name="adieresis.aalt" 
d="M158 611v45h54v-45h-54zM383 611v45h54v-45h-54zM455 -2v66q-26 -40 -70.5 -57.5t-110.5 -17.5q-59 0 -100.5 14t-67.5 44.5t-38 80t-12 121.5t12 121.5t38 80t67.5 44.5t100.5 14q66 0 110.5 -17.5t70.5 -57.5v66h57v-500zM455 380q-18 48 -56.5 66.5t-104.5 18.5
q-50 0 -84 -10.5t-55.5 -36t-31 -67.5t-9.5 -104t9.5 -104t31 -67t55.5 -35.5t84 -10.5q66 0 104.5 18.5t56.5 66.5v265z" />
    <glyph glyph-name="uni01DF.aalt" 
d="M120 717v35h353v-35h-353zM158 611v45h54v-45h-54zM383 611v45h54v-45h-54zM455 -2v66q-26 -40 -70.5 -57.5t-110.5 -17.5q-59 0 -100.5 14t-67.5 44.5t-38 80t-12 121.5t12 121.5t38 80t67.5 44.5t100.5 14q66 0 110.5 -17.5t70.5 -57.5v66h57v-500zM455 380
q-18 48 -56.5 66.5t-104.5 18.5q-50 0 -84 -10.5t-55.5 -36t-31 -67.5t-9.5 -104t9.5 -104t31 -67t55.5 -35.5t84 -10.5q66 0 104.5 18.5t56.5 66.5v265z" />
    <glyph glyph-name="uni1EA1.aalt" 
d="M454 -2v66q-26 -40 -70.5 -57.5t-110.5 -17.5q-59 0 -100.5 14t-67.5 44.5t-38 80t-12 121.5t12 121.5t38 80t67.5 44.5t100.5 14q66 0 110.5 -17.5t70.5 -57.5v66h57v-500zM454 380q-18 48 -56.5 66.5t-104.5 18.5q-50 0 -84 -10.5t-55.5 -36t-31 -67.5t-9.5 -104
t9.5 -104t31 -67t55.5 -35.5t84 -10.5q66 0 104.5 18.5t56.5 66.5v265zM275 -140v45h54v-45h-54z" />
    <glyph glyph-name="agrave.aalt" 
d="M337 566l-138 138h60l129 -138h-51zM453 -2v66q-26 -40 -70.5 -57.5t-110.5 -17.5q-59 0 -100.5 14t-67.5 44.5t-38 80t-12 121.5t12 121.5t38 80t67.5 44.5t100.5 14q66 0 110.5 -17.5t70.5 -57.5v66h57v-500zM453 380q-18 48 -56.5 66.5t-104.5 18.5q-50 0 -84 -10.5
t-55.5 -36t-31 -67.5t-9.5 -104t9.5 -104t31 -67t55.5 -35.5t84 -10.5q66 0 104.5 18.5t56.5 66.5v265z" />
    <glyph glyph-name="amacron.aalt" 
d="M120 669v35h353v-35h-353zM453 -2v66q-26 -40 -70.5 -57.5t-110.5 -17.5q-59 0 -100.5 14t-67.5 44.5t-38 80t-12 121.5t12 121.5t38 80t67.5 44.5t100.5 14q66 0 110.5 -17.5t70.5 -57.5v66h57v-500zM453 380q-18 48 -56.5 66.5t-104.5 18.5q-50 0 -84 -10.5t-55.5 -36
t-31 -67.5t-9.5 -104t9.5 -104t31 -67t55.5 -35.5t84 -10.5q66 0 104.5 18.5t56.5 66.5v265z" />
    <glyph glyph-name="aogonek.aalt" 
d="M454 65q-26 -40 -70.5 -57.5t-110.5 -17.5q-59 0 -100.5 14t-67.5 44.5t-38 80t-12 121.5t12 121.5t38 80t67.5 44.5t100.5 14q66 0 110.5 -17.5t70.5 -57.5v66h57v-500l-17 -2q-35 -26 -51 -54t-16 -52q0 -32 21.5 -54t65.5 -22q20 0 46 6l7 -30q-30 -9 -55 -9
q-29 0 -51.5 9t-38 23.5t-24 34t-8.5 40.5q0 29 15.5 58.5t48.5 55.5v60zM454 381q-18 48 -56.5 66.5t-104.5 18.5q-50 0 -84 -10.5t-55.5 -36t-31 -67.5t-9.5 -104t9.5 -104t31 -67t55.5 -35.5t84 -10.5q66 0 104.5 18.5t56.5 66.5v265z" />
    <glyph glyph-name="aring.aalt" 
d="M296 735q63 0 90 -24t27 -84t-27 -84t-90 -24t-90 24t-27 84t27 84t90 24zM296 705q-47 0 -64.5 -16t-17.5 -61t17.5 -61t64.5 -16t64.5 16t17.5 61t-17.5 61t-64.5 16zM453 -2v66q-26 -40 -70.5 -57.5t-110.5 -17.5q-59 0 -100.5 14t-67.5 44.5t-38 80t-12 121.5
t12 121.5t38 80t67.5 44.5t100.5 14q66 0 110.5 -17.5t70.5 -57.5v66h57v-500zM453 380q-18 48 -56.5 66.5t-104.5 18.5q-50 0 -84 -10.5t-55.5 -36t-31 -67.5t-9.5 -104t9.5 -104t31 -67t55.5 -35.5t84 -10.5q66 0 104.5 18.5t56.5 66.5v265z" />
    <glyph glyph-name="atilde.aalt" 
d="M149 613q25 68 78 68q17 0 35 -5.5t38 -15.5q21 -11 36 -17t27 -6q14 0 24.5 9.5t24.5 32.5l28 -11q-12 -30 -29.5 -48t-43.5 -18q-15 0 -32.5 6.5t-39.5 17.5q-20 10 -35 15.5t-28 5.5q-17 0 -29 -9t-25 -33zM453 -4v66q-26 -40 -70.5 -57.5t-110.5 -17.5
q-59 0 -100.5 14t-67.5 44.5t-38 80t-12 121.5t12 121.5t38 80t67.5 44.5t100.5 14q66 0 110.5 -17.5t70.5 -57.5v66h57v-500zM453 378q-18 48 -56.5 66.5t-104.5 18.5q-50 0 -84 -10.5t-55.5 -36t-31 -67.5t-9.5 -104t9.5 -104t31 -67t55.5 -35.5t84 -10.5q66 0 104.5 18.5
t56.5 66.5v265z" />
    <glyph glyph-name="glyph190" horiz-adv-x="969" 
d="M512 403q21 58 66.5 81.5t121.5 23.5q97 0 151.5 -34.5t66.5 -117.5q1 -7 1.5 -13.5t0.5 -12.5q0 -45 -24 -73t-61.5 -43.5t-84 -20.5t-90.5 -5q-41 0 -75.5 3.5t-55.5 5.5q3 -49 14 -82t31.5 -52.5t51 -27.5t73.5 -8q73 0 117 25.5t46 89.5h56q-5 -84 -63.5 -119.5
t-155.5 -35.5q-76 0 -121.5 24t-66.5 82v-95h-57v66q-26 -40 -70.5 -57.5t-110.5 -17.5q-59 0 -100.5 14t-67.5 44.5t-38 80t-12 121.5t12 121.5t38 80t67.5 44.5t100.5 14q66 0 110.5 -17.5t70.5 -57.5v66h57zM530 232q20 -2 49 -4.5t61 -2.5h6q38 0 77 4.5t70.5 17
t51 34.5t19.5 57q0 5 -0.5 10.5t-1.5 11.5q-11 60 -50.5 84t-111.5 24q-47 0 -80 -10t-53 -33.5t-29 -62.5t-9 -97zM456 379q-18 48 -56.5 66.5t-104.5 18.5q-50 0 -84 -10.5t-55.5 -36t-31 -67.5t-9.5 -104t9.5 -104t31 -67t55.5 -35.5t84 -10.5q66 0 104.5 18.5t56.5 66.5
v265z" />
    <glyph glyph-name="e.aalt" horiz-adv-x="561" 
d="M502 146q-5 -84 -63.5 -119.5t-155.5 -35.5q-62 0 -105.5 14t-70.5 44.5t-39.5 80t-12.5 121.5t12.5 121.5t39.5 80t70.5 44.5t105.5 14q97 0 151.5 -34.5t66.5 -117.5q1 -7 1.5 -13.5t0.5 -12.5q0 -45 -24 -73t-61.5 -43.5t-84 -20.5t-90.5 -5q-41 0 -75.5 3.5
t-55.5 5.5q3 -49 14 -82t31.5 -52.5t51 -27.5t73.5 -8q73 0 117 25.5t46 89.5zM113 235q20 -2 49 -4.5t61 -2.5h6q38 0 77 4.5t70.5 17t51 34.5t19.5 57q0 5 -0.5 10.5t-1.5 11.5q-11 60 -50.5 84t-111.5 24q-47 0 -79.5 -10t-53 -33.5t-29 -62.5t-8.5 -97v-33z" />
    <glyph glyph-name="eacute.aalt" horiz-adv-x="561" 
d="M183 566l129 138h60l-138 -138h-51zM502 146q-5 -84 -63.5 -119.5t-155.5 -35.5q-62 0 -105.5 14t-70.5 44.5t-39.5 80t-12.5 121.5t12.5 121.5t39.5 80t70.5 44.5t105.5 14q97 0 151.5 -34.5t66.5 -117.5q1 -7 1.5 -13.5t0.5 -12.5q0 -45 -24 -73t-61.5 -43.5t-84 -20.5
t-90.5 -5q-41 0 -75.5 3.5t-55.5 5.5q3 -49 14 -82t31.5 -52.5t51 -27.5t73.5 -8q73 0 117 25.5t46 89.5zM113 235q20 -2 49 -4.5t61 -2.5h6q38 0 77 4.5t70.5 17t51 34.5t19.5 57q0 5 -0.5 10.5t-1.5 11.5q-11 60 -50.5 84t-111.5 24q-47 0 -79.5 -10t-53 -33.5t-29 -62.5
t-8.5 -97v-33z" />
    <glyph glyph-name="ecaron.aalt" horiz-adv-x="561" 
d="M254 566l-130 138h53l104 -105l104 105h53l-130 -138h-54zM502 146q-5 -84 -63.5 -119.5t-155.5 -35.5q-62 0 -105.5 14t-70.5 44.5t-39.5 80t-12.5 121.5t12.5 121.5t39.5 80t70.5 44.5t105.5 14q97 0 151.5 -34.5t66.5 -117.5q1 -7 1.5 -13.5t0.5 -12.5q0 -45 -24 -73
t-61.5 -43.5t-84 -20.5t-90.5 -5q-41 0 -75.5 3.5t-55.5 5.5q3 -49 14 -82t31.5 -52.5t51 -27.5t73.5 -8q73 0 117 25.5t46 89.5zM113 235q20 -2 49 -4.5t61 -2.5h6q38 0 77 4.5t70.5 17t51 34.5t19.5 57q0 5 -0.5 10.5t-1.5 11.5q-11 60 -50.5 84t-111.5 24
q-47 0 -79.5 -10t-53 -33.5t-29 -62.5t-8.5 -97v-33z" />
    <glyph glyph-name="uni0229.aalt" horiz-adv-x="561" 
d="M249 -7q-53 3 -89.5 19t-60 46.5t-34 78t-10.5 114.5q0 72 12.5 121.5t39.5 80t70.5 44.5t105.5 14q97 0 151.5 -34.5t66.5 -117.5q1 -7 1.5 -13.5t0.5 -12.5q0 -45 -24 -73t-61.5 -43.5t-84 -20.5t-90.5 -5q-41 0 -75.5 3.5t-55.5 5.5q3 -49 14 -82t31.5 -52.5t51 -27.5
t73.5 -8q73 0 117 25.5t46 89.5h56q-5 -83 -61 -118t-151 -36l-11 -1v-28h19q45 0 64.5 -18.5t19.5 -62.5q0 -45 -20 -63.5t-67 -18.5q-61 0 -87.5 18.5t-26.5 63.5h35q0 -31 16.5 -42.5t61.5 -11.5q31 0 42 11t11 43q0 31 -11 41.5t-41 10.5h-44zM112 235q20 -2 49 -4.5
t61 -2.5h6q38 0 77 4.5t70.5 17t51 34.5t19.5 57q0 5 -0.5 10.5t-1.5 11.5q-11 60 -50.5 84t-111.5 24q-47 0 -80 -10t-53 -33.5t-29 -62.5t-9 -97z" />
    <glyph glyph-name="ecircumflex.aalt" horiz-adv-x="561" 
d="M386 566l-104 105l-104 -105h-53l130 138h54l130 -138h-53zM503 146q-5 -84 -63.5 -119.5t-155.5 -35.5q-62 0 -105.5 14t-70.5 44.5t-39.5 80t-12.5 121.5t12.5 121.5t39.5 80t70.5 44.5t105.5 14q97 0 151.5 -34.5t66.5 -117.5q1 -7 1.5 -13.5t0.5 -12.5q0 -45 -24 -73
t-61.5 -43.5t-84 -20.5t-90.5 -5q-41 0 -75.5 3.5t-55.5 5.5q3 -49 14 -82t31.5 -52.5t51 -27.5t73.5 -8q73 0 117 25.5t46 89.5zM114 235q20 -2 49 -4.5t61 -2.5h6q38 0 77 4.5t70.5 17t51 34.5t19.5 57q0 5 -0.5 10.5t-1.5 11.5q-11 60 -50.5 84t-111.5 24
q-47 0 -79.5 -10t-53 -33.5t-29 -62.5t-8.5 -97v-33z" />
    <glyph glyph-name="uni1EC7.aalt" horiz-adv-x="561" 
d="M386 566l-104 105l-104 -105h-53l130 138h54l130 -138h-53zM503 146q-5 -84 -63.5 -119.5t-155.5 -35.5q-62 0 -105.5 14t-70.5 44.5t-39.5 80t-12.5 121.5t12.5 121.5t39.5 80t70.5 44.5t105.5 14q97 0 151.5 -34.5t66.5 -117.5q1 -7 1.5 -13.5t0.5 -12.5q0 -45 -24 -73
t-61.5 -43.5t-84 -20.5t-90.5 -5q-41 0 -75.5 3.5t-55.5 5.5q3 -49 14 -82t31.5 -52.5t51 -27.5t73.5 -8q73 0 117 25.5t46 89.5zM114 235q20 -2 49 -4.5t61 -2.5h6q38 0 77 4.5t70.5 17t51 34.5t19.5 57q0 5 -0.5 10.5t-1.5 11.5q-11 60 -50.5 84t-111.5 24
q-47 0 -79.5 -10t-53 -33.5t-29 -62.5t-8.5 -97v-33zM255 -137v45h54v-45h-54z" />
    <glyph glyph-name="edieresis.aalt" horiz-adv-x="561" 
d="M142 611v45h54v-45h-54zM367 611v45h54v-45h-54zM503 146q-5 -84 -63.5 -119.5t-155.5 -35.5q-62 0 -105.5 14t-70.5 44.5t-39.5 80t-12.5 121.5t12.5 121.5t39.5 80t70.5 44.5t105.5 14q97 0 151.5 -34.5t66.5 -117.5q1 -7 1.5 -13.5t0.5 -12.5q0 -45 -24 -73
t-61.5 -43.5t-84 -20.5t-90.5 -5q-41 0 -75.5 3.5t-55.5 5.5q3 -49 14 -82t31.5 -52.5t51 -27.5t73.5 -8q73 0 117 25.5t46 89.5zM114 235q20 -2 49 -4.5t61 -2.5h6q38 0 77 4.5t70.5 17t51 34.5t19.5 57q0 5 -0.5 10.5t-1.5 11.5q-11 60 -50.5 84t-111.5 24
q-47 0 -79.5 -10t-53 -33.5t-29 -62.5t-8.5 -97v-33z" />
    <glyph glyph-name="edotaccent.aalt" horiz-adv-x="561" 
d="M255 611v45h54v-45h-54zM503 146q-5 -84 -63.5 -119.5t-155.5 -35.5q-62 0 -105.5 14t-70.5 44.5t-39.5 80t-12.5 121.5t12.5 121.5t39.5 80t70.5 44.5t105.5 14q97 0 151.5 -34.5t66.5 -117.5q1 -7 1.5 -13.5t0.5 -12.5q0 -45 -24 -73t-61.5 -43.5t-84 -20.5t-90.5 -5
q-41 0 -75.5 3.5t-55.5 5.5q3 -49 14 -82t31.5 -52.5t51 -27.5t73.5 -8q73 0 117 25.5t46 89.5zM114 235q20 -2 49 -4.5t61 -2.5h6q38 0 77 4.5t70.5 17t51 34.5t19.5 57q0 5 -0.5 10.5t-1.5 11.5q-11 60 -50.5 84t-111.5 24q-47 0 -79.5 -10t-53 -33.5t-29 -62.5t-8.5 -97
v-33z" />
    <glyph glyph-name="uni1EB9.aalt" horiz-adv-x="561" 
d="M502 146q-5 -84 -63.5 -119.5t-155.5 -35.5q-62 0 -105.5 14t-70.5 44.5t-39.5 80t-12.5 121.5t12.5 121.5t39.5 80t70.5 44.5t105.5 14q97 0 151.5 -34.5t66.5 -117.5q1 -7 1.5 -13.5t0.5 -12.5q0 -45 -24 -73t-61.5 -43.5t-84 -20.5t-90.5 -5q-41 0 -75.5 3.5
t-55.5 5.5q3 -49 14 -82t31.5 -52.5t51 -27.5t73.5 -8q73 0 117 25.5t46 89.5zM113 235q20 -2 49 -4.5t61 -2.5h6q38 0 77 4.5t70.5 17t51 34.5t19.5 57q0 5 -0.5 10.5t-1.5 11.5q-11 60 -50.5 84t-111.5 24q-47 0 -79.5 -10t-53 -33.5t-29 -62.5t-8.5 -97v-33zM254 -137v45
h54v-45h-54z" />
    <glyph glyph-name="egrave.aalt" horiz-adv-x="561" 
d="M321 566l-138 138h60l129 -138h-51zM502 146q-5 -84 -63.5 -119.5t-155.5 -35.5q-62 0 -105.5 14t-70.5 44.5t-39.5 80t-12.5 121.5t12.5 121.5t39.5 80t70.5 44.5t105.5 14q97 0 151.5 -34.5t66.5 -117.5q1 -7 1.5 -13.5t0.5 -12.5q0 -45 -24 -73t-61.5 -43.5t-84 -20.5
t-90.5 -5q-41 0 -75.5 3.5t-55.5 5.5q3 -49 14 -82t31.5 -52.5t51 -27.5t73.5 -8q73 0 117 25.5t46 89.5zM113 235q20 -2 49 -4.5t61 -2.5h6q38 0 77 4.5t70.5 17t51 34.5t19.5 57q0 5 -0.5 10.5t-1.5 11.5q-11 60 -50.5 84t-111.5 24q-47 0 -79.5 -10t-53 -33.5t-29 -62.5
t-8.5 -97v-33z" />
    <glyph glyph-name="emacron.aalt" horiz-adv-x="561" 
d="M104 669v35h353v-35h-353zM502 146q-5 -84 -63.5 -119.5t-155.5 -35.5q-62 0 -105.5 14t-70.5 44.5t-39.5 80t-12.5 121.5t12.5 121.5t39.5 80t70.5 44.5t105.5 14q97 0 151.5 -34.5t66.5 -117.5q1 -7 1.5 -13.5t0.5 -12.5q0 -45 -24 -73t-61.5 -43.5t-84 -20.5t-90.5 -5
q-41 0 -75.5 3.5t-55.5 5.5q3 -49 14 -82t31.5 -52.5t51 -27.5t73.5 -8q73 0 117 25.5t46 89.5zM113 235q20 -2 49 -4.5t61 -2.5h6q38 0 77 4.5t70.5 17t51 34.5t19.5 57q0 5 -0.5 10.5t-1.5 11.5q-11 60 -50.5 84t-111.5 24q-47 0 -79.5 -10t-53 -33.5t-29 -62.5t-8.5 -97
v-33z" />
    <glyph glyph-name="eogonek.aalt" horiz-adv-x="561" 
d="M462 -200q-29 -9 -54 -9q-29 0 -51.5 9t-38 24t-24 34.5t-8.5 40.5q0 23 11 48t34 48q-15 -2 -29.5 -2.5t-29.5 -0.5q-59 1 -100 15.5t-67 45t-38 79.5t-12 119q0 72 12.5 121.5t39.5 80t70.5 44.5t105.5 14q97 0 151.5 -34.5t66.5 -117.5q1 -7 1.5 -13.5t0.5 -12.5
q0 -45 -24 -73t-61.5 -43.5t-84 -20.5t-90.5 -5q-41 0 -75.5 3.5t-55.5 5.5q3 -49 14 -82t31.5 -52.5t51 -27.5t73.5 -8q73 0 117 25.5t46 89.5h56q-3 -57 -32 -90.5t-79 -48.5q-36 -26 -52 -54t-16 -53q0 -31 21.5 -53.5t66.5 -22.5q20 0 46 6zM112 235q20 -2 49 -4.5
t61 -2.5h6q38 0 77 4.5t70.5 17t51 34.5t19.5 57q0 5 -0.5 10.5t-1.5 11.5q-11 60 -50.5 84t-111.5 24q-47 0 -80 -10t-53 -33.5t-29 -62.5t-9 -97z" />
    <glyph glyph-name="uni1EBD.aalt" horiz-adv-x="561" 
d="M134 613q25 68 78 68q17 0 35 -5.5t38 -15.5q21 -11 36 -17t27 -6q14 0 24.5 9.5t24.5 32.5l28 -11q-12 -30 -29.5 -48t-43.5 -18q-15 0 -32.5 6.5t-39.5 17.5q-20 10 -35 15.5t-28 5.5q-17 0 -29 -9t-25 -33zM502 144q-5 -84 -63.5 -119.5t-155.5 -35.5q-62 0 -105.5 14
t-70.5 44.5t-39.5 80t-12.5 121.5t12.5 121.5t39.5 80t70.5 44.5t105.5 14q97 0 151.5 -34.5t66.5 -117.5q1 -7 1.5 -13.5t0.5 -12.5q0 -45 -24 -73t-61.5 -43.5t-84 -20.5t-90.5 -5q-41 0 -75.5 3.5t-55.5 5.5q3 -49 14 -82t31.5 -52.5t51 -27.5t73.5 -8q73 0 117 25.5
t46 89.5zM113 233q20 -2 49 -4.5t61 -2.5h6q38 0 77 4.5t70.5 17t51 34.5t19.5 57q0 5 -0.5 10.5t-1.5 11.5q-11 60 -50.5 84t-111.5 24q-47 0 -79.5 -10t-53 -33.5t-29 -62.5t-8.5 -97v-33z" />
    <glyph glyph-name="g.aalt" horiz-adv-x="605" 
d="M462 461q29 -17 41 -47.5t12 -78.5q0 -47 -11.5 -80t-37.5 -54t-67.5 -31t-102.5 -10t-100 12q-21 -23 -21 -45q0 -10 3 -17q5 -11 16.5 -18t30.5 -8q36 3 82 3q63 0 109.5 -6.5t78 -23t47 -44.5t15.5 -71q0 -39 -13 -67t-42.5 -45t-78 -25t-119.5 -8t-119.5 7.5t-78 24
t-42.5 42.5t-13 64q0 52 24 82.5t84 44.5q-24 10 -33 32q-6 12 -6 27q0 34 27 64q-39 20 -55.5 56.5t-16.5 93.5q0 47 11.5 80t37.5 54t67.5 31t102.5 10q63 0 103 -10h136v-39h-71zM296 469q-46 0 -77 -7t-50 -22.5t-27 -41t-8 -62.5t8 -62.5t27 -41t50 -22.5t77 -7t77 7
t50 22.5t27 41t8 62.5t-8 62.5t-27 41t-50 22.5t-77 7zM304 50q-56 0 -93 -6t-59.5 -18.5t-32 -33t-9.5 -49.5t9.5 -49.5t32 -33t59.5 -18t93 -5.5t93 5.5t59.5 18t32 33t9.5 49.5t-9.5 49.5t-32 33t-59.5 18.5t-93 6z" />
    <glyph glyph-name="gbreve.aalt" horiz-adv-x="605" 
d="M441 689q-1 -61 -34.5 -86t-108.5 -25q-74 0 -107.5 24t-35.5 83v9t1 9h38v-13q1 -47 24 -64t80 -17q58 0 80.5 17.5t23.5 64.5v12h38zM462 459q29 -17 41 -47.5t12 -78.5q0 -47 -11.5 -80t-37.5 -54t-67.5 -31t-102.5 -10t-100 12q-21 -23 -21 -45q0 -10 3 -17
q5 -11 16.5 -18t30.5 -8q36 3 82 3q63 0 109.5 -6.5t78 -23t47 -44.5t15.5 -71q0 -39 -13 -67t-42.5 -45t-78 -25t-119.5 -8t-119.5 7.5t-78 24t-42.5 42.5t-13 64q0 52 24 82.5t84 44.5q-24 10 -33 32q-6 12 -6 27q0 34 27 64q-39 20 -55.5 56.5t-16.5 93.5q0 47 11.5 80
t37.5 54t67.5 31t102.5 10q63 0 103 -10h136v-39h-71zM296 467q-46 0 -77 -7t-50 -22.5t-27 -41t-8 -62.5t8 -62.5t27 -41t50 -22.5t77 -7t77 7t50 22.5t27 41t8 62.5t-8 62.5t-27 41t-50 22.5t-77 7zM304 48q-56 0 -93 -6t-59.5 -18.5t-32 -33t-9.5 -49.5t9.5 -49.5t32 -33
t59.5 -18t93 -5.5t93 5.5t59.5 18t32 33t9.5 49.5t-9.5 49.5t-32 33t-59.5 18.5t-93 6z" />
    <glyph glyph-name="gcaron.aalt" horiz-adv-x="605" 
d="M271 566l-130 138h53l104 -105l104 105h53l-130 -138h-54zM462 461q29 -17 41 -47.5t12 -78.5q0 -47 -11.5 -80t-37.5 -54t-67.5 -31t-102.5 -10t-100 12q-21 -23 -21 -45q0 -10 3 -17q5 -11 16.5 -18t30.5 -8q36 3 82 3q63 0 109.5 -6.5t78 -23t47 -44.5t15.5 -71
q0 -39 -13 -67t-42.5 -45t-78 -25t-119.5 -8t-119.5 7.5t-78 24t-42.5 42.5t-13 64q0 52 24 82.5t84 44.5q-24 10 -33 32q-6 12 -6 27q0 34 27 64q-39 20 -55.5 56.5t-16.5 93.5q0 47 11.5 80t37.5 54t67.5 31t102.5 10q63 0 103 -10h136v-39h-71zM296 469q-46 0 -77 -7
t-50 -22.5t-27 -41t-8 -62.5t8 -62.5t27 -41t50 -22.5t77 -7t77 7t50 22.5t27 41t8 62.5t-8 62.5t-27 41t-50 22.5t-77 7zM304 50q-56 0 -93 -6t-59.5 -18.5t-32 -33t-9.5 -49.5t9.5 -49.5t32 -33t59.5 -18t93 -5.5t93 5.5t59.5 18t32 33t9.5 49.5t-9.5 49.5t-32 33
t-59.5 18.5t-93 6z" />
    <glyph glyph-name="uni0123.aalt" horiz-adv-x="605" 
d="M320 703q-11 -11 -15.5 -21.5t-4.5 -26.5v-95h-50v96q0 20 6.5 35t22.5 31l44 45l30 -29zM462 460q29 -17 41 -47.5t12 -78.5q0 -47 -11.5 -80t-37.5 -54t-67.5 -31t-102.5 -10t-100 12q-21 -23 -21 -45q0 -10 3 -17q5 -11 16.5 -18t30.5 -8q36 3 82 3q63 0 109.5 -6.5
t78 -23t47 -44.5t15.5 -71q0 -39 -13 -67t-42.5 -45t-78 -25t-119.5 -8t-119.5 7.5t-78 24t-42.5 42.5t-13 64q0 52 24 82.5t84 44.5q-24 10 -33 32q-6 12 -6 27q0 34 27 64q-39 20 -55.5 56.5t-16.5 93.5q0 47 11.5 80t37.5 54t67.5 31t102.5 10q63 0 103 -10h136v-39h-71z
M296 468q-46 0 -77 -7t-50 -22.5t-27 -41t-8 -62.5t8 -62.5t27 -41t50 -22.5t77 -7t77 7t50 22.5t27 41t8 62.5t-8 62.5t-27 41t-50 22.5t-77 7zM304 49q-56 0 -93 -6t-59.5 -18.5t-32 -33t-9.5 -49.5t9.5 -49.5t32 -33t59.5 -18t93 -5.5t93 5.5t59.5 18t32 33t9.5 49.5
t-9.5 49.5t-32 33t-59.5 18.5t-93 6z" />
    <glyph glyph-name="gdotaccent.aalt" horiz-adv-x="605" 
d="M272 611v45h54v-45h-54zM463 461q29 -17 41 -47.5t12 -78.5q0 -47 -11.5 -80t-37.5 -54t-67.5 -31t-102.5 -10t-100 12q-21 -23 -21 -45q0 -10 3 -17q5 -11 16.5 -18t30.5 -8q36 3 82 3q63 0 109.5 -6.5t78 -23t47 -44.5t15.5 -71q0 -39 -13 -67t-42.5 -45t-78 -25
t-119.5 -8t-119.5 7.5t-78 24t-42.5 42.5t-13 64q0 52 24 82.5t84 44.5q-24 10 -33 32q-6 12 -6 27q0 34 27 64q-39 20 -55.5 56.5t-16.5 93.5q0 47 11.5 80t37.5 54t67.5 31t102.5 10q63 0 103 -10h136v-39h-71zM297 469q-46 0 -77 -7t-50 -22.5t-27 -41t-8 -62.5t8 -62.5
t27 -41t50 -22.5t77 -7t77 7t50 22.5t27 41t8 62.5t-8 62.5t-27 41t-50 22.5t-77 7zM305 50q-56 0 -93 -6t-59.5 -18.5t-32 -33t-9.5 -49.5t9.5 -49.5t32 -33t59.5 -18t93 -5.5t93 5.5t59.5 18t32 33t9.5 49.5t-9.5 49.5t-32 33t-59.5 18.5t-93 6z" />
    <glyph glyph-name="glyph297" horiz-adv-x="967" 
d="M916 146q-5 -84 -63.5 -119.5t-155.5 -35.5q-86 0 -133.5 30t-65.5 104q-19 -74 -68 -104t-138 -30q-64 0 -108.5 14t-72.5 44.5t-41 80t-13 121.5t13 121.5t41 80t72.5 44.5t108.5 14q89 0 138 -29.5t68 -103.5q18 74 65.5 103.5t133.5 29.5q97 0 151.5 -34.5
t66.5 -117.5q1 -7 1.5 -13.5t0.5 -12.5q0 -45 -24 -73t-61.5 -43.5t-84 -20.5t-90.5 -5q-41 0 -75.5 3.5t-55.5 5.5q3 -49 14 -82t31.5 -52.5t51 -27.5t73.5 -8q73 0 117 25.5t46 89.5zM527 235q20 -2 49 -4.5t61 -2.5h6q38 0 77 4.5t70.5 17t51 34.5t19.5 57q0 5 -0.5 10.5
t-1.5 11.5q-11 60 -50.5 84t-111.5 24q-47 0 -80 -10t-53 -33.5t-29 -62.5t-9 -97zM292 468q-50 0 -84 -10t-55 -35t-30 -67t-9 -106t9 -106t30 -67t55 -35t84 -10q49 0 83 10t55 35t30.5 67t9.5 106t-9.5 106t-30.5 67t-55 35t-83 10z" />
    <glyph glyph-name="y.aalt" 
d="M513 -47q0 -43 -16.5 -73t-46.5 -48.5t-71 -27t-89 -8.5q-45 0 -83 8t-66.5 25.5t-45 45.5t-19.5 68h56q4 -60 46.5 -83.5t111.5 -23.5q76 0 121 26.5t45 90.5v121q-26 -40 -70.5 -57.5t-110.5 -17.5q-59 0 -100.5 13.5t-67.5 43.5t-38 77.5t-12 115.5v250h57v-250
q0 -59 9.5 -99.5t31 -65t55.5 -35t84 -10.5q65 0 103.5 18.5t56.5 65.5v377h57z" />
    <glyph glyph-name="yacute.aalt" 
d="M198 566l129 138h60l-138 -138h-51zM512 -47q0 -43 -16.5 -73t-46.5 -48.5t-71 -27t-89 -8.5q-45 0 -83 8t-66.5 25.5t-45 45.5t-19.5 68h56q4 -60 46.5 -83.5t111.5 -23.5q76 0 121 26.5t45 90.5v121q-26 -40 -70.5 -57.5t-110.5 -17.5q-59 0 -100.5 13.5t-67.5 43.5
t-38 77.5t-12 115.5v250h57v-250q0 -59 9.5 -99.5t31 -65t55.5 -35t84 -10.5q65 0 103.5 18.5t56.5 65.5v377h57z" />
    <glyph glyph-name="ycircumflex.aalt" 
d="M401 566l-104 105l-104 -105h-53l130 138h54l130 -138h-53zM512 -47q0 -43 -16.5 -73t-46.5 -48.5t-71 -27t-89 -8.5q-45 0 -83 8t-66.5 25.5t-45 45.5t-19.5 68h56q4 -60 46.5 -83.5t111.5 -23.5q76 0 121 26.5t45 90.5v121q-26 -40 -70.5 -57.5t-110.5 -17.5
q-59 0 -100.5 13.5t-67.5 43.5t-38 77.5t-12 115.5v250h57v-250q0 -59 9.5 -99.5t31 -65t55.5 -35t84 -10.5q65 0 103.5 18.5t56.5 65.5v377h57z" />
    <glyph glyph-name="ydieresis.aalt" 
d="M158 611v45h54v-45h-54zM383 611v45h54v-45h-54zM514 -47q0 -43 -16.5 -73t-46.5 -48.5t-71 -27t-89 -8.5q-45 0 -83 8t-66.5 25.5t-45 45.5t-19.5 68h56q4 -60 46.5 -83.5t111.5 -23.5q76 0 121 26.5t45 90.5v121q-26 -40 -70.5 -57.5t-110.5 -17.5q-59 0 -100.5 13.5
t-67.5 43.5t-38 77.5t-12 115.5v250h57v-250q0 -59 9.5 -99.5t31 -65t55.5 -35t84 -10.5q65 0 103.5 18.5t56.5 65.5v377h57z" />
    <glyph glyph-name="ygrave.aalt" 
d="M337 566l-138 138h60l129 -138h-51zM512 -47q0 -43 -16.5 -73t-46.5 -48.5t-71 -27t-89 -8.5q-45 0 -83 8t-66.5 25.5t-45 45.5t-19.5 68h56q4 -60 46.5 -83.5t111.5 -23.5q76 0 121 26.5t45 90.5v121q-26 -40 -70.5 -57.5t-110.5 -17.5q-59 0 -100.5 13.5t-67.5 43.5
t-38 77.5t-12 115.5v250h57v-250q0 -59 9.5 -99.5t31 -65t55.5 -35t84 -10.5q65 0 103.5 18.5t56.5 65.5v377h57z" />
    <glyph glyph-name="T_h.dlig" horiz-adv-x="1209" 
d="M752 431q16 25 34.5 40.5t40 24.5t47.5 12t58 3q59 0 98 -11.5t61.5 -37t31.5 -66t9 -98.5v-297h-57v295q0 48 -7 80.5t-25 52t-49.5 28t-80.5 8.5q-31 0 -54.5 -3t-42 -13t-34 -27.5t-30.5 -47.5v-374h-57v651h-360v-651h-62v651h-234v49h713v-269z" />
    <glyph glyph-name="c_h.dlig" horiz-adv-x="1155" 
d="M697 431q16 25 34.5 40.5t40 24.5t47.5 12t58 3q59 0 98 -11.5t61.5 -37t31.5 -66t9 -98.5v-297h-57v295q0 48 -7 80.5t-25 52t-49.5 28t-80.5 8.5q-31 0 -54.5 -3t-42 -13t-34 -27.5t-30.5 -47.5v-374h-57v737h57v-306zM502 158q0 -45 -15.5 -76.5t-44 -51.5t-69.5 -29
t-91 -9q-62 0 -105 14t-70 44.5t-39.5 80t-12.5 121.5t12.5 121.5t39.5 80t70 44.5t105 14q50 0 91 -9t69.5 -29t44 -51t15.5 -76h-56q0 35 -11.5 58.5t-32.5 38t-51.5 21t-68.5 6.5q-48 0 -80.5 -10t-52.5 -35t-29 -67.5t-9 -106.5t9 -106.5t29 -67.5t52.5 -35t80.5 -10
q38 0 68.5 6.5t51.5 21t32.5 38t11.5 58.5z" />
    <glyph glyph-name="c_t.dlig" horiz-adv-x="926" 
d="M877 479v-44h-154v-282q0 -42 15 -66.5t41 -36.5q20 -9 42 -11t57 -1v-44q-5 -1 -12 -1.5t-15 -0.5q-19 0 -40.5 2.5t-39.5 8.5q-47 11 -75.5 44.5t-28.5 104.5v282h-260q-21 20 -52.5 27.5t-73.5 7.5q-48 0 -80.5 -10t-52.5 -35t-29 -67.5t-9 -106.5t9 -106.5t29 -67.5
t52.5 -35t80.5 -10q38 0 68.5 6.5t51.5 21t32.5 38t11.5 58.5h56q0 -45 -15.5 -76.5t-44 -51.5t-69.5 -29t-91 -9q-62 0 -105 14t-70 44.5t-39.5 80t-12.5 121.5t12.5 121.5t39.5 80t70 44.5t105 14q90 0 146 -32h241v154h57v-154z" />
    <glyph glyph-name="f_b.dlig" horiz-adv-x="967" 
d="M514 438q26 40 70.5 57.5t110.5 17.5q59 0 100.5 -14t67.5 -44.5t38 -80t12 -121.5t-12 -121.5t-38 -80t-67.5 -44.5t-100.5 -14q-66 0 -110.5 17.5t-70.5 57.5v-66h-57v698h-122q-61 2 -98 -16q-29 -13 -42.5 -38t-13.5 -63v-82h152v-44h-152v-456h-57v456h-83v44h83v82
q0 62 28 94.5t70 46.5q24 9 52 12.5t60 2.5h179zM514 122q18 -48 56.5 -66.5t104.5 -18.5q49 0 83.5 10.5t56 35.5t31 67t9.5 104t-9.5 104t-31 67.5t-56 36t-83.5 10.5q-66 0 -104.5 -18.5t-56.5 -66.5v-265z" />
    <glyph glyph-name="f_f_j.dlig" horiz-adv-x="976" 
d="M122 584q0 45 14.5 75t40.5 48.5t61 26t76 7.5q11 0 21 -0.5t20 -1.5v-41q-9 1 -17 1.5t-16 0.5q-68 0 -105 -26t-37 -91v-82h317v82q0 45 14.5 75t40.5 48.5t61 26t76 7.5q11 0 21 -0.5t20 -1.5v-41q-9 1 -17 1.5t-16 0.5q-68 0 -105 -26t-37 -91v-82h337v-533
q0 -42 -12 -71t-34 -49q-24 -23 -59 -33.5t-78 -10.5v46q32 2 57.5 10t42.5 26q26 28 26 82v489h-280v-456h-57v456h-317v-456h-57v456h-83v44h83z" />
    <glyph glyph-name="f_h.dlig" horiz-adv-x="976" 
d="M124 583q0 67 33 101.5t83 46.5q22 5 45.5 7t49.5 1h184v-309q16 25 34.5 40.5t40 24.5t47.5 12t58 3q59 0 98 -11.5t61.5 -37t31.5 -66t9 -98.5v-297h-57v295q0 48 -7 80.5t-25 52t-49.5 28t-80.5 8.5q-31 0 -54.5 -3t-42 -13t-34 -27.5t-30.5 -47.5v-374h-57v698h-127
q-49 2 -80 -7q-38 -11 -56 -37t-18 -71v-82h152v-44h-152v-456h-57v456h-83v44h83v83z" />
    <glyph glyph-name="f_j.dlig" horiz-adv-x="602" 
d="M123 583q0 45 14.5 75t40.5 48.5t61 26t76 7.5q11 0 21 -0.5t20 -1.5v-41q-9 1 -17 1.5t-16 0.5q-68 0 -105 -26t-37 -91v-82h337v-533q0 -42 -12 -71t-34 -49q-24 -23 -59 -33.5t-78 -10.5v46q32 2 57.5 10t42.5 26q26 28 26 82v489h-280v-456h-57v456h-83v44h83z" />
    <glyph glyph-name="f_k.dlig" horiz-adv-x="906" 
d="M122 582q0 69 34 103.5t86 45.5q21 5 44 6.5t47 0.5h184v-466l268 227h73l-218 -186l240 -314h-67l-210 278l-85 -71v-207h-57v698h-127q-48 2 -79 -7q-38 -11 -56 -37t-18 -71v-82h152v-44h-152v-456h-57v456h-83v44h83z" />
    <glyph glyph-name="s_p.dlig" horiz-adv-x="1140" 
d="M225 243q-38 3 -69 10t-53.5 20.5t-34.5 35.5t-12 55q0 40 15 68t42.5 45.5t65.5 25t85 7.5q58 0 99 -10h323v-66q26 40 70.5 57.5t110.5 17.5q59 0 100.5 -14t67.5 -44.5t38 -80t12 -121.5t-12 -121.5t-38 -80t-67.5 -44.5t-100.5 -14q-66 0 -110.5 17.5t-70.5 57.5
v-266h-57v656h-277q-15 10 -37 14t-49 4q-72 0 -114 -24.5t-42 -84.5q0 -45 33.5 -62t91.5 -22l90 -7q35 -3 65 -10t52.5 -21.5t35 -38t12.5 -58.5q0 -43 -17 -72.5t-46.5 -48t-70 -27t-88.5 -8.5q-49 0 -91 8.5t-73 26.5t-48.5 47.5t-17.5 71.5h56q0 -32 12.5 -54.5
t36 -36.5t55.5 -20t71 -6q37 0 68 6t53.5 20t34.5 36.5t12 54.5q0 25 -9 42t-25 27.5t-39 16t-50 7.5zM686 118q18 -48 56.5 -66.5t104.5 -18.5q49 0 83.5 10.5t56 36t31 67.5t9.5 104t-9.5 104t-31 67t-56 35.5t-83.5 10.5q-66 0 -104.5 -18.5t-56.5 -66.5v-265z" />
    <glyph glyph-name="s_t.dlig" horiz-adv-x="914" 
d="M866 500v-44h-154v-305q0 -42 15 -66.5t41 -36.5q20 -9 42 -11t57 -1v-44q-5 -1 -12 -1.5t-15 -0.5q-19 0 -40.5 2.5t-39.5 8.5q-47 11 -75.5 44.5t-28.5 104.5v305h-305q-15 10 -37 14t-49 4q-72 0 -114 -24.5t-42 -84.5q0 -45 33.5 -62t91.5 -22l90 -7q35 -3 65 -10
t52.5 -21.5t35 -38t12.5 -58.5q0 -43 -17 -72.5t-46.5 -48t-70 -27t-88.5 -8.5q-49 0 -91 8.5t-73 26.5t-48.5 47.5t-17.5 71.5h56q0 -32 12.5 -54.5t36 -36.5t55.5 -20t71 -6q37 0 68 6t53.5 20t34.5 36.5t12 54.5q0 25 -9 42t-25 27.5t-39 16t-50 7.5l-88 7q-38 3 -69 10
t-53.5 20.5t-34.5 35.5t-12 55q0 40 15 68t42.5 45.5t65.5 25t85 7.5q58 0 99 -10h294v132h57v-132h152z" />
    <glyph glyph-name="zero.case" horiz-adv-x="610" 
d="M305 685q66 0 112 -17.5t74 -58t40.5 -107t12.5 -164.5t-12.5 -164.5t-40.5 -107t-74 -58t-112 -17.5t-112 17.5t-74 58t-40.5 107t-12.5 164.5t12.5 164.5t40.5 107t74 58t112 17.5zM305 632q-49 0 -82.5 -13t-54.5 -46.5t-30 -91t-9 -146.5t9 -146.5t30 -91t54.5 -46.5
t82.5 -13t82.5 13t54.5 46.5t30 91.5t9 147t-9 147t-30 91.5t-54.5 46.5t-82.5 13v-2z" />
    <glyph glyph-name="one.case" horiz-adv-x="391" 
d="M244 0v616l-172 -141l-35 40l201 165h68v-680h-62z" />
    <glyph glyph-name="two.case" horiz-adv-x="573" 
d="M63 488q0 55 17 92.5t48 60.5t73.5 33t94.5 10q50 0 91 -10t70.5 -33.5t45.5 -61t16 -92.5q0 -48 -13.5 -77.5t-37.5 -47.5t-57 -28.5t-71 -20.5l-97 -26q-29 -9 -53.5 -18t-41.5 -24t-26.5 -38t-9.5 -60v-98h410v-49h-472v150q0 50 13.5 82t37 52t55 32t68.5 21l99 26
q30 9 55 17t43 21t27.5 33.5t9.5 54.5q0 42 -11.5 70t-33 45.5t-51.5 25t-67 7.5q-39 0 -70 -7.5t-53 -25t-34 -45.5t-12 -70z" />
    <glyph glyph-name="three.case" horiz-adv-x="583" 
d="M60 521q1 39 11.5 69.5t36 51.5t68.5 31.5t108 10.5q62 0 105 -9.5t69.5 -30t38 -53t11.5 -78.5q0 -66 -23.5 -103t-83.5 -52q65 -16 91 -57.5t26 -117.5q0 -52 -12 -88.5t-39.5 -60t-72.5 -34t-110 -10.5q-66 0 -110 11.5t-70.5 33.5t-38 54t-14.5 74h58q2 -35 12 -58.5
t30 -38t52.5 -21t79.5 -6.5q51 0 84.5 7.5t54 25.5t28.5 46.5t8 70.5t-8 70t-28.5 45t-54 24.5t-84.5 7.5h-77v48h77q48 0 79 6.5t50 21.5t26.5 39t7.5 60t-7.5 60t-26.5 39t-50 21.5t-79 6.5q-46 0 -76.5 -6t-49.5 -19.5t-27.5 -36t-9.5 -54.5z" />
    <glyph glyph-name="four.case" horiz-adv-x="569" 
d="M528 249v-49h-99v-200h-60v200h-326v55l311 425h74v-432zM370 249v368l-267 -368h267z" />
    <glyph glyph-name="five.case" horiz-adv-x="556" 
d="M478 631h-354v-257q20 35 61.5 50t104.5 15q61 0 102 -12.5t66.5 -39.5t36.5 -69t11 -102t-11.5 -103t-38.5 -70.5t-70.5 -40.5t-107.5 -13q-115 0 -171.5 40t-56.5 131h57q0 -67 41.5 -94.5t129.5 -27.5q50 0 83.5 9t53.5 30t28 55t8 84t-8 84t-28 55t-53.5 30t-83.5 9
q-76 0 -114 -24.5t-42 -84.5h-57v395h413v-49z" />
    <glyph glyph-name="six.case" horiz-adv-x="583" 
d="M128 364q21 42 65 59t120 17q62 0 104 -12t68 -39t37 -69t11 -102q0 -64 -15.5 -107.5t-45 -70.5t-71.5 -38.5t-96 -11.5q-66 0 -112 17.5t-74 58t-40.5 107t-12.5 164.5t12 165t39.5 107.5t71.5 58t108 17.5q42 0 81 -8t68 -27t46.5 -49t17.5 -74h-58q0 31 -11.5 53
t-32.5 35t-49.5 19t-61.5 6q-47 0 -79.5 -12.5t-52.5 -44t-28.5 -84t-8.5 -133.5v-2zM304 393q-44 0 -75.5 -6t-53 -19.5t-33.5 -35t-17 -53.5q2 -70 13 -116.5t32.5 -74t54.5 -38.5t80 -11q42 0 74 8.5t53.5 29.5t32.5 55.5t11 85.5q0 50 -8 84t-28 54.5t-53 29.5t-82 9z
" />
    <glyph glyph-name="seven.case" horiz-adv-x="513" 
d="M155 1h-66l319 630h-367v49h439v-35z" />
    <glyph glyph-name="eight.case" horiz-adv-x="601" 
d="M298 685q62 0 105 -9.5t69.5 -30t38 -53t11.5 -78.5q0 -66 -23.5 -103t-83.5 -52q65 -16 91.5 -57.5t26.5 -117.5q0 -52 -12 -88.5t-39.5 -60t-72.5 -34t-110 -10.5t-110 10.5t-72.5 34t-39.5 60t-12 88.5q0 76 26.5 117.5t91.5 57.5q-60 15 -83.5 52t-23.5 103
q0 46 11.5 78.5t38 53t69.5 30t105 9.5h-2zM298 638q-48 0 -79 -6.5t-50 -21.5t-26.5 -39t-7.5 -60t7.5 -60t26.5 -39t50 -21.5t79 -6.5t79 6.5t50 21.5t26.5 39t7.5 60t-7.5 60t-26.5 39t-50 21.5t-79 6.5zM298 336q-51 0 -84.5 -7.5t-54 -24.5t-28.5 -45t-8 -70t8 -70.5
t28.5 -46.5t54 -25.5t84.5 -7.5t84.5 7.5t54 25.5t28.5 46.5t8 70.5t-8 70t-28.5 45t-54 24.5t-84.5 7.5z" />
    <glyph glyph-name="nine.case" horiz-adv-x="583" 
d="M455 311q-21 -42 -65 -59t-120 -17q-62 0 -104 12t-68 39t-37 69t-11 102q0 64 15.5 107.5t45 70.5t71.5 38.5t96 11.5q66 0 112 -17.5t74 -58t40.5 -107t12.5 -164.5t-12 -164.5t-39.5 -107t-71.5 -58t-108 -17.5q-42 0 -81 8t-68 27t-46.5 49t-17.5 74h58
q0 -32 11.5 -53.5t32.5 -34.5t49.5 -19t61.5 -6q47 0 79.5 12.5t52.5 43.5t28.5 84t8.5 133v2zM278 637q-42 0 -74 -8.5t-53.5 -29.5t-32.5 -55.5t-11 -85.5q0 -50 8 -84t28 -54.5t52.5 -29.5t82.5 -9q44 0 76 6t53.5 19.5t33.5 35t17 53.5q-2 70 -13 116.5t-32.5 74
t-54.5 38.5t-80 11v2z" />
    <glyph glyph-name="zero.oldstyle" horiz-adv-x="444" 
d="M222 506q49 0 83 -13t55 -43t30.5 -79t9.5 -121t-9.5 -121t-30.5 -79t-55 -43t-83 -13t-83 13t-55 43t-30.5 79t-9.5 121t9.5 121t30.5 79t55 43t83 13zM222 461q-35 0 -58.5 -9t-37.5 -33t-20.5 -65t-6.5 -105t6.5 -105t20.5 -65t37.5 -33t58.5 -9q34 0 58 9t38 33
t20.5 65t6.5 105t-6.5 105t-20.5 65t-38 33t-58 9z" />
    <glyph glyph-name="one.oldstyle" horiz-adv-x="278" 
d="M174 0v439l-120 -98l-32 36l150 123h56v-500h-54z" />
    <glyph glyph-name="two.oldstyle" horiz-adv-x="412" 
d="M34 356q0 41 13 69t36 45.5t55.5 25t70.5 7.5q37 0 67.5 -7.5t52.5 -25t34.5 -45.5t12.5 -69q0 -36 -10.5 -58t-29 -35.5t-43 -21.5t-52.5 -15l-70 -19q-21 -6 -37.5 -12.5t-28 -17t-18 -26.5t-6.5 -41v-67h298v-44h-353v113q0 37 10.5 61t28 39.5t41.5 24.5t51 16l72 19
q22 6 39.5 11.5t29.5 14.5t18.5 23t6.5 38q0 59 -30 81.5t-82 22.5q-55 0 -86.5 -22.5t-31.5 -81.5z" />
    <glyph glyph-name="three.oldstyle" horiz-adv-x="583" 
d="M60 347q1 39 11.5 69.5t36 51.5t68.5 31.5t108 10.5q62 0 105 -9.5t69.5 -30t38 -53t11.5 -78.5q0 -66 -23.5 -103t-83.5 -52q65 -16 91 -57.5t26 -117.5q0 -51 -12 -88t-39.5 -60t-72.5 -34t-110 -11q-66 0 -110 11.5t-70.5 33.5t-38 54.5t-14.5 74.5h58q2 -35 12 -58.5
t30 -38.5t52.5 -21.5t79.5 -6.5q51 0 84.5 7.5t54 25t28.5 46t8 70.5t-8 70t-28.5 45t-54 24.5t-84.5 7.5h-77v48h77q48 0 79 6.5t50 21.5t26.5 39t7.5 60t-7.5 60t-26.5 39t-50 21.5t-79 6.5q-46 0 -76.5 -6t-49.5 -19.5t-27.5 -36t-9.5 -54.5h-60z" />
    <glyph glyph-name="four.oldstyle" horiz-adv-x="569" 
d="M528 69v-49h-99v-200h-60v200h-326v55l311 425h74v-432zM370 69v368l-267 -368h267z" />
    <glyph glyph-name="five.oldstyle" horiz-adv-x="556" 
d="M478 451h-354v-257q20 35 61.5 50t104.5 15q61 0 102 -12.5t66.5 -39.5t36.5 -69t11 -102t-11.5 -103t-38.5 -70.5t-70.5 -40t-107.5 -12.5q-115 0 -171.5 40t-56.5 131h57q0 -67 41.5 -94.5t129.5 -27.5q50 0 83.5 9t53.5 30t28 54.5t8 83.5t-8 84t-28 55t-53.5 30
t-83.5 9q-76 0 -114 -24.5t-42 -84.5h-57v395h413v-49z" />
    <glyph glyph-name="six.oldstyle" horiz-adv-x="583" 
d="M128 364q21 42 65 59t120 17q62 0 104 -12t68 -39t37 -69t11 -102q0 -64 -15.5 -107.5t-45 -70.5t-71.5 -38.5t-96 -11.5q-66 0 -112 17.5t-74 58t-40.5 107t-12.5 164.5t12 165t39.5 107.5t71.5 58t108 17.5q42 0 81 -8t68 -27t46.5 -49t17.5 -74h-58q0 31 -11.5 53
t-32.5 35t-49.5 19t-61.5 6q-47 0 -79.5 -12.5t-52.5 -44t-28.5 -84t-8.5 -133.5v-2zM304 393q-44 0 -75.5 -6t-53 -19.5t-33.5 -35t-17 -53.5q2 -70 13 -116.5t32.5 -74t54.5 -38.5t80 -11q42 0 74 8.5t53.5 29.5t32.5 55.5t11 85.5q0 50 -8 84t-28 54.5t-53 29.5t-82 9z
" />
    <glyph glyph-name="seven.oldstyle" horiz-adv-x="513" 
d="M155 -180h-66l319 631h-367v49h439v-35z" />
    <glyph glyph-name="eight.oldstyle" horiz-adv-x="601" 
d="M298 685q62 0 105 -9.5t69.5 -30t38 -53t11.5 -78.5q0 -66 -23.5 -103t-83.5 -52q65 -16 91.5 -57.5t26.5 -117.5q0 -52 -12 -88.5t-39.5 -60t-72.5 -34t-110 -10.5t-110 10.5t-72.5 34t-39.5 60t-12 88.5q0 76 26.5 117.5t91.5 57.5q-60 15 -83.5 52t-23.5 103
q0 46 11.5 78.5t38 53t69.5 30t105 9.5h-2zM298 638q-48 0 -79 -6.5t-50 -21.5t-26.5 -39t-7.5 -60t7.5 -60t26.5 -39t50 -21.5t79 -6.5t79 6.5t50 21.5t26.5 39t7.5 60t-7.5 60t-26.5 39t-50 21.5t-79 6.5zM298 336q-51 0 -84.5 -7.5t-54 -24.5t-28.5 -45t-8 -70t8 -70.5
t28.5 -46.5t54 -25.5t84.5 -7.5t84.5 7.5t54 25.5t28.5 46.5t8 70.5t-8 70t-28.5 45t-54 24.5t-84.5 7.5z" />
    <glyph glyph-name="nine.oldstyle" horiz-adv-x="583" 
d="M455 136q-21 -42 -65 -59t-120 -17q-62 0 -104 12t-68 39t-37 69t-11 102q0 64 15.5 107.5t45 70.5t71.5 38.5t96 11.5q66 0 112 -17.5t74 -58t40.5 -107t12.5 -164.5q0 -99 -12 -165.5t-39.5 -107t-71.5 -58t-108 -17.5q-42 0 -81 8t-68 27t-46.5 49t-17.5 74h58
q0 -32 11.5 -53.5t32.5 -34.5t49.5 -19t61.5 -6q47 0 79.5 12.5t52.5 44t28.5 84t8.5 133.5v2zM278 462q-42 0 -74 -8.5t-53.5 -29.5t-32.5 -55.5t-11 -85.5q0 -50 8 -84t28 -54.5t52.5 -29.5t82.5 -9q44 0 76 6t53.5 19.5t33.5 35t17 53.5q-2 70 -13 116.5t-32.5 74
t-54.5 38.5t-80 11v2z" />
    <glyph glyph-name="zero.tnum" horiz-adv-x="602" 
d="M301 685q66 0 112 -17.5t74 -58t40.5 -107t12.5 -164.5t-12.5 -164.5t-40.5 -107t-74 -58t-112 -17.5t-112 17.5t-74 58t-40.5 107t-12.5 164.5t12.5 164.5t40.5 107t74 58t112 17.5zM301 632q-49 0 -82.5 -13t-54.5 -46.5t-30 -91t-9 -146.5t9 -146.5t30 -91t54.5 -46.5
t82.5 -13t82.5 13t54.5 46.5t30 91.5t9 147t-9 147t-30 91.5t-54.5 46.5t-82.5 13v-2z" />
    <glyph glyph-name="one.tnum" horiz-adv-x="576" 
d="M357 0v616l-172 -141l-35 40l201 165h68v-680h-62z" />
    <glyph glyph-name="two.tnum" horiz-adv-x="600" 
d="M77 488q0 55 17 92.5t48 60.5t73.5 33t94.5 10q50 0 91 -10t70.5 -33.5t45.5 -61t16 -92.5q0 -48 -13.5 -77.5t-37.5 -47.5t-57 -28.5t-71 -20.5l-97 -26q-29 -9 -53.5 -18t-41.5 -24t-26.5 -38t-9.5 -60v-98h410v-49h-472v150q0 50 13.5 82t37 52t55 32t68.5 21l99 26
q30 9 55 17t43 21t27.5 33.5t9.5 54.5q0 42 -11.5 70t-33 45.5t-51.5 25t-67 7.5q-39 0 -70 -7.5t-53 -25t-34 -45.5t-12 -70z" />
    <glyph glyph-name="three.tnum" horiz-adv-x="600" 
d="M77 521q1 39 11.5 69.5t36 51.5t68.5 31.5t108 10.5q62 0 105 -9.5t69.5 -30t38 -53t11.5 -78.5q0 -66 -23.5 -103t-83.5 -52q65 -16 91 -57.5t26 -117.5q0 -52 -12 -88.5t-39.5 -60t-72.5 -34t-110 -10.5q-66 0 -110 11.5t-70.5 33.5t-38 54t-14.5 74h58q2 -35 12 -58.5
t30 -38t52.5 -21t79.5 -6.5q51 0 84.5 7.5t54 25.5t28.5 46.5t8 70.5t-8 70t-28.5 45t-54 24.5t-84.5 7.5h-77v48h77q48 0 79 6.5t50 21.5t26.5 39t7.5 60t-7.5 60t-26.5 39t-50 21.5t-79 6.5q-46 0 -76.5 -6t-49.5 -19.5t-27.5 -36t-9.5 -54.5z" />
    <glyph glyph-name="four.tnum" horiz-adv-x="600" 
d="M543 249v-49h-99v-200h-60v200h-326v55l311 425h74v-432zM385 249v368l-267 -368h267z" />
    <glyph glyph-name="five.tnum" horiz-adv-x="600" 
d="M500 631h-354v-257q20 35 61.5 50t104.5 15q61 0 102 -12.5t66.5 -39.5t36.5 -69t11 -102t-11.5 -103t-38.5 -70.5t-70.5 -40.5t-107.5 -13q-115 0 -171.5 40t-56.5 131h57q0 -67 41.5 -94.5t129.5 -27.5q50 0 83.5 9t53.5 30t28 55t8 84t-8 84t-28 55t-53.5 30t-83.5 9
q-76 0 -114 -24.5t-42 -84.5h-57v395h413v-49z" />
    <glyph glyph-name="six.tnum" horiz-adv-x="600" 
d="M128 364q21 42 65 59t120 17q62 0 104 -12t68 -39t37 -69t11 -102q0 -64 -15.5 -107.5t-45 -70.5t-71.5 -38.5t-96 -11.5q-66 0 -112 17.5t-74 58t-40.5 107t-12.5 164.5t12 165t39.5 107.5t71.5 58t108 17.5q42 0 81 -8t68 -27t46.5 -49t17.5 -74h-58q0 31 -11.5 53
t-32.5 35t-49.5 19t-61.5 6q-47 0 -79.5 -12.5t-52.5 -44t-28.5 -84t-8.5 -133.5v-2zM304 393q-44 0 -75.5 -6t-53 -19.5t-33.5 -35t-17 -53.5q2 -70 13 -116.5t32.5 -74t54.5 -38.5t80 -11q42 0 74 8.5t53.5 29.5t32.5 55.5t11 85.5q0 50 -8 84t-28 54.5t-53 29.5t-82 9z
" />
    <glyph glyph-name="seven.tnum" horiz-adv-x="600" 
d="M195 1h-66l319 630h-367v49h439v-35z" />
    <glyph glyph-name="eight.tnum" horiz-adv-x="600" 
d="M298 685q62 0 105 -9.5t69.5 -30t38 -53t11.5 -78.5q0 -66 -23.5 -103t-83.5 -52q65 -16 91.5 -57.5t26.5 -117.5q0 -52 -12 -88.5t-39.5 -60t-72.5 -34t-110 -10.5t-110 10.5t-72.5 34t-39.5 60t-12 88.5q0 76 26.5 117.5t91.5 57.5q-60 15 -83.5 52t-23.5 103
q0 46 11.5 78.5t38 53t69.5 30t105 9.5h-2zM298 638q-48 0 -79 -6.5t-50 -21.5t-26.5 -39t-7.5 -60t7.5 -60t26.5 -39t50 -21.5t79 -6.5t79 6.5t50 21.5t26.5 39t7.5 60t-7.5 60t-26.5 39t-50 21.5t-79 6.5zM298 336q-51 0 -84.5 -7.5t-54 -24.5t-28.5 -45t-8 -70t8 -70.5
t28.5 -46.5t54 -25.5t84.5 -7.5t84.5 7.5t54 25.5t28.5 46.5t8 70.5t-8 70t-28.5 45t-54 24.5t-84.5 7.5z" />
    <glyph glyph-name="nine.tnum" horiz-adv-x="600" 
d="M472 311q-21 -42 -65 -59t-120 -17q-62 0 -104 12t-68 39t-37 69t-11 102q0 64 15.5 107.5t45 70.5t71.5 38.5t96 11.5q66 0 112 -17.5t74 -58t40.5 -107t12.5 -164.5t-12 -164.5t-39.5 -107t-71.5 -58t-108 -17.5q-42 0 -81 8t-68 27t-46.5 49t-17.5 74h58
q0 -32 11.5 -53.5t32.5 -34.5t49.5 -19t61.5 -6q47 0 79.5 12.5t52.5 43.5t28.5 84t8.5 133v2zM295 637q-42 0 -74 -8.5t-53.5 -29.5t-32.5 -55.5t-11 -85.5q0 -50 8 -84t28 -54.5t52.5 -29.5t82.5 -9q44 0 75.5 6t53 19.5t34 35t17.5 53.5q-2 70 -13 116.5t-32.5 74
t-54.5 38.5t-80 11v2z" />
    <glyph glyph-name="zero.tnum.oldstyle" horiz-adv-x="424" 
d="M212 506q49 0 83 -13t55 -43t30.5 -79t9.5 -121t-9.5 -121t-30.5 -79t-55 -43t-83 -13t-83 13t-55 43t-30.5 79t-9.5 121t9.5 121t30.5 79t55 43t83 13zM212 461q-35 0 -58.5 -9t-37.5 -33t-20.5 -65t-6.5 -105t6.5 -105t20.5 -65t37.5 -33t58.5 -9q34 0 58 9t38 33
t20.5 65t6.5 105t-6.5 105t-20.5 65t-38 33t-58 9z" />
    <glyph glyph-name="one.tnum.oldstyle" horiz-adv-x="412" 
d="M256 0v439l-120 -98l-32 36l150 123h56v-500h-54z" />
    <glyph glyph-name="two.tnum.oldstyle" horiz-adv-x="500" 
d="M80 356q0 41 13 69t36 45.5t55.5 25t70.5 7.5q37 0 67.5 -7.5t52.5 -25t34.5 -45.5t12.5 -69q0 -36 -10.5 -58t-29 -35.5t-43 -21.5t-52.5 -15l-70 -19q-21 -6 -37.5 -12.5t-28 -17t-18 -26.5t-6.5 -41v-67h298v-44h-353v113q0 37 10.5 61t28 39.5t41.5 24.5t51 16l72 19
q22 6 39.5 11.5t29.5 14.5t18.5 23t6.5 38q0 59 -30 81.5t-82 22.5q-55 0 -86.5 -22.5t-31.5 -81.5z" />
    <glyph glyph-name="three.tnum.oldstyle" horiz-adv-x="600" 
d="M77 347q1 39 11.5 69.5t36 51.5t68.5 31.5t108 10.5q62 0 105 -9.5t69.5 -30t38 -53t11.5 -78.5q0 -66 -23.5 -103t-83.5 -52q65 -16 91 -57.5t26 -117.5q0 -51 -12 -88t-39.5 -60t-72.5 -34t-110 -11q-66 0 -110 11.5t-70.5 33.5t-38 54.5t-14.5 74.5h58q2 -35 12 -58.5
t30 -38.5t52.5 -21.5t79.5 -6.5q51 0 84.5 7.5t54 25t28.5 46t8 70.5t-8 70t-28.5 45t-54 24.5t-84.5 7.5h-77v48h77q48 0 79 6.5t50 21.5t26.5 39t7.5 60t-7.5 60t-26.5 39t-50 21.5t-79 6.5q-46 0 -76.5 -6t-49.5 -19.5t-27.5 -36t-9.5 -54.5h-60z" />
    <glyph glyph-name="four.tnum.oldstyle" horiz-adv-x="600" 
d="M543 69v-49h-99v-200h-60v200h-326v55l311 425h74v-432zM385 69v368l-267 -368h267z" />
    <glyph glyph-name="five.tnum.oldstyle" horiz-adv-x="600" 
d="M500 451h-354v-257q20 35 61.5 50t104.5 15q61 0 102 -12.5t66.5 -39.5t36.5 -69t11 -102t-11.5 -103t-38.5 -70.5t-70.5 -40t-107.5 -12.5q-115 0 -171.5 40t-56.5 131h57q0 -67 41.5 -94.5t129.5 -27.5q50 0 83.5 9t53.5 30t28 54.5t8 83.5t-8 84t-28 55t-53.5 30
t-83.5 9q-76 0 -114 -24.5t-42 -84.5h-57v395h413v-49z" />
    <glyph glyph-name="six.tnum.oldstyle" horiz-adv-x="600" 
d="M128 364q21 42 65 59t120 17q62 0 104 -12t68 -39t37 -69t11 -102q0 -64 -15.5 -107.5t-45 -70.5t-71.5 -38.5t-96 -11.5q-66 0 -112 17.5t-74 58t-40.5 107t-12.5 164.5t12 165t39.5 107.5t71.5 58t108 17.5q42 0 81 -8t68 -27t46.5 -49t17.5 -74h-58q0 31 -11.5 53
t-32.5 35t-49.5 19t-61.5 6q-47 0 -79.5 -12.5t-52.5 -44t-28.5 -84t-8.5 -133.5v-2zM304 393q-44 0 -75.5 -6t-53 -19.5t-33.5 -35t-17 -53.5q2 -70 13 -116.5t32.5 -74t54.5 -38.5t80 -11q42 0 74 8.5t53.5 29.5t32.5 55.5t11 85.5q0 50 -8 84t-28 54.5t-53 29.5t-82 9z
" />
    <glyph glyph-name="seven.tnum.oldstyle" horiz-adv-x="600" 
d="M195 -180h-66l319 631h-367v49h439v-35z" />
    <glyph glyph-name="eight.tnum.oldstyle" horiz-adv-x="600" 
d="M298 685q62 0 105 -9.5t69.5 -30t38 -53t11.5 -78.5q0 -66 -23.5 -103t-83.5 -52q65 -16 91.5 -57.5t26.5 -117.5q0 -52 -12 -88.5t-39.5 -60t-72.5 -34t-110 -10.5t-110 10.5t-72.5 34t-39.5 60t-12 88.5q0 76 26.5 117.5t91.5 57.5q-60 15 -83.5 52t-23.5 103
q0 46 11.5 78.5t38 53t69.5 30t105 9.5h-2zM298 638q-48 0 -79 -6.5t-50 -21.5t-26.5 -39t-7.5 -60t7.5 -60t26.5 -39t50 -21.5t79 -6.5t79 6.5t50 21.5t26.5 39t7.5 60t-7.5 60t-26.5 39t-50 21.5t-79 6.5zM298 336q-51 0 -84.5 -7.5t-54 -24.5t-28.5 -45t-8 -70t8 -70.5
t28.5 -46.5t54 -25.5t84.5 -7.5t84.5 7.5t54 25.5t28.5 46.5t8 70.5t-8 70t-28.5 45t-54 24.5t-84.5 7.5z" />
    <glyph glyph-name="nine.tnum.oldstyle" horiz-adv-x="600" 
d="M472 136q-21 -42 -65 -59t-120 -17q-62 0 -104 12t-68 39t-37 69t-11 102q0 64 15.5 107.5t45 70.5t71.5 38.5t96 11.5q66 0 112 -17.5t74 -58t40.5 -107t12.5 -164.5q0 -99 -12 -165.5t-39.5 -107t-71.5 -58t-108 -17.5q-42 0 -81 8t-68 27t-46.5 49t-17.5 74h58
q0 -32 11.5 -53.5t32.5 -34.5t49.5 -19t61.5 -6q47 0 79.5 12.5t52.5 44t28.5 84t8.5 133.5v2zM295 462q-42 0 -74 -8.5t-53.5 -29.5t-32.5 -55.5t-11 -85.5q0 -50 8 -84t28 -54.5t52.5 -29.5t82.5 -9q44 0 75.5 6t53 19.5t34 35t17.5 53.5q-2 70 -13 116.5t-32.5 74
t-54.5 38.5t-80 11v2z" />
    <glyph glyph-name="zero.dnom" horiz-adv-x="380" 
d="M190 422q41 0 69.5 -11t46 -36t25.5 -66t8 -101t-8 -101t-25.5 -66t-46 -36t-69.5 -11t-69.5 11t-46 36t-25.5 66t-8 101t8 101t25.5 66.5t46 36.5t69.5 11v-1zM190 384q-29 0 -48.5 -7.5t-31.5 -27t-17.5 -54t-5.5 -87.5t5.5 -87.5t17.5 -54t31.5 -27t48.5 -7.5
t48.5 7.5t31.5 27t17.5 54t5.5 87.5t-5.5 87.5t-17.5 54t-31.5 27t-48.5 7.5z" />
    <glyph glyph-name="one.dnom" horiz-adv-x="243" 
d="M140 1v368l-100 -82l-27 30l126 103h47v-420z" />
    <glyph glyph-name="two.dnom" horiz-adv-x="344" 
d="M25 295q0 35 10.5 59t29.5 38.5t46 21t59 6.5q31 0 56.5 -6.5t44 -21t29 -38t10.5 -57.5q0 -30 -9 -48.5t-24 -30t-35.5 -18t-43.5 -12.5l-59 -15q-18 -5 -32 -10.5t-23.5 -14t-15 -22t-5.5 -34.5v-55h248v-37h-295v94q0 31 8.5 50.5t23.5 32.5t34.5 20t42.5 13l60 15
q18 5 33 9.5t25 12t15.5 19t5.5 31.5q0 49 -25 67.5t-69 18.5q-46 0 -72.5 -19.5t-25.5 -69.5z" />
    <glyph glyph-name="three.dnom" horiz-adv-x="350" 
d="M22 316q0 24 6.5 43.5t22 33t42.5 21t69 7.5q77 0 108.5 -25t31.5 -82q0 -38 -13 -60.5t-45 -33.5q35 -11 49.5 -36.5t14.5 -69.5q0 -63 -33 -91.5t-113 -28.5q-42 0 -69.5 8t-44 22.5t-23.5 35t-8 46.5h44q2 -42 23.5 -58.5t78.5 -16.5q30 0 49.5 4.5t31.5 14.5
t16.5 26.5t4.5 40.5t-4.5 40.5t-16.5 26.5t-31.5 14t-49.5 4h-51v36h51q56 0 75.5 16t19.5 57q0 42 -19.5 57.5t-75.5 15.5q-28 0 -46 -3.5t-29 -11.5t-15.5 -21.5t-4.5 -33.5z" />
    <glyph glyph-name="four.dnom" horiz-adv-x="336" 
d="M312 159v-37h-60v-121h-45v121h-197v38l190 260h52v-262zM208 159v206l-150 -206h150z" />
    <glyph glyph-name="five.dnom" horiz-adv-x="332" 
d="M285 383h-215v-143q26 33 96 33q76 0 106 -32.5t30 -105.5q0 -75 -31.5 -108t-111.5 -33q-71 0 -107 25.5t-36 82.5h43q0 -39 24 -55t76 -16q58 0 79 22.5t21 81.5t-21 81.5t-79 22.5q-45 0 -66 -14t-23 -49h-43v244h259z" />
    <glyph glyph-name="six.dnom" horiz-adv-x="364" 
d="M281 320q1 37 -24 51.5t-65 14.5q-27 0 -45.5 -7t-30 -24.5t-17 -47.5t-5.5 -76q14 21 40 30t68 9q76 0 107 -31.5t31 -103.5q0 -79 -38 -110.5t-104 -31.5q-41 0 -69.5 11t-46 36t-25.5 66t-8 101t7.5 101t24.5 66.5t44.5 36.5t67.5 11q26 0 50.5 -5t43 -17t29 -31
t10.5 -47zM195 28q50 0 75 22t25 83q0 30 -4.5 49.5t-16 31.5t-30.5 17t-48 5q-52 0 -75.5 -14t-29.5 -51q1 -42 7.5 -69.5t19 -43.5t32 -22.5t46.5 -6.5z" />
    <glyph glyph-name="seven.dnom" horiz-adv-x="294" 
d="M87 0h-50l193 382h-220v37h275v-26z" />
    <glyph glyph-name="eight.dnom" horiz-adv-x="374" 
d="M187 423q77 0 108.5 -25.5t31.5 -82.5q0 -38 -13 -60.5t-45 -33.5q35 -11 49.5 -36.5t14.5 -69.5q0 -64 -33 -92.5t-113 -28.5t-113 28.5t-33 92.5q0 44 14.5 69.5t49.5 36.5q-32 11 -45 33.5t-13 60.5q0 57 31.5 82.5t108.5 25.5zM187 387q-56 0 -75.5 -16t-19.5 -58
t19.5 -58t75.5 -16t75.5 16t19.5 58t-19.5 58t-75.5 16zM187 204q-30 0 -49.5 -4t-31.5 -14t-16.5 -26.5t-4.5 -40.5q0 -25 4.5 -41.5t16.5 -26.5t31.5 -14.5t49.5 -4.5t49.5 4.5t31.5 14.5t16.5 26.5t4.5 41.5q0 24 -4.5 40.5t-16.5 26.5t-31.5 14t-49.5 4z" />
    <glyph glyph-name="nine.dnom" horiz-adv-x="364" 
d="M83 97q-1 -37 24 -51.5t65 -14.5q27 0 45.5 7t30 24.5t17 47.5t5.5 76q-14 -21 -39.5 -30t-67.5 -9q-38 0 -64.5 7.5t-43 24t-23.5 42t-7 61.5q0 79 38 110.5t104 31.5q41 0 69.5 -11t46 -36t25.5 -66t8 -101t-7.5 -101t-24.5 -66.5t-44.5 -36.5t-67.5 -11q-26 0 -50.5 5
t-43 17t-29 31t-10.5 47zM169 181q52 0 75.5 14t29.5 51q-2 42 -8 69.5t-18.5 43.5t-32 22.5t-46.5 6.5q-50 0 -75 -22t-25 -83q0 -30 4.5 -49.5t16 -31.5t30.5 -17t48 -5z" />
    <glyph glyph-name="zero.numr" horiz-adv-x="380" 
d="M190 705q41 0 69.5 -11t46 -36t25.5 -66t8 -101t-8 -101t-25.5 -66t-46 -36t-69.5 -11t-69.5 11t-46 36t-25.5 66t-8 101t8 101t25.5 66.5t46 36.5t69.5 11v-1zM190 667q-29 0 -48.5 -7.5t-31.5 -27t-17.5 -54t-5.5 -87.5t5.5 -87.5t17.5 -54t31.5 -27t48.5 -7.5
t48.5 7.5t31.5 27t17.5 54t5.5 87.5t-5.5 87.5t-17.5 54t-31.5 27t-48.5 7.5z" />
    <glyph glyph-name="one.numr" horiz-adv-x="243" 
d="M140 281v368l-100 -82l-27 30l126 103h47v-420z" />
    <glyph glyph-name="two.numr" horiz-adv-x="344" 
d="M25 582q0 35 10.5 59t29.5 38.5t46 21t59 6.5q31 0 56.5 -6.5t44 -21t29 -38t10.5 -57.5q0 -30 -9 -48.5t-24 -30t-35.5 -18t-43.5 -12.5l-59 -15q-18 -5 -32 -10.5t-23.5 -14t-15 -22t-5.5 -34.5v-55h248v-37h-295v94q0 31 8.5 50.5t23.5 32.5t34.5 20t42.5 13l60 15
q18 5 33 9.5t25 12t15.5 19t5.5 31.5q0 49 -25 67.5t-69 18.5q-46 0 -72.5 -19.5t-25.5 -69.5z" />
    <glyph glyph-name="three.numr" horiz-adv-x="350" 
d="M22 602q0 24 6.5 43.5t22 33t42.5 21t69 7.5q77 0 108.5 -25t31.5 -82q0 -38 -13 -60.5t-45 -33.5q35 -11 49.5 -36.5t14.5 -69.5q0 -63 -33 -91.5t-113 -28.5q-42 0 -69.5 8t-44 22.5t-23.5 35t-8 46.5h44q2 -42 23.5 -58.5t78.5 -16.5q30 0 49.5 4.5t31.5 14.5
t16.5 26.5t4.5 40.5t-4.5 40.5t-16.5 26.5t-31.5 14t-49.5 4h-51v36h51q56 0 75.5 16t19.5 57q0 42 -19.5 57.5t-75.5 15.5q-28 0 -46 -3.5t-29 -11.5t-15.5 -21.5t-4.5 -33.5z" />
    <glyph glyph-name="four.numr" horiz-adv-x="336" 
d="M312 439v-37h-60v-121h-45v121h-197v38l190 260h52v-262zM208 439v206l-150 -206h150z" />
    <glyph glyph-name="five.numr" horiz-adv-x="332" 
d="M285 663h-215v-143q26 33 96 33q76 0 106 -32.5t30 -105.5q0 -75 -31.5 -108t-111.5 -33q-71 0 -107 25.5t-36 82.5h43q0 -39 24 -55t76 -16q58 0 79 22.5t21 81.5t-21 81.5t-79 22.5q-45 0 -66 -14t-23 -49h-43v244h259z" />
    <glyph glyph-name="six.numr" horiz-adv-x="364" 
d="M282 603q1 37 -24 51.5t-65 14.5q-27 0 -45.5 -7t-30 -24.5t-17 -47.5t-5.5 -76q14 21 39.5 30t67.5 9q76 0 107 -31.5t31 -103.5q0 -79 -38 -110.5t-104 -31.5q-41 0 -69.5 11t-46 36t-25.5 66t-8 101t7.5 101t24.5 66.5t44.5 36.5t67.5 11q26 0 50.5 -5t43 -17t29 -31
t10.5 -47zM196 311q50 0 75 22t25 83q0 30 -4.5 49.5t-16 31.5t-30.5 17t-48 5q-52 0 -75.5 -14t-29.5 -51q1 -42 7.5 -69.5t19 -43.5t32 -22.5t46.5 -6.5z" />
    <glyph glyph-name="seven.numr" horiz-adv-x="294" 
d="M87 281h-50l193 382h-220v37h275v-26z" />
    <glyph glyph-name="eight.numr" horiz-adv-x="374" 
d="M187 706q77 0 108.5 -25.5t31.5 -82.5q0 -38 -13 -60.5t-45 -33.5q35 -11 49.5 -36.5t14.5 -69.5q0 -64 -33 -92.5t-113 -28.5t-113 28.5t-33 92.5q0 44 14.5 69.5t49.5 36.5q-32 11 -45 33.5t-13 60.5q0 57 31.5 82.5t108.5 25.5zM187 670q-56 0 -75.5 -16t-19.5 -58
t19.5 -58t75.5 -16t75.5 16t19.5 58t-19.5 58t-75.5 16zM187 487q-30 0 -49.5 -4t-31.5 -14t-16.5 -26.5t-4.5 -40.5q0 -25 4.5 -41.5t16.5 -26.5t31.5 -14.5t49.5 -4.5t49.5 4.5t31.5 14.5t16.5 26.5t4.5 41.5q0 24 -4.5 40.5t-16.5 26.5t-31.5 14t-49.5 4z" />
    <glyph glyph-name="nine.numr" horiz-adv-x="364" 
d="M83 380q-1 -37 24 -51.5t65 -14.5q27 0 45.5 7t30 24.5t17 47.5t5.5 76q-14 -21 -39.5 -30t-67.5 -9q-38 0 -64.5 7.5t-43 24t-23.5 42t-7 61.5q0 79 38 110.5t104 31.5q41 0 69.5 -11t46 -36t25.5 -66t8 -101t-7.5 -101t-24.5 -66.5t-44.5 -36.5t-67.5 -11
q-26 0 -50.5 5t-43 17t-29 31t-10.5 47zM169 463q52 0 75.5 14.5t29.5 51.5q-2 42 -8 69.5t-18.5 43.5t-32 22.5t-46.5 6.5q-50 0 -75 -22t-25 -83q0 -30 4.5 -49.5t16 -31.5t30.5 -17t48 -5h1z" />
    </font>
</defs>
</svg>
